; Drill file
; Format: 2.4 (00.0000)
M48
INCH
T01C0.0272
T02C0.0276
T03C0.0283
T04C0.0315
T05C0.0394
T06C0.0551
T07C0.0591
T08C0.0669
%
G05
G90
T01
X001000Y020500
X001000Y021500
X001000Y022500
X001000Y023500
X000000Y023500
X000000Y022500
X-001000Y022500
X-001000Y023500
X004000Y023500
X005000Y023500
X006000Y023500
X005000Y024500
X005000Y026500
X006240Y029990
X005740Y030540
X006240Y031090
X004500Y030500
X003500Y030500
X002500Y030500
X000500Y030500
X000500Y035000
X000500Y036000
X001500Y036000
X001500Y035000
X002500Y035000
X003500Y035000
X004500Y035000
X004500Y036000
X005500Y035000
X006500Y035000
X007500Y035000
X007500Y036000
X008500Y035000
X010000Y034000
X011000Y034000
X011000Y035000
X010500Y035000
X010500Y036000
X011500Y036500
X011500Y037500
X010000Y038000
X010000Y039000
X009000Y037500
X007000Y037500
X005740Y037490
X005240Y038040
X005740Y038590
X004000Y038000
X003000Y038000
X002000Y038000
X000000Y038000
X011740Y035040
X012240Y035590
X012240Y034490
X013500Y034000
X013500Y035000
X013500Y036000
X013500Y037000
X014740Y035540
X015240Y036090
X015500Y037000
X016500Y037000
X016500Y036000
X017500Y036000
X017500Y037000
X017500Y038000
X017500Y039000
X015500Y039000
X015240Y034990
X015500Y034000
X014500Y034000
X016500Y034000
X016500Y035000
X017500Y034500
X017500Y033500
X014500Y029500
X014500Y027500
X015500Y025500
X015500Y024500
X016470Y022970
X016470Y021060
X018970Y021060
X020500Y021000
X021500Y021000
X023000Y021000
X023000Y022000
X023000Y024000
X023000Y025570
X025500Y024000
X025500Y023000
X025500Y022000
X025500Y021000
X027500Y020000
X028500Y020000
X028500Y021000
X028500Y022000
X028500Y023000
X028500Y024000
X029500Y024000
X029500Y025000
X030500Y024000
X030500Y023000
X031500Y023000
X031500Y022000
X030500Y022000
X029500Y022000
X029500Y023000
X031500Y025500
X031500Y026500
X029500Y027000
X030000Y029000
X030000Y030000
X028500Y031000
X026500Y031000
X025000Y030000
X025000Y029000
X024500Y033500
X024500Y034500
X024500Y035500
X023500Y034500
X023500Y033500
X022500Y035500
X022000Y037000
X023000Y037000
X022290Y038520
X021290Y038520
X026000Y039070
X026000Y037500
X028000Y038000
X028000Y039000
X028500Y035500
X028500Y033500
X034500Y033500
X034500Y034500
X036500Y036000
X036500Y037000
X035000Y030000
X035000Y029000
X035410Y022000
X035000Y018000
X033000Y018000
X032000Y018000
X032000Y019000
X030500Y019000
X030500Y018000
X027500Y017500
X027500Y018500
X026500Y018500
X026500Y017500
X025500Y017500
X025500Y018500
X024240Y018590
X023740Y018040
X024240Y017490
X024000Y015500
X022430Y015500
X020990Y015500
X020990Y016500
X020990Y017500
X020990Y018500
X017990Y018500
X017000Y018500
X017990Y017500
X017990Y016500
X017990Y015500
X017000Y015500
X016300Y015560
X015300Y015560
X015000Y017000
X015000Y018570
X013970Y021060
X013970Y022970
X013000Y024500
X013000Y025500
X011470Y022970
X010000Y023500
X008240Y023590
X007740Y023040
X008240Y022490
X010000Y021500
X011470Y021060
X011500Y018570
X011500Y017000
X012000Y015500
X010500Y015500
X009500Y015500
X013570Y015500
X018970Y022970
X020500Y022500
X020500Y023500
X018000Y024500
X018000Y025500
X006000Y021500
X005000Y021500
X004000Y021500
X004000Y022500
X004000Y020500
T02
X020000Y033500
X021000Y034500
X020000Y035500
X031500Y034500
X032500Y035500
X031500Y036500
T03
X008000Y025500
X009000Y025500
X009000Y026500
X010000Y028000
X009000Y033000
X008000Y033000
X009000Y036000
X019500Y037500
X019500Y038500
X020500Y038500
X020500Y037500
X031000Y032500
X036500Y032500
X025500Y026500
T04
X-001000Y016500
X-001000Y017500
X-001000Y029500
X-001000Y030500
X-001000Y035000
X-001000Y036000
X-001000Y038000
X-001000Y039000
X007500Y039000
X008500Y039000
X012000Y030000
X013000Y030000
X007000Y029000
X007000Y028000
X006000Y028000
X006000Y029000
X024000Y028500
X024000Y027500
X026500Y030000
X028500Y030000
X031500Y030000
X033500Y030000
X036500Y033500
X034500Y038000
X033500Y038000
X033500Y039000
X034500Y039000
X029500Y039000
X029500Y038000
X023500Y038000
X023500Y039000
X029500Y021000
X029500Y020000
X033500Y021000
X033500Y022000
X034500Y020500
X036000Y019000
X036000Y018000
T05
X015520Y027510
X015520Y030510
X018520Y030510
X020520Y030510
X022520Y030510
X022520Y027510
X020520Y027510
X018520Y027510
T06
X-001000Y014500
X-001000Y040500
X036500Y040500
X036500Y014500
T07
X005500Y016500
X007500Y015500
X007500Y017500
X025500Y033500
X027500Y033500
X026500Y035500
T08
X033000Y025500
X034970Y027470
X034970Y023530
M30
