%FSLAX34Y34*%
%MOMM*%
%LNCOPPER_BOTTOM*%
G71*
G01*
%ADD10C, 0.00*%
%ADD11C, 0.15*%
%ADD12C, 0.21*%
%ADD13C, 0.10*%
%ADD14C, 0.16*%
%ADD15C, 0.12*%
%ADD16C, 0.00*%
%ADD17C, 0.30*%
%ADD18C, 0.20*%
%ADD19C, 0.17*%
%LPD*%
G54D10*
X-50000Y1050000D02*
X950000Y1050000D01*
X950000Y350000D01*
X-50000Y350000D01*
X-50000Y1050000D01*
G54D11*
X-38100Y1003300D02*
X-12700Y1003300D01*
X-12700Y952500D01*
X-38100Y952500D01*
X-38100Y1003300D01*
G54D11*
X88900Y965200D02*
X92000Y965200D01*
G54D11*
G75*
G01X88900Y965200D02*
G03X88900Y965200I-12700J0D01*
G01*
G54D12*
X69774Y985127D02*
X62841Y985127D01*
X62841Y985849D01*
X63708Y987294D01*
X68908Y991627D01*
X69774Y993071D01*
X69774Y994516D01*
X68908Y995960D01*
X67174Y996683D01*
X65441Y996683D01*
X63708Y995960D01*
X62841Y994516D01*
G54D12*
X73818Y985127D02*
X73818Y985127D01*
G54D12*
X84795Y985127D02*
X77862Y985127D01*
X77862Y985849D01*
X78729Y987294D01*
X83929Y991627D01*
X84795Y993071D01*
X84795Y994516D01*
X83929Y995960D01*
X82195Y996683D01*
X80462Y996683D01*
X78729Y995960D01*
X77862Y994516D01*
G54D12*
X88839Y985127D02*
X88839Y996683D01*
G54D12*
X91439Y989460D02*
X94039Y985127D01*
G54D12*
X88839Y988016D02*
X94039Y991627D01*
G54D11*
X40600Y956500D02*
X40600Y973900D01*
X10200Y973900D01*
X10200Y956500D01*
X40600Y956500D01*
G36*
X40500Y956600D02*
X40500Y973300D01*
X33300Y973300D01*
X33300Y956600D01*
X40500Y956600D01*
G37*
G54D13*
X40500Y956600D02*
X40500Y973300D01*
X33300Y973300D01*
X33300Y956600D01*
X40500Y956600D01*
G54D12*
X15845Y944916D02*
X20179Y949250D01*
X20179Y937694D01*
G54D12*
X24222Y937694D02*
X24222Y949250D01*
X31156Y937694D01*
X31156Y949250D01*
G54D12*
X40399Y937694D02*
X40399Y949250D01*
X35199Y942027D01*
X35199Y940583D01*
X42133Y940583D01*
G54D12*
X46176Y944916D02*
X50510Y949250D01*
X50510Y937694D01*
G54D12*
X59753Y937694D02*
X59753Y949250D01*
X54553Y942027D01*
X54553Y940583D01*
X61487Y940583D01*
G54D12*
X69864Y943472D02*
X68130Y943472D01*
X66397Y944194D01*
X65530Y945638D01*
X65530Y947083D01*
X66397Y948527D01*
X68130Y949250D01*
X69864Y949250D01*
X71597Y948527D01*
X72464Y947083D01*
X72464Y945638D01*
X71597Y944194D01*
X69864Y943472D01*
X71597Y942750D01*
X72464Y941305D01*
X72464Y939861D01*
X71597Y938416D01*
X69864Y937694D01*
X68130Y937694D01*
X66397Y938416D01*
X65530Y939861D01*
X65530Y941305D01*
X66397Y942750D01*
X68130Y943472D01*
G54D11*
X145766Y939471D02*
X160966Y944371D01*
X160966Y987971D01*
X145766Y992871D01*
G54D11*
G75*
G01X145666Y992821D02*
G03X145666Y939521I0J-26650D01*
G01*
G54D12*
X79316Y1014052D02*
X80183Y1012607D01*
X81916Y1011885D01*
X83649Y1011885D01*
X85383Y1012607D01*
X86249Y1014052D01*
X86249Y1015496D01*
X85383Y1016941D01*
X83649Y1017663D01*
X81916Y1017663D01*
X80183Y1018385D01*
X79316Y1019829D01*
X79316Y1021274D01*
X80183Y1022718D01*
X81916Y1023441D01*
X83649Y1023441D01*
X85383Y1022718D01*
X86249Y1021274D01*
G54D12*
X90293Y1014052D02*
X91160Y1012607D01*
X92893Y1011885D01*
X94626Y1011885D01*
X96360Y1012607D01*
X97226Y1014052D01*
X97226Y1015496D01*
X96360Y1016941D01*
X94626Y1017663D01*
X92893Y1017663D01*
X91160Y1018385D01*
X90293Y1019829D01*
X90293Y1021274D01*
X91160Y1022718D01*
X92893Y1023441D01*
X94626Y1023441D01*
X96360Y1022718D01*
X97226Y1021274D01*
G54D12*
X105603Y1017663D02*
X103870Y1017663D01*
X102137Y1018385D01*
X101270Y1019829D01*
X101270Y1021274D01*
X102137Y1022718D01*
X103870Y1023441D01*
X105603Y1023441D01*
X107337Y1022718D01*
X108203Y1021274D01*
X108203Y1019829D01*
X107337Y1018385D01*
X105603Y1017663D01*
X107337Y1016941D01*
X108203Y1015496D01*
X108203Y1014052D01*
X107337Y1012607D01*
X105603Y1011885D01*
X103870Y1011885D01*
X102137Y1012607D01*
X101270Y1014052D01*
X101270Y1015496D01*
X102137Y1016941D01*
X103870Y1017663D01*
G54D12*
X119180Y1021274D02*
X119180Y1014052D01*
X118314Y1012607D01*
X116580Y1011885D01*
X114847Y1011885D01*
X113114Y1012607D01*
X112247Y1014052D01*
X112247Y1021274D01*
X113114Y1022718D01*
X114847Y1023441D01*
X116580Y1023441D01*
X118314Y1022718D01*
X119180Y1021274D01*
G54D12*
X130157Y1023441D02*
X123224Y1023441D01*
X123224Y1018385D01*
X124091Y1018385D01*
X125824Y1019107D01*
X127557Y1019107D01*
X129291Y1018385D01*
X130157Y1016941D01*
X130157Y1014052D01*
X129291Y1012607D01*
X127557Y1011885D01*
X125824Y1011885D01*
X124091Y1012607D01*
X123224Y1014052D01*
G54D12*
X141134Y1021274D02*
X141134Y1014052D01*
X140268Y1012607D01*
X138534Y1011885D01*
X136801Y1011885D01*
X135068Y1012607D01*
X134201Y1014052D01*
X134201Y1021274D01*
X135068Y1022718D01*
X136801Y1023441D01*
X138534Y1023441D01*
X140268Y1022718D01*
X141134Y1021274D01*
G54D12*
X145178Y1011885D02*
X145178Y1023441D01*
X149511Y1023441D01*
X151245Y1022718D01*
X152111Y1021274D01*
X152111Y1014052D01*
X151245Y1012607D01*
X149511Y1011885D01*
X145178Y1011885D01*
G54D11*
X177800Y977900D02*
X177800Y1003300D01*
X228600Y1003300D01*
X228600Y977900D01*
X177800Y977900D01*
G54D12*
X164350Y1028306D02*
X171283Y1028306D01*
G54D12*
X167817Y1031194D02*
X167817Y1025417D01*
G54D12*
X182260Y1032639D02*
X181394Y1034083D01*
X179660Y1034806D01*
X177927Y1034806D01*
X176194Y1034083D01*
X175327Y1032639D01*
X175327Y1029028D01*
X175327Y1028306D01*
X177927Y1029750D01*
X179660Y1029750D01*
X181394Y1029028D01*
X182260Y1027583D01*
X182260Y1025417D01*
X181394Y1023972D01*
X179660Y1023250D01*
X177927Y1023250D01*
X176194Y1023972D01*
X175327Y1025417D01*
X175327Y1029028D01*
G54D12*
X186304Y1034806D02*
X190637Y1023250D01*
X194971Y1034806D01*
G54D12*
X203232Y1023250D02*
X203232Y1029750D01*
G54D12*
X203232Y1031917D02*
X203232Y1031917D01*
G54D12*
X207276Y1023250D02*
X207276Y1029750D01*
G54D12*
X207276Y1028306D02*
X208143Y1029317D01*
X209876Y1029750D01*
X211609Y1029317D01*
X212476Y1028306D01*
X212476Y1023250D01*
G54D11*
X188900Y962000D02*
X217500Y962000D01*
X217500Y943000D01*
X188900Y943000D01*
X188900Y962000D01*
G54D12*
X167800Y940539D02*
X168667Y941983D01*
X170400Y942706D01*
X172133Y942706D01*
X173867Y941983D01*
X174733Y940539D01*
X174733Y939094D01*
X173867Y937650D01*
X172133Y936928D01*
X173867Y936206D01*
X174733Y934761D01*
X174733Y933317D01*
X173867Y931872D01*
X172133Y931150D01*
X170400Y931150D01*
X168667Y931872D01*
X167800Y933317D01*
G54D12*
X178777Y940539D02*
X179644Y941983D01*
X181377Y942706D01*
X183110Y942706D01*
X184844Y941983D01*
X185710Y940539D01*
X185710Y939094D01*
X184844Y937650D01*
X183110Y936928D01*
X184844Y936206D01*
X185710Y934761D01*
X185710Y933317D01*
X184844Y931872D01*
X183110Y931150D01*
X181377Y931150D01*
X179644Y931872D01*
X178777Y933317D01*
G54D12*
X193221Y936928D02*
X195821Y935483D01*
X196687Y934039D01*
X196687Y931150D01*
G54D12*
X189754Y931150D02*
X189754Y942706D01*
X194087Y942706D01*
X195821Y941983D01*
X196687Y940539D01*
X196687Y939094D01*
X195821Y937650D01*
X194087Y936928D01*
X189754Y936928D01*
G54D11*
X266700Y1001000D02*
X241300Y1001000D01*
X241300Y954800D01*
X266700Y954800D01*
X266700Y1001000D01*
G54D11*
X262000Y979500D02*
X246000Y979500D01*
G54D11*
X262000Y976300D02*
X246000Y976300D01*
G54D11*
X254000Y979500D02*
X254000Y981100D01*
G54D11*
X254000Y976300D02*
X254000Y974700D01*
G54D12*
X251861Y1021383D02*
X259083Y1021383D01*
X260528Y1020517D01*
X261250Y1018783D01*
X261250Y1017050D01*
X260528Y1015317D01*
X259083Y1014450D01*
X251861Y1014450D01*
X250417Y1015317D01*
X249694Y1017050D01*
X249694Y1018783D01*
X250417Y1020517D01*
X251861Y1021383D01*
G54D12*
X261250Y1025427D02*
X261250Y1025427D01*
G54D12*
X251861Y1036404D02*
X259083Y1036404D01*
X260528Y1035538D01*
X261250Y1033804D01*
X261250Y1032071D01*
X260528Y1030338D01*
X259083Y1029471D01*
X251861Y1029471D01*
X250417Y1030338D01*
X249694Y1032071D01*
X249694Y1033804D01*
X250417Y1035538D01*
X251861Y1036404D01*
G54D12*
X254028Y1040448D02*
X249694Y1044781D01*
X261250Y1044781D01*
G54D11*
X310866Y863271D02*
X326066Y868171D01*
X326066Y911771D01*
X310866Y916671D01*
G54D11*
G75*
G01X310766Y916621D02*
G03X310766Y863321I0J-26650D01*
G01*
G54D12*
X276866Y1011524D02*
X277732Y1010079D01*
X279466Y1009357D01*
X281199Y1009357D01*
X282932Y1010079D01*
X283799Y1011524D01*
X283799Y1012968D01*
X282932Y1014413D01*
X281199Y1015135D01*
X279466Y1015135D01*
X277732Y1015857D01*
X276866Y1017301D01*
X276866Y1018746D01*
X277732Y1020190D01*
X279466Y1020913D01*
X281199Y1020913D01*
X282932Y1020190D01*
X283799Y1018746D01*
G54D12*
X287843Y1011524D02*
X288709Y1010079D01*
X290443Y1009357D01*
X292176Y1009357D01*
X293909Y1010079D01*
X294776Y1011524D01*
X294776Y1012968D01*
X293909Y1014413D01*
X292176Y1015135D01*
X290443Y1015135D01*
X288709Y1015857D01*
X287843Y1017301D01*
X287843Y1018746D01*
X288709Y1020190D01*
X290443Y1020913D01*
X292176Y1020913D01*
X293909Y1020190D01*
X294776Y1018746D01*
G54D12*
X303153Y1015135D02*
X301420Y1015135D01*
X299686Y1015857D01*
X298820Y1017301D01*
X298820Y1018746D01*
X299686Y1020190D01*
X301420Y1020913D01*
X303153Y1020913D01*
X304886Y1020190D01*
X305753Y1018746D01*
X305753Y1017301D01*
X304886Y1015857D01*
X303153Y1015135D01*
X304886Y1014413D01*
X305753Y1012968D01*
X305753Y1011524D01*
X304886Y1010079D01*
X303153Y1009357D01*
X301420Y1009357D01*
X299686Y1010079D01*
X298820Y1011524D01*
X298820Y1012968D01*
X299686Y1014413D01*
X301420Y1015135D01*
G54D12*
X316730Y1018746D02*
X316730Y1011524D01*
X315863Y1010079D01*
X314130Y1009357D01*
X312397Y1009357D01*
X310663Y1010079D01*
X309797Y1011524D01*
X309797Y1018746D01*
X310663Y1020190D01*
X312397Y1020913D01*
X314130Y1020913D01*
X315863Y1020190D01*
X316730Y1018746D01*
G54D12*
X327707Y1020913D02*
X320774Y1020913D01*
X320774Y1015857D01*
X321640Y1015857D01*
X323374Y1016579D01*
X325107Y1016579D01*
X326840Y1015857D01*
X327707Y1014413D01*
X327707Y1011524D01*
X326840Y1010079D01*
X325107Y1009357D01*
X323374Y1009357D01*
X321640Y1010079D01*
X320774Y1011524D01*
G54D12*
X338684Y1018746D02*
X338684Y1011524D01*
X337817Y1010079D01*
X336084Y1009357D01*
X334351Y1009357D01*
X332617Y1010079D01*
X331751Y1011524D01*
X331751Y1018746D01*
X332617Y1020190D01*
X334351Y1020913D01*
X336084Y1020913D01*
X337817Y1020190D01*
X338684Y1018746D01*
G54D12*
X342728Y1009357D02*
X342728Y1020913D01*
X347061Y1020913D01*
X348794Y1020190D01*
X349661Y1018746D01*
X349661Y1011524D01*
X348794Y1010079D01*
X347061Y1009357D01*
X342728Y1009357D01*
G54D11*
X-38100Y927100D02*
X-12700Y927100D01*
X-12700Y876300D01*
X-38100Y876300D01*
X-38100Y927100D01*
G54D12*
X-43550Y906906D02*
X-39217Y895350D01*
X-34883Y906906D01*
G54D12*
X-30839Y895350D02*
X-30839Y906906D01*
X-24772Y906906D01*
G54D12*
X-30839Y901128D02*
X-24772Y901128D01*
G54D12*
X-13795Y904739D02*
X-13795Y897517D01*
X-14661Y896072D01*
X-16395Y895350D01*
X-18128Y895350D01*
X-19861Y896072D01*
X-20728Y897517D01*
X-20728Y904739D01*
X-19861Y906183D01*
X-18128Y906906D01*
X-16395Y906906D01*
X-14661Y906183D01*
X-13795Y904739D01*
G54D12*
X-5534Y895350D02*
X-5534Y901850D01*
G54D12*
X-5534Y904017D02*
X-5534Y904017D01*
G54D12*
X-1490Y895350D02*
X-1490Y901850D01*
G54D12*
X-1490Y900406D02*
X-623Y901417D01*
X1110Y901850D01*
X2843Y901417D01*
X3710Y900406D01*
X3710Y895350D01*
G54D11*
X12700Y901700D02*
X12700Y898600D01*
G54D11*
G75*
G01X12700Y901700D02*
G03X12700Y901700I0J12700D01*
G01*
G54D12*
X-11240Y869859D02*
X-18173Y869859D01*
X-18173Y870581D01*
X-17306Y872026D01*
X-12106Y876359D01*
X-11240Y877803D01*
X-11240Y879248D01*
X-12106Y880692D01*
X-13840Y881415D01*
X-15573Y881415D01*
X-17306Y880692D01*
X-18173Y879248D01*
G54D12*
X-263Y869859D02*
X-7196Y869859D01*
X-7196Y870581D01*
X-6329Y872026D01*
X-1129Y876359D01*
X-263Y877803D01*
X-263Y879248D01*
X-1129Y880692D01*
X-2863Y881415D01*
X-4596Y881415D01*
X-6329Y880692D01*
X-7196Y879248D01*
G54D12*
X10714Y879248D02*
X10714Y872026D01*
X9848Y870581D01*
X8114Y869859D01*
X6381Y869859D01*
X4648Y870581D01*
X3781Y872026D01*
X3781Y879248D01*
X4648Y880692D01*
X6381Y881415D01*
X8114Y881415D01*
X9848Y880692D01*
X10714Y879248D01*
G54D12*
X18225Y875637D02*
X20825Y874192D01*
X21691Y872748D01*
X21691Y869859D01*
G54D12*
X14758Y869859D02*
X14758Y881415D01*
X19091Y881415D01*
X20825Y880692D01*
X21691Y879248D01*
X21691Y877803D01*
X20825Y876359D01*
X19091Y875637D01*
X14758Y875637D01*
G54D11*
X50800Y924800D02*
X25400Y924800D01*
X25400Y878600D01*
X50800Y878600D01*
X50800Y924800D01*
G54D11*
X46100Y903300D02*
X30100Y903300D01*
G54D11*
X46100Y900100D02*
X30100Y900100D01*
G54D11*
X38100Y903300D02*
X38100Y904900D01*
G54D11*
X38100Y900100D02*
X38100Y898500D01*
G54D12*
X32650Y864339D02*
X33517Y865783D01*
X35250Y866506D01*
X36983Y866506D01*
X38717Y865783D01*
X39583Y864339D01*
X39583Y862894D01*
X38717Y861450D01*
X36983Y860728D01*
X38717Y860006D01*
X39583Y858561D01*
X39583Y857117D01*
X38717Y855672D01*
X36983Y854950D01*
X35250Y854950D01*
X33517Y855672D01*
X32650Y857117D01*
G54D12*
X43627Y864339D02*
X44494Y865783D01*
X46227Y866506D01*
X47960Y866506D01*
X49694Y865783D01*
X50560Y864339D01*
X50560Y862894D01*
X49694Y861450D01*
X47960Y860728D01*
X49694Y860006D01*
X50560Y858561D01*
X50560Y857117D01*
X49694Y855672D01*
X47960Y854950D01*
X46227Y854950D01*
X44494Y855672D01*
X43627Y857117D01*
G54D12*
X54604Y861450D02*
X54604Y852061D01*
G54D12*
X54604Y857117D02*
X55471Y855239D01*
X57204Y854950D01*
X58937Y855239D01*
X59804Y856683D01*
X59804Y859572D01*
X58937Y861017D01*
X57204Y861450D01*
X55471Y861017D01*
X54604Y859283D01*
G54D11*
X76200Y889000D02*
X79300Y889000D01*
G54D11*
G75*
G01X76200Y889000D02*
G03X76200Y889000I-12700J0D01*
G01*
G54D12*
X57074Y908927D02*
X50141Y908927D01*
X50141Y909649D01*
X51008Y911094D01*
X56208Y915427D01*
X57074Y916871D01*
X57074Y918316D01*
X56208Y919760D01*
X54474Y920483D01*
X52741Y920483D01*
X51008Y919760D01*
X50141Y918316D01*
G54D12*
X61118Y908927D02*
X61118Y908927D01*
G54D12*
X72095Y908927D02*
X65162Y908927D01*
X65162Y909649D01*
X66029Y911094D01*
X71229Y915427D01*
X72095Y916871D01*
X72095Y918316D01*
X71229Y919760D01*
X69495Y920483D01*
X67762Y920483D01*
X66029Y919760D01*
X65162Y918316D01*
G54D12*
X81339Y915427D02*
X81339Y908927D01*
G54D12*
X81339Y910371D02*
X80472Y909216D01*
X78739Y908927D01*
X77006Y909216D01*
X76139Y910371D01*
X76139Y915427D01*
G54D12*
X85383Y908927D02*
X85383Y920483D01*
G54D12*
X92316Y908927D02*
X92316Y920483D01*
G54D12*
X85383Y914705D02*
X92316Y914705D01*
G54D11*
X127000Y924800D02*
X101600Y924800D01*
X101600Y878600D01*
X127000Y878600D01*
X127000Y924800D01*
G54D11*
X122300Y903300D02*
X106300Y903300D01*
G54D11*
X122300Y900100D02*
X106300Y900100D01*
G54D11*
X114300Y903300D02*
X114300Y904900D01*
G54D11*
X114300Y900100D02*
X114300Y898500D01*
G54D12*
X114328Y836650D02*
X109994Y840983D01*
X121550Y840983D01*
G54D12*
X112161Y851960D02*
X119383Y851960D01*
X120828Y851094D01*
X121550Y849360D01*
X121550Y847627D01*
X120828Y845894D01*
X119383Y845027D01*
X112161Y845027D01*
X110717Y845894D01*
X109994Y847627D01*
X109994Y849360D01*
X110717Y851094D01*
X112161Y851960D01*
G54D12*
X112161Y862937D02*
X119383Y862937D01*
X120828Y862071D01*
X121550Y860337D01*
X121550Y858604D01*
X120828Y856871D01*
X119383Y856004D01*
X112161Y856004D01*
X110717Y856871D01*
X109994Y858604D01*
X109994Y860337D01*
X110717Y862071D01*
X112161Y862937D01*
G54D12*
X115050Y866981D02*
X124439Y866981D01*
G54D12*
X119383Y866981D02*
X121261Y867848D01*
X121550Y869581D01*
X121261Y871314D01*
X119817Y872181D01*
X116928Y872181D01*
X115483Y871314D01*
X115050Y869581D01*
X115483Y867848D01*
X117217Y866981D01*
G54D11*
X152400Y889000D02*
X155500Y889000D01*
G54D11*
G75*
G01X152400Y889000D02*
G03X152400Y889000I-12700J0D01*
G01*
G54D12*
X131541Y908927D02*
X131541Y920483D01*
X126341Y913260D01*
X126341Y911816D01*
X133274Y911816D01*
G54D12*
X137318Y908927D02*
X137318Y908927D01*
G54D12*
X141362Y920483D02*
X148295Y920483D01*
X147429Y919038D01*
X145695Y916871D01*
X143962Y913983D01*
X143095Y911816D01*
X143095Y908927D01*
G54D12*
X157539Y915427D02*
X157539Y908927D01*
G54D12*
X157539Y910371D02*
X156672Y909216D01*
X154939Y908927D01*
X153206Y909216D01*
X152339Y910371D01*
X152339Y915427D01*
G54D12*
X161583Y908927D02*
X161583Y920483D01*
G54D12*
X168516Y908927D02*
X168516Y920483D01*
G54D12*
X161583Y914705D02*
X168516Y914705D01*
G54D11*
X203200Y924800D02*
X177800Y924800D01*
X177800Y878600D01*
X203200Y878600D01*
X203200Y924800D01*
G54D11*
X198500Y903300D02*
X182500Y903300D01*
G54D11*
X198500Y900100D02*
X182500Y900100D01*
G54D11*
X190500Y903300D02*
X190500Y904900D01*
G54D11*
X190500Y900100D02*
X190500Y898500D01*
G54D12*
X184300Y853490D02*
X184300Y846556D01*
X183578Y846556D01*
X182133Y847423D01*
X177800Y852623D01*
X176356Y853490D01*
X174911Y853490D01*
X173467Y852623D01*
X172744Y850890D01*
X172744Y849156D01*
X173467Y847423D01*
X174911Y846556D01*
G54D12*
X184300Y864467D02*
X184300Y857533D01*
X183578Y857533D01*
X182133Y858400D01*
X177800Y863600D01*
X176356Y864467D01*
X174911Y864467D01*
X173467Y863600D01*
X172744Y861867D01*
X172744Y860133D01*
X173467Y858400D01*
X174911Y857533D01*
G54D12*
X177800Y868510D02*
X187189Y868510D01*
G54D12*
X182133Y868510D02*
X184011Y869377D01*
X184300Y871110D01*
X184011Y872844D01*
X182567Y873710D01*
X179678Y873710D01*
X178233Y872844D01*
X177800Y871110D01*
X178233Y869377D01*
X179967Y868510D01*
G54D11*
X266700Y901700D02*
X266700Y898600D01*
G54D11*
G75*
G01X266700Y901700D02*
G03X266700Y901700I0J12700D01*
G01*
G54D12*
X242760Y933359D02*
X235827Y933359D01*
X235827Y934081D01*
X236694Y935526D01*
X241894Y939859D01*
X242760Y941303D01*
X242760Y942748D01*
X241894Y944192D01*
X240160Y944915D01*
X238427Y944915D01*
X236694Y944192D01*
X235827Y942748D01*
G54D12*
X253737Y933359D02*
X246804Y933359D01*
X246804Y934081D01*
X247671Y935526D01*
X252871Y939859D01*
X253737Y941303D01*
X253737Y942748D01*
X252871Y944192D01*
X251137Y944915D01*
X249404Y944915D01*
X247671Y944192D01*
X246804Y942748D01*
G54D12*
X264714Y942748D02*
X264714Y935526D01*
X263848Y934081D01*
X262114Y933359D01*
X260381Y933359D01*
X258648Y934081D01*
X257781Y935526D01*
X257781Y942748D01*
X258648Y944192D01*
X260381Y944915D01*
X262114Y944915D01*
X263848Y944192D01*
X264714Y942748D01*
G54D12*
X268758Y933359D02*
X268758Y944915D01*
G54D12*
X271358Y937692D02*
X273958Y933359D01*
G54D12*
X268758Y936248D02*
X273958Y939859D01*
G54D11*
X304800Y962900D02*
X279400Y962900D01*
X279400Y916700D01*
X304800Y916700D01*
X304800Y962900D01*
G54D11*
X300100Y941400D02*
X284100Y941400D01*
G54D11*
X300100Y938200D02*
X284100Y938200D01*
G54D11*
X292100Y941400D02*
X292100Y943000D01*
G54D11*
X292100Y938200D02*
X292100Y936600D01*
G54D12*
X289961Y983283D02*
X297183Y983283D01*
X298628Y982417D01*
X299350Y980683D01*
X299350Y978950D01*
X298628Y977217D01*
X297183Y976350D01*
X289961Y976350D01*
X288517Y977217D01*
X287794Y978950D01*
X287794Y980683D01*
X288517Y982417D01*
X289961Y983283D01*
G54D12*
X299350Y987327D02*
X299350Y987327D01*
G54D12*
X292128Y991371D02*
X287794Y995704D01*
X299350Y995704D01*
G54D11*
X330200Y853200D02*
X355600Y853200D01*
X355600Y899400D01*
X330200Y899400D01*
X330200Y853200D01*
G54D11*
X334900Y874700D02*
X350900Y874700D01*
G54D11*
X334900Y877900D02*
X350900Y877900D01*
G54D11*
X342900Y874700D02*
X342900Y873100D01*
G54D11*
X342900Y877900D02*
X342900Y879500D01*
G54D12*
X338961Y821283D02*
X346183Y821283D01*
X347628Y820417D01*
X348350Y818683D01*
X348350Y816950D01*
X347628Y815217D01*
X346183Y814350D01*
X338961Y814350D01*
X337517Y815217D01*
X336794Y816950D01*
X336794Y818683D01*
X337517Y820417D01*
X338961Y821283D01*
G54D12*
X348350Y825327D02*
X348350Y825327D01*
G54D12*
X338961Y836304D02*
X346183Y836304D01*
X347628Y835438D01*
X348350Y833704D01*
X348350Y831971D01*
X347628Y830238D01*
X346183Y829371D01*
X338961Y829371D01*
X337517Y830238D01*
X336794Y831971D01*
X336794Y833704D01*
X337517Y835438D01*
X338961Y836304D01*
G54D12*
X341128Y840348D02*
X336794Y844681D01*
X348350Y844681D01*
G54D11*
X387066Y875971D02*
X402266Y880871D01*
X402266Y924471D01*
X387066Y929371D01*
G54D11*
G75*
G01X386966Y929321D02*
G03X386966Y876021I0J-26650D01*
G01*
G54D12*
X353066Y1024224D02*
X353932Y1022779D01*
X355666Y1022057D01*
X357399Y1022057D01*
X359132Y1022779D01*
X359999Y1024224D01*
X359999Y1025668D01*
X359132Y1027113D01*
X357399Y1027835D01*
X355666Y1027835D01*
X353932Y1028557D01*
X353066Y1030001D01*
X353066Y1031446D01*
X353932Y1032890D01*
X355666Y1033613D01*
X357399Y1033613D01*
X359132Y1032890D01*
X359999Y1031446D01*
G54D12*
X364043Y1024224D02*
X364909Y1022779D01*
X366643Y1022057D01*
X368376Y1022057D01*
X370109Y1022779D01*
X370976Y1024224D01*
X370976Y1025668D01*
X370109Y1027113D01*
X368376Y1027835D01*
X366643Y1027835D01*
X364909Y1028557D01*
X364043Y1030001D01*
X364043Y1031446D01*
X364909Y1032890D01*
X366643Y1033613D01*
X368376Y1033613D01*
X370109Y1032890D01*
X370976Y1031446D01*
G54D12*
X379353Y1027835D02*
X377620Y1027835D01*
X375886Y1028557D01*
X375020Y1030001D01*
X375020Y1031446D01*
X375886Y1032890D01*
X377620Y1033613D01*
X379353Y1033613D01*
X381086Y1032890D01*
X381953Y1031446D01*
X381953Y1030001D01*
X381086Y1028557D01*
X379353Y1027835D01*
X381086Y1027113D01*
X381953Y1025668D01*
X381953Y1024224D01*
X381086Y1022779D01*
X379353Y1022057D01*
X377620Y1022057D01*
X375886Y1022779D01*
X375020Y1024224D01*
X375020Y1025668D01*
X375886Y1027113D01*
X377620Y1027835D01*
G54D12*
X392930Y1031446D02*
X392930Y1024224D01*
X392063Y1022779D01*
X390330Y1022057D01*
X388597Y1022057D01*
X386863Y1022779D01*
X385997Y1024224D01*
X385997Y1031446D01*
X386863Y1032890D01*
X388597Y1033613D01*
X390330Y1033613D01*
X392063Y1032890D01*
X392930Y1031446D01*
G54D12*
X403907Y1033613D02*
X396974Y1033613D01*
X396974Y1028557D01*
X397840Y1028557D01*
X399574Y1029279D01*
X401307Y1029279D01*
X403040Y1028557D01*
X403907Y1027113D01*
X403907Y1024224D01*
X403040Y1022779D01*
X401307Y1022057D01*
X399574Y1022057D01*
X397840Y1022779D01*
X396974Y1024224D01*
G54D12*
X414884Y1031446D02*
X414884Y1024224D01*
X414017Y1022779D01*
X412284Y1022057D01*
X410551Y1022057D01*
X408817Y1022779D01*
X407951Y1024224D01*
X407951Y1031446D01*
X408817Y1032890D01*
X410551Y1033613D01*
X412284Y1033613D01*
X414017Y1032890D01*
X414884Y1031446D01*
G54D12*
X418928Y1022057D02*
X418928Y1033613D01*
X423261Y1033613D01*
X424994Y1032890D01*
X425861Y1031446D01*
X425861Y1024224D01*
X424994Y1022779D01*
X423261Y1022057D01*
X418928Y1022057D01*
G54D11*
X342900Y927100D02*
X342900Y924000D01*
G54D11*
G75*
G01X342900Y927100D02*
G03X342900Y927100I0J12700D01*
G01*
G54D12*
X324727Y934692D02*
X324727Y927759D01*
X324005Y927759D01*
X322560Y928626D01*
X318227Y933826D01*
X316783Y934692D01*
X315338Y934692D01*
X313894Y933826D01*
X313171Y932092D01*
X313171Y930359D01*
X313894Y928626D01*
X315338Y927759D01*
G54D12*
X324727Y945669D02*
X324727Y938736D01*
X324005Y938736D01*
X322560Y939603D01*
X318227Y944803D01*
X316783Y945669D01*
X315338Y945669D01*
X313894Y944803D01*
X313171Y943069D01*
X313171Y941336D01*
X313894Y939603D01*
X315338Y938736D01*
G54D12*
X324727Y949713D02*
X313171Y949713D01*
G54D12*
X320394Y952313D02*
X324727Y954913D01*
G54D12*
X321838Y949713D02*
X318227Y954913D01*
G54D11*
X266700Y863600D02*
X269800Y863600D01*
G54D11*
G75*
G01X266700Y863600D02*
G03X266700Y863600I-12700J0D01*
G01*
G54D12*
X253341Y839949D02*
X257674Y844283D01*
X257674Y832727D01*
G54D12*
X261718Y832727D02*
X261718Y844283D01*
G54D12*
X264318Y837060D02*
X266918Y832727D01*
G54D12*
X261718Y835616D02*
X266918Y839227D01*
G54D11*
X403200Y979500D02*
X403200Y950900D01*
X384200Y950900D01*
X384200Y979500D01*
X403200Y979500D01*
G54D12*
X372350Y956733D02*
X372350Y949800D01*
X371628Y949800D01*
X370183Y950667D01*
X365850Y955867D01*
X364406Y956733D01*
X362961Y956733D01*
X361517Y955867D01*
X360794Y954133D01*
X360794Y952400D01*
X361517Y950667D01*
X362961Y949800D01*
G54D12*
X372350Y967710D02*
X372350Y960777D01*
X371628Y960777D01*
X370183Y961644D01*
X365850Y966844D01*
X364406Y967710D01*
X362961Y967710D01*
X361517Y966844D01*
X360794Y965110D01*
X360794Y963377D01*
X361517Y961644D01*
X362961Y960777D01*
G54D12*
X362961Y978687D02*
X370183Y978687D01*
X371628Y977821D01*
X372350Y976087D01*
X372350Y974354D01*
X371628Y972621D01*
X370183Y971754D01*
X362961Y971754D01*
X361517Y972621D01*
X360794Y974354D01*
X360794Y976087D01*
X361517Y977821D01*
X362961Y978687D01*
G54D12*
X366572Y986198D02*
X368017Y988798D01*
X369461Y989664D01*
X372350Y989664D01*
G54D12*
X372350Y982731D02*
X360794Y982731D01*
X360794Y987064D01*
X361517Y988798D01*
X362961Y989664D01*
X364406Y989664D01*
X365850Y988798D01*
X366572Y987064D01*
X366572Y982731D01*
G54D11*
X431800Y950200D02*
X406400Y950200D01*
X406400Y904000D01*
X431800Y904000D01*
X431800Y950200D01*
G54D11*
X427100Y928700D02*
X411100Y928700D01*
G54D11*
X427100Y925500D02*
X411100Y925500D01*
G54D11*
X419100Y928700D02*
X419100Y930300D01*
G54D11*
X419100Y925500D02*
X419100Y923900D01*
G54D12*
X416567Y965612D02*
X423789Y965612D01*
X425233Y964746D01*
X425956Y963012D01*
X425956Y961279D01*
X425233Y959546D01*
X423789Y958679D01*
X416567Y958679D01*
X415122Y959546D01*
X414400Y961279D01*
X414400Y963012D01*
X415122Y964746D01*
X416567Y965612D01*
G54D12*
X425956Y969656D02*
X425956Y969656D01*
G54D12*
X416567Y980633D02*
X423789Y980633D01*
X425233Y979767D01*
X425956Y978033D01*
X425956Y976300D01*
X425233Y974567D01*
X423789Y973700D01*
X416567Y973700D01*
X415122Y974567D01*
X414400Y976300D01*
X414400Y978033D01*
X415122Y979767D01*
X416567Y980633D01*
G54D12*
X418733Y984677D02*
X414400Y989010D01*
X425956Y989010D01*
G54D11*
X419100Y876300D02*
X419100Y873200D01*
G54D11*
G75*
G01X419100Y876300D02*
G03X419100Y876300I0J12700D01*
G01*
G54D12*
X426327Y818659D02*
X414771Y818659D01*
X421994Y813459D01*
X423438Y813459D01*
X423438Y820392D01*
G54D12*
X414771Y824436D02*
X414771Y831369D01*
X416216Y830503D01*
X418383Y828769D01*
X421271Y827036D01*
X423438Y826169D01*
X426327Y826169D01*
G54D12*
X416938Y842346D02*
X424160Y842346D01*
X425605Y841480D01*
X426327Y839746D01*
X426327Y838013D01*
X425605Y836280D01*
X424160Y835413D01*
X416938Y835413D01*
X415494Y836280D01*
X414771Y838013D01*
X414771Y839746D01*
X415494Y841480D01*
X416938Y842346D01*
G54D12*
X420549Y849857D02*
X421994Y852457D01*
X423438Y853323D01*
X426327Y853323D01*
G54D12*
X426327Y846390D02*
X414771Y846390D01*
X414771Y850723D01*
X415494Y852457D01*
X416938Y853323D01*
X418383Y853323D01*
X419827Y852457D01*
X420549Y850723D01*
X420549Y846390D01*
G54D11*
X444500Y927100D02*
X444500Y924000D01*
G54D11*
G75*
G01X444500Y927100D02*
G03X444500Y927100I0J12700D01*
G01*
G54D12*
X467011Y928823D02*
X462678Y933156D01*
X474233Y933156D01*
G54D12*
X474233Y937200D02*
X462678Y937200D01*
G54D12*
X469900Y939800D02*
X474233Y942400D01*
G54D12*
X471344Y937200D02*
X467733Y942400D01*
G54D11*
G75*
G01X508000Y923243D02*
G03X508000Y923243I0J-46950D01*
G01*
G54D11*
X478000Y840200D02*
X469900Y832100D01*
X463800Y838200D01*
X471900Y846300D01*
G54D12*
X467330Y878793D02*
X460397Y878793D01*
X460397Y879515D01*
X461264Y880960D01*
X466464Y885293D01*
X467330Y886737D01*
X467330Y888182D01*
X466464Y889626D01*
X464730Y890349D01*
X462997Y890349D01*
X461264Y889626D01*
X460397Y888182D01*
G54D12*
X471374Y878793D02*
X471374Y885293D01*
G54D12*
X471374Y883849D02*
X472241Y884860D01*
X473974Y885293D01*
X475707Y884860D01*
X476574Y883849D01*
X476574Y878793D01*
G54D12*
X487551Y878793D02*
X480618Y878793D01*
X480618Y879515D01*
X481485Y880960D01*
X486685Y885293D01*
X487551Y886737D01*
X487551Y888182D01*
X486685Y889626D01*
X484951Y890349D01*
X483218Y890349D01*
X481485Y889626D01*
X480618Y888182D01*
G54D12*
X498528Y878793D02*
X491595Y878793D01*
X491595Y879515D01*
X492462Y880960D01*
X497662Y885293D01*
X498528Y886737D01*
X498528Y888182D01*
X497662Y889626D01*
X495928Y890349D01*
X494195Y890349D01*
X492462Y889626D01*
X491595Y888182D01*
G54D12*
X502572Y886015D02*
X506905Y890349D01*
X506905Y878793D01*
G54D12*
X510949Y880960D02*
X511816Y879515D01*
X513549Y878793D01*
X515282Y878793D01*
X517016Y879515D01*
X517882Y880960D01*
X517882Y884571D01*
X517882Y885293D01*
X515282Y883849D01*
X513549Y883849D01*
X511816Y884571D01*
X510949Y886015D01*
X510949Y888182D01*
X511816Y889626D01*
X513549Y890349D01*
X515282Y890349D01*
X517016Y889626D01*
X517882Y888182D01*
X517882Y884571D01*
G54D11*
X444500Y863600D02*
X444500Y860500D01*
G54D11*
G75*
G01X444500Y863600D02*
G03X444500Y863600I0J12700D01*
G01*
G54D12*
X440171Y820392D02*
X440171Y813459D01*
X445227Y813459D01*
X445227Y814326D01*
X444505Y816059D01*
X444505Y817792D01*
X445227Y819526D01*
X446671Y820392D01*
X449560Y820392D01*
X451005Y819526D01*
X451727Y817792D01*
X451727Y816059D01*
X451005Y814326D01*
X449560Y813459D01*
G54D12*
X444505Y824436D02*
X440171Y828769D01*
X451727Y828769D01*
G54D12*
X445949Y836280D02*
X447394Y838880D01*
X448838Y839746D01*
X451727Y839746D01*
G54D12*
X451727Y832813D02*
X440171Y832813D01*
X440171Y837146D01*
X440894Y838880D01*
X442338Y839746D01*
X443783Y839746D01*
X445227Y838880D01*
X445949Y837146D01*
X445949Y832813D01*
G54D14*
X471127Y997365D02*
X471127Y1006254D01*
G54D14*
X468460Y1006254D02*
X473793Y1006254D01*
G54D14*
X476904Y1002921D02*
X480237Y1006254D01*
X480237Y997365D01*
G54D14*
X488681Y1004587D02*
X488681Y999032D01*
X488015Y997921D01*
X486681Y997365D01*
X485348Y997365D01*
X484015Y997921D01*
X483348Y999032D01*
X483348Y1004587D01*
X484015Y1005698D01*
X485348Y1006254D01*
X486681Y1006254D01*
X488015Y1005698D01*
X488681Y1004587D01*
G54D14*
X491792Y997365D02*
X491792Y997365D01*
G54D14*
X491792Y1002365D02*
X491792Y1002365D01*
G54D14*
X494903Y1002921D02*
X498236Y1006254D01*
X498236Y997365D01*
G54D14*
X506680Y1004587D02*
X506680Y999032D01*
X506014Y997921D01*
X504680Y997365D01*
X503347Y997365D01*
X502014Y997921D01*
X501347Y999032D01*
X501347Y1004587D01*
X502014Y1005698D01*
X503347Y1006254D01*
X504680Y1006254D01*
X506014Y1005698D01*
X506680Y1004587D01*
G54D14*
X513035Y997365D02*
X513035Y1006254D01*
X516368Y1006254D01*
X517702Y1005698D01*
X518368Y1004587D01*
X518368Y1003476D01*
X517702Y1002365D01*
X516368Y1001809D01*
X517702Y1001254D01*
X518368Y1000143D01*
X518368Y999032D01*
X517702Y997921D01*
X516368Y997365D01*
X513035Y997365D01*
G54D14*
X513035Y1001809D02*
X516368Y1001809D01*
G54D14*
X521479Y997365D02*
X521479Y1006254D01*
G54D14*
X524590Y997365D02*
X524590Y1006254D01*
X529257Y1006254D01*
G54D14*
X524590Y1001809D02*
X529257Y1001809D01*
G54D11*
X457200Y1001000D02*
X431800Y1001000D01*
X431800Y954800D01*
X457200Y954800D01*
X457200Y1001000D01*
G54D11*
X452500Y979500D02*
X436500Y979500D01*
G54D11*
X452500Y976300D02*
X436500Y976300D01*
G54D11*
X444500Y979500D02*
X444500Y981100D01*
G54D11*
X444500Y976300D02*
X444500Y974700D01*
G54D12*
X442361Y1021383D02*
X449583Y1021383D01*
X451028Y1020517D01*
X451750Y1018783D01*
X451750Y1017050D01*
X451028Y1015317D01*
X449583Y1014450D01*
X442361Y1014450D01*
X440917Y1015317D01*
X440194Y1017050D01*
X440194Y1018783D01*
X440917Y1020517D01*
X442361Y1021383D01*
G54D12*
X451750Y1025427D02*
X451750Y1025427D01*
G54D12*
X444528Y1029471D02*
X440194Y1033804D01*
X451750Y1033804D01*
G54D11*
X594600Y927100D02*
X594600Y952500D01*
X548400Y952500D01*
X548400Y927100D01*
X594600Y927100D01*
G54D11*
X573100Y931800D02*
X573100Y947800D01*
G54D11*
X569900Y931800D02*
X569900Y947800D01*
G54D11*
X573100Y939800D02*
X574700Y939800D01*
G54D11*
X569900Y939800D02*
X568300Y939800D01*
G54D12*
X614983Y941939D02*
X614983Y934717D01*
X614117Y933272D01*
X612383Y932550D01*
X610650Y932550D01*
X608917Y933272D01*
X608050Y934717D01*
X608050Y941939D01*
X608917Y943383D01*
X610650Y944106D01*
X612383Y944106D01*
X614117Y943383D01*
X614983Y941939D01*
G54D12*
X619027Y932550D02*
X619027Y932550D01*
G54D12*
X623071Y939772D02*
X627404Y944106D01*
X627404Y932550D01*
G54D11*
X612100Y893000D02*
X612100Y910400D01*
X581700Y910400D01*
X581700Y893000D01*
X612100Y893000D01*
G36*
X612000Y893100D02*
X612000Y909800D01*
X604800Y909800D01*
X604800Y893100D01*
X612000Y893100D01*
G37*
G54D13*
X612000Y893100D02*
X612000Y909800D01*
X604800Y909800D01*
X604800Y893100D01*
X612000Y893100D01*
G54D12*
X561946Y919516D02*
X566279Y923850D01*
X566279Y912294D01*
G54D12*
X570322Y912294D02*
X570322Y923850D01*
X577256Y912294D01*
X577256Y923850D01*
G54D12*
X586500Y912294D02*
X586500Y923850D01*
X581300Y916627D01*
X581300Y915183D01*
X588233Y915183D01*
G54D12*
X592276Y919516D02*
X596610Y923850D01*
X596610Y912294D01*
G54D12*
X605854Y912294D02*
X605854Y923850D01*
X600654Y916627D01*
X600654Y915183D01*
X607587Y915183D01*
G54D12*
X615964Y918072D02*
X614230Y918072D01*
X612497Y918794D01*
X611630Y920238D01*
X611630Y921683D01*
X612497Y923127D01*
X614230Y923850D01*
X615964Y923850D01*
X617697Y923127D01*
X618564Y921683D01*
X618564Y920238D01*
X617697Y918794D01*
X615964Y918072D01*
X617697Y917350D01*
X618564Y915905D01*
X618564Y914461D01*
X617697Y913016D01*
X615964Y912294D01*
X614230Y912294D01*
X612497Y913016D01*
X611630Y914461D01*
X611630Y915905D01*
X612497Y917350D01*
X614230Y918072D01*
G54D11*
X609600Y886700D02*
X584200Y886700D01*
X584200Y840500D01*
X609600Y840500D01*
X609600Y886700D01*
G54D11*
X604900Y865200D02*
X588900Y865200D01*
G54D11*
X604900Y862000D02*
X588900Y862000D01*
G54D11*
X596900Y865200D02*
X596900Y866800D01*
G54D11*
X596900Y862000D02*
X596900Y860400D01*
G54D12*
X585683Y826239D02*
X585683Y819017D01*
X584817Y817572D01*
X583083Y816850D01*
X581350Y816850D01*
X579617Y817572D01*
X578750Y819017D01*
X578750Y826239D01*
X579617Y827683D01*
X581350Y828406D01*
X583083Y828406D01*
X584817Y827683D01*
X585683Y826239D01*
G54D12*
X589727Y816850D02*
X589727Y816850D01*
G54D12*
X593771Y824072D02*
X598104Y828406D01*
X598104Y816850D01*
G54D11*
X622300Y863600D02*
X622300Y860500D01*
G54D11*
G75*
G01X622300Y863600D02*
G03X622300Y863600I0J12700D01*
G01*
G54D12*
X622305Y800759D02*
X617971Y805092D01*
X629527Y805092D01*
G54D12*
X623749Y813469D02*
X623749Y811736D01*
X623027Y810003D01*
X621583Y809136D01*
X620138Y809136D01*
X618694Y810003D01*
X617971Y811736D01*
X617971Y813469D01*
X618694Y815203D01*
X620138Y816069D01*
X621583Y816069D01*
X623027Y815203D01*
X623749Y813469D01*
X624471Y815203D01*
X625916Y816069D01*
X627360Y816069D01*
X628805Y815203D01*
X629527Y813469D01*
X629527Y811736D01*
X628805Y810003D01*
X627360Y809136D01*
X625916Y809136D01*
X624471Y810003D01*
X623749Y811736D01*
G54D12*
X620138Y827046D02*
X627360Y827046D01*
X628805Y826180D01*
X629527Y824446D01*
X629527Y822713D01*
X628805Y820980D01*
X627360Y820113D01*
X620138Y820113D01*
X618694Y820980D01*
X617971Y822713D01*
X617971Y824446D01*
X618694Y826180D01*
X620138Y827046D01*
G54D12*
X623749Y834557D02*
X625194Y837157D01*
X626638Y838023D01*
X629527Y838023D01*
G54D12*
X629527Y831090D02*
X617971Y831090D01*
X617971Y835423D01*
X618694Y837157D01*
X620138Y838023D01*
X621583Y838023D01*
X623027Y837157D01*
X623749Y835423D01*
X623749Y831090D01*
G54D11*
X658400Y839400D02*
X687800Y839400D01*
G54D11*
G75*
G01X658172Y897812D02*
G03X641011Y864846I14528J-28512D01*
G01*
G54D11*
G75*
G01X704462Y865400D02*
G03X688214Y897288I-31762J3900D01*
G01*
G54D11*
G75*
G01X685700Y869300D02*
G03X685700Y869300I-12000J0D01*
G01*
G54D14*
X661923Y873189D02*
X665256Y876522D01*
X665256Y867633D01*
G54D14*
X673700Y874856D02*
X673700Y869300D01*
X673033Y868189D01*
X671700Y867633D01*
X670367Y867633D01*
X669033Y868189D01*
X668367Y869300D01*
X668367Y874856D01*
X669033Y875967D01*
X670367Y876522D01*
X671700Y876522D01*
X673033Y875967D01*
X673700Y874856D01*
G54D14*
X676811Y867633D02*
X676811Y876522D01*
G54D14*
X678811Y870967D02*
X680811Y867633D01*
G54D14*
X676811Y869856D02*
X680811Y872633D01*
G54D11*
X649700Y973000D02*
X649700Y976200D01*
X669700Y976200D01*
X669700Y973000D01*
X649700Y973000D01*
G54D11*
X649700Y969800D02*
X669700Y969800D01*
G54D11*
G75*
G01X660400Y1012500D02*
G03X660400Y1012500I0J-40000D01*
G01*
G54D11*
X660400Y969500D02*
X660400Y962500D01*
G54D11*
X660400Y976500D02*
X660400Y982500D01*
G54D15*
X682600Y998500D02*
X682600Y987800D01*
G54D15*
X678200Y993200D02*
X687100Y993200D01*
G54D14*
X649050Y1018250D02*
X649050Y1027139D01*
X645050Y1021583D01*
X645050Y1020472D01*
X650383Y1020472D01*
G54D14*
X653494Y1027139D02*
X658827Y1027139D01*
X658161Y1026028D01*
X656827Y1024361D01*
X655494Y1022139D01*
X654827Y1020472D01*
X654827Y1018250D01*
G54D14*
X667271Y1025472D02*
X667271Y1019917D01*
X666605Y1018806D01*
X665271Y1018250D01*
X663938Y1018250D01*
X662605Y1018806D01*
X661938Y1019917D01*
X661938Y1025472D01*
X662605Y1026583D01*
X663938Y1027139D01*
X665271Y1027139D01*
X666605Y1026583D01*
X667271Y1025472D01*
G54D14*
X674382Y1023250D02*
X674382Y1018250D01*
G54D14*
X674382Y1019361D02*
X673715Y1018472D01*
X672382Y1018250D01*
X671049Y1018472D01*
X670382Y1019361D01*
X670382Y1023250D01*
G54D14*
X677493Y1018250D02*
X677493Y1027139D01*
X682160Y1027139D01*
G54D14*
X677493Y1022694D02*
X682160Y1022694D01*
G54D11*
X553478Y978299D02*
X550378Y978299D01*
G54D11*
G75*
G01X553478Y978299D02*
G03X553478Y978299I12700J0D01*
G01*
G54D12*
X541438Y1003694D02*
X545771Y1008028D01*
X545771Y996472D01*
G54D12*
X556748Y996472D02*
X549814Y996472D01*
X549814Y997194D01*
X550681Y998639D01*
X555881Y1002972D01*
X556748Y1004417D01*
X556748Y1005861D01*
X555881Y1007305D01*
X554148Y1008028D01*
X552414Y1008028D01*
X550681Y1007305D01*
X549814Y1005861D01*
G54D12*
X567725Y1005861D02*
X567725Y998639D01*
X566858Y997194D01*
X565125Y996472D01*
X563392Y996472D01*
X561658Y997194D01*
X560792Y998639D01*
X560792Y1005861D01*
X561658Y1007305D01*
X563392Y1008028D01*
X565125Y1008028D01*
X566858Y1007305D01*
X567725Y1005861D01*
G54D12*
X575235Y1002250D02*
X577835Y1000805D01*
X578702Y999361D01*
X578702Y996472D01*
G54D12*
X571768Y996472D02*
X571768Y1008028D01*
X576102Y1008028D01*
X577835Y1007305D01*
X578702Y1005861D01*
X578702Y1004417D01*
X577835Y1002972D01*
X576102Y1002250D01*
X571768Y1002250D01*
G54D11*
X584200Y1003300D02*
X609600Y1003300D01*
X609600Y952500D01*
X584200Y952500D01*
X584200Y1003300D01*
G54D11*
X723900Y1001000D02*
X698500Y1001000D01*
X698500Y954800D01*
X723900Y954800D01*
X723900Y1001000D01*
G54D11*
X719200Y979500D02*
X703200Y979500D01*
G54D11*
X719200Y976300D02*
X703200Y976300D01*
G54D11*
X711200Y979500D02*
X711200Y981100D01*
G54D11*
X711200Y976300D02*
X711200Y974700D01*
G54D12*
X709061Y1021383D02*
X716283Y1021383D01*
X717728Y1020517D01*
X718450Y1018783D01*
X718450Y1017050D01*
X717728Y1015317D01*
X716283Y1014450D01*
X709061Y1014450D01*
X707617Y1015317D01*
X706894Y1017050D01*
X706894Y1018783D01*
X707617Y1020517D01*
X709061Y1021383D01*
G54D12*
X718450Y1025427D02*
X718450Y1025427D01*
G54D12*
X711228Y1029471D02*
X706894Y1033804D01*
X718450Y1033804D01*
G54D11*
G75*
G01X800100Y948643D02*
G03X800100Y948643I0J-46950D01*
G01*
G54D11*
X770100Y865600D02*
X762000Y857500D01*
X755900Y863600D01*
X764000Y871700D01*
G54D12*
X759430Y904193D02*
X752497Y904193D01*
X752497Y904915D01*
X753364Y906360D01*
X758564Y910693D01*
X759430Y912137D01*
X759430Y913582D01*
X758564Y915026D01*
X756830Y915749D01*
X755097Y915749D01*
X753364Y915026D01*
X752497Y913582D01*
G54D12*
X763474Y904193D02*
X763474Y910693D01*
G54D12*
X763474Y909249D02*
X764341Y910260D01*
X766074Y910693D01*
X767807Y910260D01*
X768674Y909249D01*
X768674Y904193D01*
G54D12*
X772718Y913582D02*
X773585Y915026D01*
X775318Y915749D01*
X777051Y915749D01*
X778785Y915026D01*
X779651Y913582D01*
X779651Y912137D01*
X778785Y910693D01*
X777051Y909971D01*
X778785Y909249D01*
X779651Y907804D01*
X779651Y906360D01*
X778785Y904915D01*
X777051Y904193D01*
X775318Y904193D01*
X773585Y904915D01*
X772718Y906360D01*
G54D12*
X790628Y915749D02*
X783695Y915749D01*
X783695Y910693D01*
X784562Y910693D01*
X786295Y911415D01*
X788028Y911415D01*
X789762Y910693D01*
X790628Y909249D01*
X790628Y906360D01*
X789762Y904915D01*
X788028Y904193D01*
X786295Y904193D01*
X784562Y904915D01*
X783695Y906360D01*
G54D12*
X801605Y915749D02*
X794672Y915749D01*
X794672Y910693D01*
X795539Y910693D01*
X797272Y911415D01*
X799005Y911415D01*
X800739Y910693D01*
X801605Y909249D01*
X801605Y906360D01*
X800739Y904915D01*
X799005Y904193D01*
X797272Y904193D01*
X795539Y904915D01*
X794672Y906360D01*
G54D12*
X805649Y913582D02*
X806516Y915026D01*
X808249Y915749D01*
X809982Y915749D01*
X811716Y915026D01*
X812582Y913582D01*
X812582Y912137D01*
X811716Y910693D01*
X809982Y909971D01*
X811716Y909249D01*
X812582Y907804D01*
X812582Y906360D01*
X811716Y904915D01*
X809982Y904193D01*
X808249Y904193D01*
X806516Y904915D01*
X805649Y906360D01*
G54D11*
X733400Y890600D02*
X733400Y862000D01*
X714400Y862000D01*
X714400Y890600D01*
X733400Y890600D01*
G54D11*
X736600Y1003300D02*
X762000Y1003300D01*
X762000Y952500D01*
X736600Y952500D01*
X736600Y1003300D01*
G54D12*
X747317Y1015428D02*
X749917Y1013983D01*
X750783Y1012539D01*
X750783Y1009650D01*
G54D12*
X743850Y1009650D02*
X743850Y1021206D01*
X748183Y1021206D01*
X749917Y1020483D01*
X750783Y1019039D01*
X750783Y1017594D01*
X749917Y1016150D01*
X748183Y1015428D01*
X743850Y1015428D01*
G54D12*
X754827Y1009650D02*
X754827Y1021206D01*
X760894Y1021206D01*
G54D12*
X754827Y1015428D02*
X760894Y1015428D01*
G54D12*
X771871Y1011817D02*
X771005Y1010372D01*
X769271Y1009650D01*
X767538Y1009650D01*
X765805Y1010372D01*
X764938Y1011817D01*
X764938Y1019039D01*
X765805Y1020483D01*
X767538Y1021206D01*
X769271Y1021206D01*
X771005Y1020483D01*
X771871Y1019039D01*
G54D12*
X780132Y1016872D02*
X784465Y1021206D01*
X784465Y1009650D01*
G54D12*
X795442Y1019039D02*
X795442Y1011817D01*
X794576Y1010372D01*
X792842Y1009650D01*
X791109Y1009650D01*
X789376Y1010372D01*
X788509Y1011817D01*
X788509Y1019039D01*
X789376Y1020483D01*
X791109Y1021206D01*
X792842Y1021206D01*
X794576Y1020483D01*
X795442Y1019039D01*
G54D12*
X802953Y1009650D02*
X802953Y1021206D01*
G54D12*
X799486Y1021206D02*
X806419Y1021206D01*
G54D11*
X914400Y904000D02*
X939800Y904000D01*
X939800Y950200D01*
X914400Y950200D01*
X914400Y904000D01*
G54D11*
X919100Y925500D02*
X935100Y925500D01*
G54D11*
X919100Y928700D02*
X935100Y928700D01*
G54D11*
X927100Y925500D02*
X927100Y923900D01*
G54D11*
X927100Y928700D02*
X927100Y930300D01*
G54D12*
X897761Y910183D02*
X904983Y910183D01*
X906428Y909317D01*
X907150Y907583D01*
X907150Y905850D01*
X906428Y904117D01*
X904983Y903250D01*
X897761Y903250D01*
X896317Y904117D01*
X895594Y905850D01*
X895594Y907583D01*
X896317Y909317D01*
X897761Y910183D01*
G54D12*
X907150Y914227D02*
X907150Y914227D01*
G54D12*
X899928Y918271D02*
X895594Y922604D01*
X907150Y922604D01*
G54D11*
X876300Y863600D02*
X876300Y860500D01*
G54D11*
G75*
G01X876300Y863600D02*
G03X876300Y863600I0J12700D01*
G01*
G54D12*
X876300Y863600D02*
X876300Y863600D01*
G54D11*
X92100Y609600D02*
X68200Y609600D01*
X68200Y600100D01*
X58800Y600100D01*
X58800Y609600D01*
X34900Y609600D01*
X34900Y508000D01*
X92100Y508000D01*
X92100Y609600D01*
G36*
X34900Y609700D02*
X47600Y609700D01*
X34900Y596900D01*
X34900Y609700D01*
G37*
G54D16*
X34900Y609700D02*
X47600Y609700D01*
X34900Y596900D01*
X34900Y609700D01*
G54D12*
X39725Y552450D02*
X39725Y564006D01*
X46658Y552450D01*
X46658Y564006D01*
G54D12*
X56769Y552450D02*
X50702Y552450D01*
X50702Y564006D01*
X56769Y564006D01*
G54D12*
X50702Y558228D02*
X56769Y558228D01*
G54D12*
X67746Y561839D02*
X66880Y563283D01*
X65146Y564006D01*
X63413Y564006D01*
X61680Y563283D01*
X60813Y561839D01*
X60813Y558228D01*
X60813Y557506D01*
X63413Y558950D01*
X65146Y558950D01*
X66880Y558228D01*
X67746Y556783D01*
X67746Y554617D01*
X66880Y553172D01*
X65146Y552450D01*
X63413Y552450D01*
X61680Y553172D01*
X60813Y554617D01*
X60813Y558228D01*
G54D12*
X71790Y559672D02*
X76123Y564006D01*
X76123Y552450D01*
G54D12*
X87100Y552450D02*
X80167Y552450D01*
X80167Y553172D01*
X81034Y554617D01*
X86234Y558950D01*
X87100Y560394D01*
X87100Y561839D01*
X86234Y563283D01*
X84500Y564006D01*
X82767Y564006D01*
X81034Y563283D01*
X80167Y561839D01*
G54D11*
X714400Y622300D02*
X690500Y622300D01*
X690500Y612800D01*
X681100Y612800D01*
X681100Y622300D01*
X657200Y622300D01*
X657200Y520700D01*
X714400Y520700D01*
X714400Y622300D01*
G36*
X657200Y622400D02*
X669900Y622400D01*
X657200Y609600D01*
X657200Y622400D01*
G37*
G54D16*
X657200Y622400D02*
X669900Y622400D01*
X657200Y609600D01*
X657200Y622400D01*
G54D12*
X662025Y565150D02*
X662025Y576706D01*
X668958Y565150D01*
X668958Y576706D01*
G54D12*
X679069Y565150D02*
X673002Y565150D01*
X673002Y576706D01*
X679069Y576706D01*
G54D12*
X673002Y570928D02*
X679069Y570928D01*
G54D12*
X690046Y574539D02*
X689180Y575983D01*
X687446Y576706D01*
X685713Y576706D01*
X683980Y575983D01*
X683113Y574539D01*
X683113Y570928D01*
X683113Y570206D01*
X685713Y571650D01*
X687446Y571650D01*
X689180Y570928D01*
X690046Y569483D01*
X690046Y567317D01*
X689180Y565872D01*
X687446Y565150D01*
X685713Y565150D01*
X683980Y565872D01*
X683113Y567317D01*
X683113Y570928D01*
G54D12*
X694090Y572372D02*
X698423Y576706D01*
X698423Y565150D01*
G54D12*
X709400Y565150D02*
X702467Y565150D01*
X702467Y565872D01*
X703334Y567317D01*
X708534Y571650D01*
X709400Y573094D01*
X709400Y574539D01*
X708534Y575983D01*
X706800Y576706D01*
X705067Y576706D01*
X703334Y575983D01*
X702467Y574539D01*
G54D11*
X313450Y589050D02*
X313450Y528750D01*
G54D11*
X269050Y588950D02*
X269050Y528650D01*
G54D11*
G75*
G01X313450Y588850D02*
G03X269050Y588850I-22200J0D01*
G01*
G54D11*
G75*
G01X269050Y528750D02*
G03X313450Y528750I22200J0D01*
G01*
G54D12*
X283744Y548300D02*
X295300Y556967D01*
G54D12*
X295300Y548300D02*
X283744Y556967D01*
G54D12*
X288078Y561011D02*
X283744Y565344D01*
X295300Y565344D01*
G54D17*
X582685Y686635D02*
X582585Y787235D01*
X382685Y787135D01*
X382685Y686635D01*
X582685Y686635D01*
G54D18*
X394085Y698735D02*
X419485Y698735D01*
X419485Y705035D01*
X419485Y704935D01*
X436985Y711335D01*
X436985Y711435D01*
X406785Y719335D01*
X438585Y727335D01*
X406785Y735235D01*
X438585Y744835D01*
X406785Y754235D01*
X438585Y762235D01*
X419485Y768635D01*
X419485Y774935D01*
X394085Y774935D01*
G54D18*
X571885Y698735D02*
X571885Y724035D01*
X552885Y724035D01*
G54D18*
X521085Y698735D02*
X521085Y724035D01*
X540085Y724035D01*
G54D18*
X571885Y774935D02*
X571885Y749535D01*
X552885Y749535D01*
G54D18*
X521085Y774935D02*
X521085Y749535D01*
X540085Y749535D01*
G36*
X552885Y724135D02*
X552785Y724135D01*
X565485Y717735D01*
X565485Y730435D01*
X552885Y724035D01*
X552885Y724135D01*
G37*
G54D17*
X552885Y724135D02*
X552785Y724135D01*
X565485Y717735D01*
X565485Y730435D01*
X552885Y724035D01*
X552885Y724135D01*
G36*
X552985Y749535D02*
X552885Y749535D01*
X565585Y743135D01*
X565585Y755835D01*
X552985Y749435D01*
X552985Y749535D01*
G37*
G54D17*
X552985Y749535D02*
X552885Y749535D01*
X565585Y743135D01*
X565585Y755835D01*
X552985Y749435D01*
X552985Y749535D01*
G36*
X539885Y724235D02*
X539985Y724235D01*
X527285Y730635D01*
X527285Y717935D01*
X539885Y724335D01*
X539885Y724235D01*
G37*
G54D17*
X539885Y724235D02*
X539985Y724235D01*
X527285Y730635D01*
X527285Y717935D01*
X539885Y724335D01*
X539885Y724235D01*
G36*
X539985Y749535D02*
X540085Y749535D01*
X527385Y755935D01*
X527385Y743235D01*
X539985Y749635D01*
X539985Y749535D01*
G37*
G54D17*
X539985Y749535D02*
X540085Y749535D01*
X527385Y755935D01*
X527385Y743235D01*
X539985Y749635D01*
X539985Y749535D01*
G54D18*
X540085Y724135D02*
X540185Y724135D01*
X546585Y705135D01*
X546485Y705135D01*
X546485Y690835D01*
X482985Y690835D01*
X470285Y690835D01*
X470285Y698735D01*
G54D18*
X540085Y749535D02*
X540085Y749535D01*
X546485Y768535D01*
X546485Y782835D01*
X470285Y782835D01*
X470285Y774935D01*
G54D11*
X914400Y863600D02*
X939800Y863600D01*
X939800Y812800D01*
X914400Y812800D01*
X914400Y863600D01*
G54D12*
X934350Y724650D02*
X922794Y728983D01*
X934350Y733317D01*
G54D12*
X930017Y726383D02*
X930017Y731583D01*
G54D12*
X934350Y737361D02*
X922794Y737361D01*
X934350Y744294D01*
X922794Y744294D01*
G54D12*
X934350Y751805D02*
X922794Y751805D01*
G54D12*
X922794Y748338D02*
X922794Y755271D01*
G54D12*
X934350Y765382D02*
X934350Y759315D01*
X922794Y759315D01*
X922794Y765382D01*
G54D12*
X928572Y759315D02*
X928572Y765382D01*
G54D12*
X934350Y769426D02*
X922794Y769426D01*
X934350Y776359D01*
X922794Y776359D01*
G54D12*
X934350Y780403D02*
X922794Y780403D01*
X934350Y787336D01*
X922794Y787336D01*
G54D12*
X934350Y791380D02*
X922794Y795713D01*
X934350Y800047D01*
G54D12*
X930017Y793113D02*
X930017Y798313D01*
G54D11*
X876300Y726200D02*
X901700Y726200D01*
X901700Y772400D01*
X876300Y772400D01*
X876300Y726200D01*
G54D11*
X881000Y747700D02*
X897000Y747700D01*
G54D11*
X881000Y750900D02*
X897000Y750900D01*
G54D11*
X889000Y747700D02*
X889000Y746100D01*
G54D11*
X889000Y750900D02*
X889000Y752500D01*
G54D12*
X861828Y725450D02*
X857494Y729783D01*
X869050Y729783D01*
G54D12*
X857494Y740760D02*
X857494Y733827D01*
X862550Y733827D01*
X862550Y734694D01*
X861828Y736427D01*
X861828Y738160D01*
X862550Y739894D01*
X863994Y740760D01*
X866883Y740760D01*
X868328Y739894D01*
X869050Y738160D01*
X869050Y736427D01*
X868328Y734694D01*
X866883Y733827D01*
G54D12*
X859661Y751737D02*
X866883Y751737D01*
X868328Y750871D01*
X869050Y749137D01*
X869050Y747404D01*
X868328Y745671D01*
X866883Y744804D01*
X859661Y744804D01*
X858217Y745671D01*
X857494Y747404D01*
X857494Y749137D01*
X858217Y750871D01*
X859661Y751737D01*
G54D12*
X862550Y755781D02*
X871939Y755781D01*
G54D12*
X866883Y755781D02*
X868761Y756648D01*
X869050Y758381D01*
X868761Y760114D01*
X867317Y760981D01*
X864428Y760981D01*
X862983Y760114D01*
X862550Y758381D01*
X862983Y756648D01*
X864717Y755781D01*
G54D11*
X839800Y752500D02*
X811200Y752500D01*
X811200Y771500D01*
X839800Y771500D01*
X839800Y752500D01*
G54D12*
X811056Y737322D02*
X815390Y741656D01*
X815390Y730100D01*
G54D12*
X826367Y739489D02*
X826367Y732267D01*
X825500Y730822D01*
X823767Y730100D01*
X822033Y730100D01*
X820300Y730822D01*
X819433Y732267D01*
X819433Y739489D01*
X820300Y740933D01*
X822033Y741656D01*
X823767Y741656D01*
X825500Y740933D01*
X826367Y739489D01*
G54D12*
X833877Y730100D02*
X833877Y741656D01*
G54D12*
X830410Y741656D02*
X837344Y741656D01*
G54D11*
X749300Y726200D02*
X774700Y726200D01*
X774700Y772400D01*
X749300Y772400D01*
X749300Y726200D01*
G54D11*
X754000Y747700D02*
X770000Y747700D01*
G54D11*
X754000Y750900D02*
X770000Y750900D01*
G54D11*
X762000Y747700D02*
X762000Y746100D01*
G54D11*
X762000Y750900D02*
X762000Y752500D01*
G54D12*
X742050Y730650D02*
X730494Y730650D01*
X737717Y725450D01*
X739161Y725450D01*
X739161Y732383D01*
G54D12*
X730494Y736427D02*
X730494Y743360D01*
X731939Y742494D01*
X734106Y740760D01*
X736994Y739027D01*
X739161Y738160D01*
X742050Y738160D01*
G54D12*
X732661Y754337D02*
X739883Y754337D01*
X741328Y753471D01*
X742050Y751737D01*
X742050Y750004D01*
X741328Y748271D01*
X739883Y747404D01*
X732661Y747404D01*
X731217Y748271D01*
X730494Y750004D01*
X730494Y751737D01*
X731217Y753471D01*
X732661Y754337D01*
G54D12*
X735550Y758381D02*
X744939Y758381D01*
G54D12*
X739883Y758381D02*
X741761Y759248D01*
X742050Y760981D01*
X741761Y762714D01*
X740317Y763581D01*
X737428Y763581D01*
X735983Y762714D01*
X735550Y760981D01*
X735983Y759248D01*
X737717Y758381D01*
G54D11*
X712800Y752500D02*
X684200Y752500D01*
X684200Y771500D01*
X712800Y771500D01*
X712800Y752500D01*
G54D12*
X683100Y739772D02*
X687433Y744106D01*
X687433Y732550D01*
G54D12*
X698410Y732550D02*
X691477Y732550D01*
X691477Y733272D01*
X692344Y734717D01*
X697544Y739050D01*
X698410Y740494D01*
X698410Y741939D01*
X697544Y743383D01*
X695810Y744106D01*
X694077Y744106D01*
X692344Y743383D01*
X691477Y741939D01*
G54D12*
X705921Y732550D02*
X705921Y744106D01*
G54D12*
X702454Y744106D02*
X709387Y744106D01*
G54D11*
X622300Y726200D02*
X647700Y726200D01*
X647700Y772400D01*
X622300Y772400D01*
X622300Y726200D01*
G54D11*
X627000Y747700D02*
X643000Y747700D01*
G54D11*
X627000Y750900D02*
X643000Y750900D01*
G54D11*
X635000Y747700D02*
X635000Y746100D01*
G54D11*
X635000Y750900D02*
X635000Y752500D01*
G54D12*
X615050Y745083D02*
X615050Y738150D01*
X614328Y738150D01*
X612883Y739017D01*
X608550Y744217D01*
X607106Y745083D01*
X605661Y745083D01*
X604217Y744217D01*
X603494Y742483D01*
X603494Y740750D01*
X604217Y739017D01*
X605661Y738150D01*
G54D12*
X615050Y756060D02*
X615050Y749127D01*
X614328Y749127D01*
X612883Y749994D01*
X608550Y755194D01*
X607106Y756060D01*
X605661Y756060D01*
X604217Y755194D01*
X603494Y753460D01*
X603494Y751727D01*
X604217Y749994D01*
X605661Y749127D01*
G54D12*
X605661Y767037D02*
X612883Y767037D01*
X614328Y766171D01*
X615050Y764437D01*
X615050Y762704D01*
X614328Y760971D01*
X612883Y760104D01*
X605661Y760104D01*
X604217Y760971D01*
X603494Y762704D01*
X603494Y764437D01*
X604217Y766171D01*
X605661Y767037D01*
G54D12*
X608550Y771081D02*
X617939Y771081D01*
G54D12*
X612883Y771081D02*
X614761Y771948D01*
X615050Y773681D01*
X614761Y775414D01*
X613317Y776281D01*
X610428Y776281D01*
X608983Y775414D01*
X608550Y773681D01*
X608983Y771948D01*
X610717Y771081D01*
G54D11*
X-38100Y787400D02*
X-12700Y787400D01*
X-12700Y736600D01*
X-38100Y736600D01*
X-38100Y787400D01*
G54D12*
X-43550Y798806D02*
X-36617Y798806D01*
G54D12*
X-40083Y801694D02*
X-40083Y795917D01*
G54D12*
X-25640Y805306D02*
X-32573Y805306D01*
X-32573Y800250D01*
X-31706Y800250D01*
X-29973Y800972D01*
X-28240Y800972D01*
X-26506Y800250D01*
X-25640Y798806D01*
X-25640Y795917D01*
X-26506Y794472D01*
X-28240Y793750D01*
X-29973Y793750D01*
X-31706Y794472D01*
X-32573Y795917D01*
G54D12*
X-21596Y800250D02*
X-18129Y793750D01*
X-14663Y800250D01*
G54D12*
X-2935Y793750D02*
X-2935Y805306D01*
G54D12*
X-6402Y805306D02*
X531Y805306D01*
G54D12*
X4575Y805306D02*
X13242Y793750D01*
G54D12*
X4575Y793750D02*
X13242Y805306D01*
G54D12*
X21503Y793750D02*
X21503Y800250D01*
G54D12*
X21503Y802417D02*
X21503Y802417D01*
G54D12*
X25547Y793750D02*
X25547Y800250D01*
G54D12*
X25547Y798806D02*
X26414Y799817D01*
X28147Y800250D01*
X29880Y799817D01*
X30747Y798806D01*
X30747Y793750D01*
G54D11*
X53300Y766000D02*
X53300Y783400D01*
X22900Y783400D01*
X22900Y766000D01*
X53300Y766000D01*
G36*
X53200Y766100D02*
X53200Y782800D01*
X46000Y782800D01*
X46000Y766100D01*
X53200Y766100D01*
G37*
G54D13*
X53200Y766100D02*
X53200Y782800D01*
X46000Y782800D01*
X46000Y766100D01*
X53200Y766100D01*
G54D12*
X15845Y754416D02*
X20179Y758750D01*
X20179Y747194D01*
G54D12*
X24222Y747194D02*
X24222Y758750D01*
X31156Y747194D01*
X31156Y758750D01*
G54D12*
X40399Y747194D02*
X40399Y758750D01*
X35199Y751527D01*
X35199Y750083D01*
X42133Y750083D01*
G54D12*
X46176Y754416D02*
X50510Y758750D01*
X50510Y747194D01*
G54D12*
X59753Y747194D02*
X59753Y758750D01*
X54553Y751527D01*
X54553Y750083D01*
X61487Y750083D01*
G54D12*
X69864Y752972D02*
X68130Y752972D01*
X66397Y753694D01*
X65530Y755138D01*
X65530Y756583D01*
X66397Y758027D01*
X68130Y758750D01*
X69864Y758750D01*
X71597Y758027D01*
X72464Y756583D01*
X72464Y755138D01*
X71597Y753694D01*
X69864Y752972D01*
X71597Y752250D01*
X72464Y750805D01*
X72464Y749361D01*
X71597Y747916D01*
X69864Y747194D01*
X68130Y747194D01*
X66397Y747916D01*
X65530Y749361D01*
X65530Y750805D01*
X66397Y752250D01*
X68130Y752972D01*
G54D11*
X101600Y774700D02*
X104700Y774700D01*
G54D11*
G75*
G01X101600Y774700D02*
G03X101600Y774700I-12700J0D01*
G01*
G54D12*
X95174Y743827D02*
X88241Y743827D01*
X88241Y744549D01*
X89108Y745994D01*
X94308Y750327D01*
X95174Y751771D01*
X95174Y753216D01*
X94308Y754660D01*
X92574Y755383D01*
X90841Y755383D01*
X89108Y754660D01*
X88241Y753216D01*
G54D12*
X99218Y743827D02*
X99218Y743827D01*
G54D12*
X110195Y743827D02*
X103262Y743827D01*
X103262Y744549D01*
X104129Y745994D01*
X109329Y750327D01*
X110195Y751771D01*
X110195Y753216D01*
X109329Y754660D01*
X107595Y755383D01*
X105862Y755383D01*
X104129Y754660D01*
X103262Y753216D01*
G54D12*
X114239Y743827D02*
X114239Y755383D01*
G54D12*
X116839Y748160D02*
X119439Y743827D01*
G54D12*
X114239Y746716D02*
X119439Y750327D01*
G54D11*
X158466Y748971D02*
X173666Y753871D01*
X173666Y797471D01*
X158466Y802371D01*
G54D11*
G75*
G01X158366Y802321D02*
G03X158366Y749021I0J-26650D01*
G01*
G54D12*
X131399Y806157D02*
X124466Y806157D01*
X124466Y806879D01*
X125332Y808324D01*
X130532Y812657D01*
X131399Y814101D01*
X131399Y815546D01*
X130532Y816990D01*
X128799Y817713D01*
X127066Y817713D01*
X125332Y816990D01*
X124466Y815546D01*
G54D12*
X135443Y806157D02*
X135443Y812657D01*
G54D12*
X135443Y811213D02*
X136309Y812224D01*
X138043Y812657D01*
X139776Y812224D01*
X140643Y811213D01*
X140643Y806157D01*
G54D12*
X144687Y815546D02*
X145553Y816990D01*
X147287Y817713D01*
X149020Y817713D01*
X150753Y816990D01*
X151620Y815546D01*
X151620Y814101D01*
X150753Y812657D01*
X149020Y811935D01*
X150753Y811213D01*
X151620Y809768D01*
X151620Y808324D01*
X150753Y806879D01*
X149020Y806157D01*
X147287Y806157D01*
X145553Y806879D01*
X144687Y808324D01*
G54D12*
X155664Y808324D02*
X156530Y806879D01*
X158264Y806157D01*
X159997Y806157D01*
X161730Y806879D01*
X162597Y808324D01*
X162597Y811935D01*
X162597Y812657D01*
X159997Y811213D01*
X158264Y811213D01*
X156530Y811935D01*
X155664Y813379D01*
X155664Y815546D01*
X156530Y816990D01*
X158264Y817713D01*
X159997Y817713D01*
X161730Y816990D01*
X162597Y815546D01*
X162597Y811935D01*
G54D12*
X173574Y815546D02*
X173574Y808324D01*
X172707Y806879D01*
X170974Y806157D01*
X169241Y806157D01*
X167507Y806879D01*
X166641Y808324D01*
X166641Y815546D01*
X167507Y816990D01*
X169241Y817713D01*
X170974Y817713D01*
X172707Y816990D01*
X173574Y815546D01*
G54D12*
X182818Y806157D02*
X182818Y817713D01*
X177618Y810490D01*
X177618Y809046D01*
X184551Y809046D01*
G54D11*
X359600Y708700D02*
X377000Y708700D01*
X377000Y739100D01*
X359600Y739100D01*
X359600Y708700D01*
G36*
X359700Y708800D02*
X376400Y708800D01*
X376400Y716000D01*
X359700Y716000D01*
X359700Y708800D01*
G37*
G54D13*
X359700Y708800D02*
X376400Y708800D01*
X376400Y716000D01*
X359700Y716000D01*
X359700Y708800D01*
G54D12*
X346271Y682654D02*
X341938Y686988D01*
X353494Y686988D01*
G54D12*
X353494Y691031D02*
X341938Y691031D01*
X353494Y697965D01*
X341938Y697965D01*
G54D12*
X353494Y707208D02*
X341938Y707208D01*
X349160Y702008D01*
X350605Y702008D01*
X350605Y708942D01*
G54D12*
X346271Y712985D02*
X341938Y717319D01*
X353494Y717319D01*
G54D12*
X353494Y726562D02*
X341938Y726562D01*
X349160Y721362D01*
X350605Y721362D01*
X350605Y728296D01*
G54D12*
X347716Y736673D02*
X347716Y734939D01*
X346994Y733206D01*
X345549Y732339D01*
X344105Y732339D01*
X342660Y733206D01*
X341938Y734939D01*
X341938Y736673D01*
X342660Y738406D01*
X344105Y739273D01*
X345549Y739273D01*
X346994Y738406D01*
X347716Y736673D01*
X348438Y738406D01*
X349882Y739273D01*
X351327Y739273D01*
X352771Y738406D01*
X353494Y736673D01*
X353494Y734939D01*
X352771Y733206D01*
X351327Y732339D01*
X349882Y732339D01*
X348438Y733206D01*
X347716Y734939D01*
G54D11*
X596900Y736600D02*
X622300Y736600D01*
X622300Y685800D01*
X596900Y685800D01*
X596900Y736600D01*
G54D12*
X629550Y697206D02*
X636483Y697206D01*
G54D12*
X633017Y700094D02*
X633017Y694317D01*
G54D12*
X640527Y699372D02*
X644860Y703706D01*
X644860Y692150D01*
G54D12*
X655837Y692150D02*
X648904Y692150D01*
X648904Y692872D01*
X649771Y694317D01*
X654971Y698650D01*
X655837Y700094D01*
X655837Y701539D01*
X654971Y702983D01*
X653237Y703706D01*
X651504Y703706D01*
X649771Y702983D01*
X648904Y701539D01*
G54D12*
X659881Y703706D02*
X664214Y692150D01*
X668548Y703706D01*
G54D12*
X680276Y692150D02*
X680276Y703706D01*
G54D12*
X676809Y703706D02*
X683742Y703706D01*
G54D12*
X687786Y703706D02*
X696453Y692150D01*
G54D12*
X687786Y692150D02*
X696453Y703706D01*
G54D12*
X709914Y693883D02*
X709914Y696772D01*
X709047Y698217D01*
X707314Y698650D01*
X705581Y698217D01*
X704714Y696772D01*
X704714Y693883D01*
X705581Y692439D01*
X707314Y692150D01*
X709047Y692439D01*
X709914Y693883D01*
G54D12*
X719158Y698650D02*
X719158Y692150D01*
G54D12*
X719158Y693594D02*
X718291Y692439D01*
X716558Y692150D01*
X714825Y692439D01*
X713958Y693594D01*
X713958Y698650D01*
G54D12*
X724935Y703706D02*
X724935Y692872D01*
X725802Y692150D01*
X726669Y692439D01*
G54D12*
X723202Y698650D02*
X726669Y698650D01*
G54D11*
X376950Y589050D02*
X376950Y528750D01*
G54D11*
X332550Y588950D02*
X332550Y528650D01*
G54D11*
G75*
G01X376950Y588850D02*
G03X332550Y588850I-22200J0D01*
G01*
G54D11*
G75*
G01X332550Y528750D02*
G03X376950Y528750I22200J0D01*
G01*
G54D12*
X347244Y548300D02*
X358800Y556967D01*
G54D12*
X358800Y548300D02*
X347244Y556967D01*
G54D12*
X358800Y567944D02*
X358800Y561011D01*
X358078Y561011D01*
X356633Y561878D01*
X352300Y567078D01*
X350856Y567944D01*
X349411Y567944D01*
X347967Y567078D01*
X347244Y565344D01*
X347244Y563611D01*
X347967Y561878D01*
X349411Y561011D01*
G54D11*
X440450Y589050D02*
X440450Y528750D01*
G54D11*
X396050Y588950D02*
X396050Y528650D01*
G54D11*
G75*
G01X440450Y588850D02*
G03X396050Y588850I-22200J0D01*
G01*
G54D11*
G75*
G01X396050Y528750D02*
G03X440450Y528750I22200J0D01*
G01*
G54D12*
X410744Y548300D02*
X422300Y556967D01*
G54D12*
X422300Y548300D02*
X410744Y556967D01*
G54D12*
X412911Y561011D02*
X411467Y561878D01*
X410744Y563611D01*
X410744Y565344D01*
X411467Y567078D01*
X412911Y567944D01*
X414356Y567944D01*
X415800Y567078D01*
X416522Y565344D01*
X417244Y567078D01*
X418689Y567944D01*
X420133Y567944D01*
X421578Y567078D01*
X422300Y565344D01*
X422300Y563611D01*
X421578Y561878D01*
X420133Y561011D01*
G54D11*
X503950Y589050D02*
X503950Y528750D01*
G54D11*
X459550Y588950D02*
X459550Y528650D01*
G54D11*
G75*
G01X503950Y588850D02*
G03X459550Y588850I-22200J0D01*
G01*
G54D11*
G75*
G01X459550Y528750D02*
G03X503950Y528750I22200J0D01*
G01*
G54D12*
X474244Y548300D02*
X485800Y556967D01*
G54D12*
X485800Y548300D02*
X474244Y556967D01*
G54D12*
X485800Y566211D02*
X474244Y566211D01*
X481467Y561011D01*
X482911Y561011D01*
X482911Y567944D01*
G54D11*
X317500Y611900D02*
X342900Y611900D01*
X342900Y658100D01*
X317500Y658100D01*
X317500Y611900D01*
G54D11*
X322200Y633400D02*
X338200Y633400D01*
G54D11*
X322200Y636600D02*
X338200Y636600D01*
G54D11*
X330200Y633400D02*
X330200Y631800D01*
G54D11*
X330200Y636600D02*
X330200Y638200D01*
G54D12*
X303028Y611150D02*
X298694Y615483D01*
X310250Y615483D01*
G54D12*
X298694Y626460D02*
X298694Y619527D01*
X303750Y619527D01*
X303750Y620394D01*
X303028Y622127D01*
X303028Y623860D01*
X303750Y625594D01*
X305194Y626460D01*
X308083Y626460D01*
X309528Y625594D01*
X310250Y623860D01*
X310250Y622127D01*
X309528Y620394D01*
X308083Y619527D01*
G54D12*
X300861Y637437D02*
X308083Y637437D01*
X309528Y636571D01*
X310250Y634837D01*
X310250Y633104D01*
X309528Y631371D01*
X308083Y630504D01*
X300861Y630504D01*
X299417Y631371D01*
X298694Y633104D01*
X298694Y634837D01*
X299417Y636571D01*
X300861Y637437D01*
G54D12*
X303750Y641481D02*
X313139Y641481D01*
G54D12*
X308083Y641481D02*
X309961Y642348D01*
X310250Y644081D01*
X309961Y645814D01*
X308517Y646681D01*
X305628Y646681D01*
X304183Y645814D01*
X303750Y644081D01*
X304183Y642348D01*
X305917Y641481D01*
G54D11*
X381000Y611900D02*
X406400Y611900D01*
X406400Y658100D01*
X381000Y658100D01*
X381000Y611900D01*
G54D11*
X385700Y633400D02*
X401700Y633400D01*
G54D11*
X385700Y636600D02*
X401700Y636600D01*
G54D11*
X393700Y633400D02*
X393700Y631800D01*
G54D11*
X393700Y636600D02*
X393700Y638200D01*
G54D12*
X366528Y611150D02*
X362194Y615483D01*
X373750Y615483D01*
G54D12*
X362194Y626460D02*
X362194Y619527D01*
X367250Y619527D01*
X367250Y620394D01*
X366528Y622127D01*
X366528Y623860D01*
X367250Y625594D01*
X368694Y626460D01*
X371583Y626460D01*
X373028Y625594D01*
X373750Y623860D01*
X373750Y622127D01*
X373028Y620394D01*
X371583Y619527D01*
G54D12*
X364361Y637437D02*
X371583Y637437D01*
X373028Y636571D01*
X373750Y634837D01*
X373750Y633104D01*
X373028Y631371D01*
X371583Y630504D01*
X364361Y630504D01*
X362917Y631371D01*
X362194Y633104D01*
X362194Y634837D01*
X362917Y636571D01*
X364361Y637437D01*
G54D12*
X367250Y641481D02*
X376639Y641481D01*
G54D12*
X371583Y641481D02*
X373461Y642348D01*
X373750Y644081D01*
X373461Y645814D01*
X372017Y646681D01*
X369128Y646681D01*
X367683Y645814D01*
X367250Y644081D01*
X367683Y642348D01*
X369417Y641481D01*
G54D11*
X444500Y611900D02*
X469900Y611900D01*
X469900Y658100D01*
X444500Y658100D01*
X444500Y611900D01*
G54D11*
X449200Y633400D02*
X465200Y633400D01*
G54D11*
X449200Y636600D02*
X465200Y636600D01*
G54D11*
X457200Y633400D02*
X457200Y631800D01*
G54D11*
X457200Y636600D02*
X457200Y638200D01*
G54D12*
X430028Y611150D02*
X425694Y615483D01*
X437250Y615483D01*
G54D12*
X425694Y626460D02*
X425694Y619527D01*
X430750Y619527D01*
X430750Y620394D01*
X430028Y622127D01*
X430028Y623860D01*
X430750Y625594D01*
X432194Y626460D01*
X435083Y626460D01*
X436528Y625594D01*
X437250Y623860D01*
X437250Y622127D01*
X436528Y620394D01*
X435083Y619527D01*
G54D12*
X427861Y637437D02*
X435083Y637437D01*
X436528Y636571D01*
X437250Y634837D01*
X437250Y633104D01*
X436528Y631371D01*
X435083Y630504D01*
X427861Y630504D01*
X426417Y631371D01*
X425694Y633104D01*
X425694Y634837D01*
X426417Y636571D01*
X427861Y637437D01*
G54D12*
X430750Y641481D02*
X440139Y641481D01*
G54D12*
X435083Y641481D02*
X436961Y642348D01*
X437250Y644081D01*
X436961Y645814D01*
X435517Y646681D01*
X432628Y646681D01*
X431183Y645814D01*
X430750Y644081D01*
X431183Y642348D01*
X432917Y641481D01*
G54D11*
X209266Y558471D02*
X224466Y563371D01*
X224466Y606971D01*
X209266Y611871D01*
G54D11*
G75*
G01X209166Y611821D02*
G03X209166Y558521I0J-26650D01*
G01*
G54D12*
X182401Y540715D02*
X175468Y540715D01*
X175468Y541438D01*
X176334Y542882D01*
X181534Y547215D01*
X182401Y548660D01*
X182401Y550104D01*
X181534Y551549D01*
X179801Y552271D01*
X178068Y552271D01*
X176334Y551549D01*
X175468Y550104D01*
G54D12*
X186445Y540715D02*
X186445Y547215D01*
G54D12*
X186445Y545771D02*
X187311Y546782D01*
X189045Y547215D01*
X190778Y546782D01*
X191645Y545771D01*
X191645Y540715D01*
G54D12*
X195689Y550104D02*
X196555Y551549D01*
X198289Y552271D01*
X200022Y552271D01*
X201755Y551549D01*
X202622Y550104D01*
X202622Y548660D01*
X201755Y547215D01*
X200022Y546493D01*
X201755Y545771D01*
X202622Y544327D01*
X202622Y542882D01*
X201755Y541438D01*
X200022Y540715D01*
X198289Y540715D01*
X196555Y541438D01*
X195689Y542882D01*
G54D12*
X206666Y542882D02*
X207532Y541438D01*
X209266Y540715D01*
X210999Y540715D01*
X212732Y541438D01*
X213599Y542882D01*
X213599Y546493D01*
X213599Y547215D01*
X210999Y545771D01*
X209266Y545771D01*
X207532Y546493D01*
X206666Y547938D01*
X206666Y550104D01*
X207532Y551549D01*
X209266Y552271D01*
X210999Y552271D01*
X212732Y551549D01*
X213599Y550104D01*
X213599Y546493D01*
G54D12*
X224576Y550104D02*
X224576Y542882D01*
X223709Y541438D01*
X221976Y540715D01*
X220243Y540715D01*
X218509Y541438D01*
X217643Y542882D01*
X217643Y550104D01*
X218509Y551549D01*
X220243Y552271D01*
X221976Y552271D01*
X223709Y551549D01*
X224576Y550104D01*
G54D12*
X233820Y540715D02*
X233820Y552271D01*
X228620Y545049D01*
X228620Y543604D01*
X235553Y543604D01*
G54D11*
X508000Y561100D02*
X533400Y561100D01*
X533400Y607300D01*
X508000Y607300D01*
X508000Y561100D01*
G54D11*
X512700Y582600D02*
X528700Y582600D01*
G54D11*
X512700Y585800D02*
X528700Y585800D01*
G54D11*
X520700Y582600D02*
X520700Y581000D01*
G54D11*
X520700Y585800D02*
X520700Y587400D01*
G54D12*
X551550Y567283D02*
X551550Y560350D01*
X550828Y560350D01*
X549383Y561217D01*
X545050Y566417D01*
X543606Y567283D01*
X542161Y567283D01*
X540717Y566417D01*
X539994Y564683D01*
X539994Y562950D01*
X540717Y561217D01*
X542161Y560350D01*
G54D12*
X551550Y578260D02*
X551550Y571327D01*
X550828Y571327D01*
X549383Y572194D01*
X545050Y577394D01*
X543606Y578260D01*
X542161Y578260D01*
X540717Y577394D01*
X539994Y575660D01*
X539994Y573927D01*
X540717Y572194D01*
X542161Y571327D01*
G54D12*
X545050Y582304D02*
X554439Y582304D01*
G54D12*
X549383Y582304D02*
X551261Y583171D01*
X551550Y584904D01*
X551261Y586637D01*
X549817Y587504D01*
X546928Y587504D01*
X545483Y586637D01*
X545050Y584904D01*
X545483Y583171D01*
X547217Y582304D01*
G54D11*
X533400Y533400D02*
X530300Y533400D01*
G54D11*
G75*
G01X533400Y533400D02*
G03X533400Y533400I12700J0D01*
G01*
G54D12*
X521359Y507995D02*
X525692Y512329D01*
X525692Y500773D01*
G54D12*
X536669Y510162D02*
X536669Y502940D01*
X535803Y501495D01*
X534069Y500773D01*
X532336Y500773D01*
X530603Y501495D01*
X529736Y502940D01*
X529736Y510162D01*
X530603Y511606D01*
X532336Y512329D01*
X534069Y512329D01*
X535803Y511606D01*
X536669Y510162D01*
G54D12*
X545913Y507273D02*
X545913Y500773D01*
G54D12*
X545913Y502217D02*
X545046Y501062D01*
X543313Y500773D01*
X541580Y501062D01*
X540713Y502217D01*
X540713Y507273D01*
G54D12*
X549957Y500773D02*
X549957Y512329D01*
G54D12*
X556890Y500773D02*
X556890Y512329D01*
G54D12*
X549957Y506551D02*
X556890Y506551D01*
G54D11*
X10400Y584200D02*
X10400Y609600D01*
X-35800Y609600D01*
X-35800Y584200D01*
X10400Y584200D01*
G54D11*
X-11100Y588900D02*
X-11100Y604900D01*
G54D11*
X-14300Y588900D02*
X-14300Y604900D01*
G54D11*
X-11100Y596900D02*
X-9500Y596900D01*
G54D11*
X-14300Y596900D02*
X-15900Y596900D01*
G54D12*
X-7317Y626606D02*
X-14250Y626606D01*
X-14250Y621550D01*
X-13383Y621550D01*
X-11650Y622272D01*
X-9917Y622272D01*
X-8183Y621550D01*
X-7317Y620106D01*
X-7317Y617217D01*
X-8183Y615772D01*
X-9917Y615050D01*
X-11650Y615050D01*
X-13383Y615772D01*
X-14250Y617217D01*
G54D12*
X-3273Y621550D02*
X-3273Y612161D01*
G54D12*
X-3273Y617217D02*
X-2406Y615339D01*
X-673Y615050D01*
X1060Y615339D01*
X1927Y616783D01*
X1927Y619672D01*
X1060Y621117D01*
X-673Y621550D01*
X-2406Y621117D01*
X-3273Y619383D01*
G54D11*
X10400Y558800D02*
X10400Y584200D01*
X-35800Y584200D01*
X-35800Y558800D01*
X10400Y558800D01*
G54D11*
X-11100Y563500D02*
X-11100Y579500D01*
G54D11*
X-14300Y563500D02*
X-14300Y579500D01*
G54D11*
X-11100Y571500D02*
X-9500Y571500D01*
G54D11*
X-14300Y571500D02*
X-15900Y571500D01*
G54D12*
X-20017Y548239D02*
X-20017Y541017D01*
X-20883Y539572D01*
X-22617Y538850D01*
X-24350Y538850D01*
X-26083Y539572D01*
X-26950Y541017D01*
X-26950Y548239D01*
X-26083Y549683D01*
X-24350Y550406D01*
X-22617Y550406D01*
X-20883Y549683D01*
X-20017Y548239D01*
G54D12*
X-15973Y538850D02*
X-15973Y538850D01*
G54D12*
X-4996Y548239D02*
X-4996Y541017D01*
X-5862Y539572D01*
X-7596Y538850D01*
X-9329Y538850D01*
X-11062Y539572D01*
X-11929Y541017D01*
X-11929Y548239D01*
X-11062Y549683D01*
X-9329Y550406D01*
X-7596Y550406D01*
X-5862Y549683D01*
X-4996Y548239D01*
G54D12*
X-952Y546072D02*
X3381Y550406D01*
X3381Y538850D01*
G54D11*
X162800Y533400D02*
X162800Y558800D01*
X116600Y558800D01*
X116600Y533400D01*
X162800Y533400D01*
G54D11*
X141300Y538100D02*
X141300Y554100D01*
G54D11*
X138100Y538100D02*
X138100Y554100D01*
G54D11*
X141300Y546100D02*
X142900Y546100D01*
G54D11*
X138100Y546100D02*
X136500Y546100D01*
G54D12*
X132383Y522839D02*
X132383Y515617D01*
X131517Y514172D01*
X129783Y513450D01*
X128050Y513450D01*
X126317Y514172D01*
X125450Y515617D01*
X125450Y522839D01*
X126317Y524283D01*
X128050Y525006D01*
X129783Y525006D01*
X131517Y524283D01*
X132383Y522839D01*
G54D12*
X136427Y513450D02*
X136427Y513450D01*
G54D12*
X147404Y522839D02*
X147404Y515617D01*
X146538Y514172D01*
X144804Y513450D01*
X143071Y513450D01*
X141338Y514172D01*
X140471Y515617D01*
X140471Y522839D01*
X141338Y524283D01*
X143071Y525006D01*
X144804Y525006D01*
X146538Y524283D01*
X147404Y522839D01*
G54D12*
X151448Y520672D02*
X155781Y525006D01*
X155781Y513450D01*
G54D11*
X162800Y584200D02*
X162800Y609600D01*
X116600Y609600D01*
X116600Y584200D01*
X162800Y584200D01*
G54D11*
X141300Y588900D02*
X141300Y604900D01*
G54D11*
X138100Y588900D02*
X138100Y604900D01*
G54D11*
X141300Y596900D02*
X142900Y596900D01*
G54D11*
X138100Y596900D02*
X136500Y596900D01*
G54D12*
X145083Y624439D02*
X145083Y617217D01*
X144217Y615772D01*
X142483Y615050D01*
X140750Y615050D01*
X139017Y615772D01*
X138150Y617217D01*
X138150Y624439D01*
X139017Y625883D01*
X140750Y626606D01*
X142483Y626606D01*
X144217Y625883D01*
X145083Y624439D01*
G54D12*
X149127Y615050D02*
X149127Y615050D01*
G54D12*
X153171Y622272D02*
X157504Y626606D01*
X157504Y615050D01*
G54D11*
X584200Y546100D02*
X584200Y543000D01*
G54D11*
G75*
G01X584200Y546100D02*
G03X584200Y546100I0J12700D01*
G01*
G54D12*
X616827Y539259D02*
X605271Y539259D01*
X612494Y534059D01*
X613938Y534059D01*
X613938Y540992D01*
G54D12*
X605271Y545036D02*
X605271Y551969D01*
X606716Y551103D01*
X608883Y549369D01*
X611771Y547636D01*
X613938Y546769D01*
X616827Y546769D01*
G54D12*
X610327Y561213D02*
X616827Y561213D01*
G54D12*
X615383Y561213D02*
X616538Y560346D01*
X616827Y558613D01*
X616538Y556880D01*
X615383Y556013D01*
X610327Y556013D01*
G54D12*
X616827Y565257D02*
X605271Y565257D01*
G54D12*
X616827Y572190D02*
X605271Y572190D01*
G54D12*
X611049Y565257D02*
X611049Y572190D01*
G54D11*
X594900Y629100D02*
X594900Y625900D01*
X574900Y625900D01*
X574900Y629100D01*
X594900Y629100D01*
G54D11*
X594900Y632300D02*
X574900Y632300D01*
G54D11*
G75*
G01X584200Y589600D02*
G03X584200Y589600I0J40000D01*
G01*
G54D11*
X584200Y632600D02*
X584200Y639600D01*
G54D11*
X584200Y625600D02*
X584200Y619600D01*
G54D15*
X562000Y603600D02*
X562000Y614300D01*
G54D15*
X566400Y608900D02*
X557500Y608900D01*
G54D14*
X617250Y623550D02*
X608361Y623550D01*
X613917Y619550D01*
X615028Y619550D01*
X615028Y624883D01*
G54D14*
X608361Y627994D02*
X608361Y633327D01*
X609472Y632661D01*
X611139Y631327D01*
X613361Y629994D01*
X615028Y629327D01*
X617250Y629327D01*
G54D14*
X610028Y641771D02*
X615583Y641771D01*
X616694Y641105D01*
X617250Y639771D01*
X617250Y638438D01*
X616694Y637105D01*
X615583Y636438D01*
X610028Y636438D01*
X608917Y637105D01*
X608361Y638438D01*
X608361Y639771D01*
X608917Y641105D01*
X610028Y641771D01*
G54D14*
X612250Y648882D02*
X617250Y648882D01*
G54D14*
X616139Y648882D02*
X617028Y648215D01*
X617250Y646882D01*
X617028Y645549D01*
X616139Y644882D01*
X612250Y644882D01*
G54D14*
X617250Y651993D02*
X608361Y651993D01*
X608361Y656660D01*
G54D14*
X612806Y651993D02*
X612806Y656660D01*
G54D11*
X190500Y825500D02*
X190500Y850900D01*
X215900Y850900D01*
X215900Y825500D01*
X190500Y825500D01*
G54D11*
X190500Y635000D02*
X190500Y660400D01*
X215900Y660400D01*
X215900Y635000D01*
X190500Y635000D01*
G54D11*
X215900Y901700D02*
X215900Y927100D01*
X241300Y927100D01*
X241300Y901700D01*
X215900Y901700D01*
G54D11*
X215900Y825500D02*
X215900Y850900D01*
X241300Y850900D01*
X241300Y825500D01*
X215900Y825500D01*
G54D11*
X215900Y660400D02*
X215900Y685800D01*
X241300Y685800D01*
X241300Y660400D01*
X215900Y660400D01*
G54D11*
X215900Y635000D02*
X215900Y660400D01*
X241300Y660400D01*
X241300Y635000D01*
X215900Y635000D01*
G54D11*
X205500Y901700D02*
X205500Y876300D01*
X277100Y876300D01*
X277100Y901700D01*
X205500Y901700D01*
G54D11*
X239700Y897000D02*
X239700Y881000D01*
G54D11*
X242900Y897000D02*
X242900Y881000D01*
G54D11*
X227000Y889000D02*
X239700Y889000D01*
G54D11*
X242900Y889000D02*
X255600Y889000D01*
G54D12*
X216312Y872989D02*
X216312Y865767D01*
X215446Y864322D01*
X213712Y863600D01*
X211979Y863600D01*
X210246Y864322D01*
X209379Y865767D01*
X209379Y872989D01*
X210246Y874433D01*
X211979Y875156D01*
X213712Y875156D01*
X215446Y874433D01*
X216312Y872989D01*
G54D12*
X220356Y863600D02*
X220356Y863600D01*
G54D12*
X231333Y872989D02*
X231333Y865767D01*
X230467Y864322D01*
X228733Y863600D01*
X227000Y863600D01*
X225267Y864322D01*
X224400Y865767D01*
X224400Y872989D01*
X225267Y874433D01*
X227000Y875156D01*
X228733Y875156D01*
X230467Y874433D01*
X231333Y872989D01*
G54D12*
X235377Y870822D02*
X239710Y875156D01*
X239710Y863600D01*
G54D11*
X736600Y548400D02*
X762000Y548400D01*
X762000Y594600D01*
X736600Y594600D01*
X736600Y548400D01*
G54D11*
X741300Y569900D02*
X757300Y569900D01*
G54D11*
X741300Y573100D02*
X757300Y573100D01*
G54D11*
X749300Y569900D02*
X749300Y568300D01*
G54D11*
X749300Y573100D02*
X749300Y574700D01*
G54D12*
X734078Y549413D02*
X729744Y553746D01*
X741300Y553746D01*
G54D12*
X731911Y564723D02*
X739133Y564723D01*
X740578Y563856D01*
X741300Y562123D01*
X741300Y560390D01*
X740578Y558656D01*
X739133Y557790D01*
X731911Y557790D01*
X730467Y558656D01*
X729744Y560390D01*
X729744Y562123D01*
X730467Y563856D01*
X731911Y564723D01*
G54D12*
X731911Y575700D02*
X739133Y575700D01*
X740578Y574833D01*
X741300Y573100D01*
X741300Y571367D01*
X740578Y569633D01*
X739133Y568767D01*
X731911Y568767D01*
X730467Y569633D01*
X729744Y571367D01*
X729744Y573100D01*
X730467Y574833D01*
X731911Y575700D01*
G54D12*
X734800Y579744D02*
X744189Y579744D01*
G54D12*
X739133Y579744D02*
X741011Y580610D01*
X741300Y582344D01*
X741011Y584077D01*
X739567Y584944D01*
X736678Y584944D01*
X735233Y584077D01*
X734800Y582344D01*
X735233Y580610D01*
X736967Y579744D01*
G54D11*
X785100Y596900D02*
X785100Y622300D01*
X738900Y622300D01*
X738900Y596900D01*
X785100Y596900D01*
G54D11*
X763600Y601600D02*
X763600Y617600D01*
G54D11*
X760400Y601600D02*
X760400Y617600D01*
G54D11*
X763600Y609600D02*
X765200Y609600D01*
G54D11*
X760400Y609600D02*
X758800Y609600D01*
G54D12*
X767383Y637139D02*
X767383Y629917D01*
X766517Y628472D01*
X764783Y627750D01*
X763050Y627750D01*
X761317Y628472D01*
X760450Y629917D01*
X760450Y637139D01*
X761317Y638583D01*
X763050Y639306D01*
X764783Y639306D01*
X766517Y638583D01*
X767383Y637139D01*
G54D12*
X771427Y627750D02*
X771427Y627750D01*
G54D12*
X775471Y634972D02*
X779804Y639306D01*
X779804Y627750D01*
G54D11*
X810500Y571500D02*
X810500Y596900D01*
X764300Y596900D01*
X764300Y571500D01*
X810500Y571500D01*
G54D11*
X789000Y576200D02*
X789000Y592200D01*
G54D11*
X785800Y576200D02*
X785800Y592200D01*
G54D11*
X789000Y584200D02*
X790600Y584200D01*
G54D11*
X785800Y584200D02*
X784200Y584200D01*
G54D12*
X823950Y596872D02*
X828283Y601206D01*
X828283Y589650D01*
G54D12*
X839260Y599039D02*
X839260Y591817D01*
X838394Y590372D01*
X836660Y589650D01*
X834927Y589650D01*
X833194Y590372D01*
X832327Y591817D01*
X832327Y599039D01*
X833194Y600483D01*
X834927Y601206D01*
X836660Y601206D01*
X838394Y600483D01*
X839260Y599039D01*
G54D12*
X850237Y599039D02*
X850237Y591817D01*
X849371Y590372D01*
X847637Y589650D01*
X845904Y589650D01*
X844171Y590372D01*
X843304Y591817D01*
X843304Y599039D01*
X844171Y600483D01*
X845904Y601206D01*
X847637Y601206D01*
X849371Y600483D01*
X850237Y599039D01*
G54D12*
X854281Y596150D02*
X854281Y586761D01*
G54D12*
X854281Y591817D02*
X855148Y589939D01*
X856881Y589650D01*
X858614Y589939D01*
X859481Y591383D01*
X859481Y594272D01*
X858614Y595717D01*
X856881Y596150D01*
X855148Y595717D01*
X854281Y593983D01*
G54D11*
X787400Y558800D02*
X784300Y558800D01*
G54D11*
G75*
G01X787400Y558800D02*
G03X787400Y558800I12700J0D01*
G01*
G54D12*
X793259Y526173D02*
X793259Y537729D01*
X788059Y530506D01*
X788059Y529062D01*
X794992Y529062D01*
G54D12*
X799036Y537729D02*
X805969Y537729D01*
X805103Y536284D01*
X803369Y534117D01*
X801636Y531229D01*
X800769Y529062D01*
X800769Y526173D01*
G54D12*
X815213Y532673D02*
X815213Y526173D01*
G54D12*
X815213Y527617D02*
X814346Y526462D01*
X812613Y526173D01*
X810880Y526462D01*
X810013Y527617D01*
X810013Y532673D01*
G54D12*
X819257Y526173D02*
X819257Y537729D01*
G54D12*
X826190Y526173D02*
X826190Y537729D01*
G54D12*
X819257Y531951D02*
X826190Y531951D01*
G54D11*
X845200Y581000D02*
X905500Y581000D01*
G54D11*
X845300Y536600D02*
X905600Y536600D01*
G54D11*
G75*
G01X845400Y581000D02*
G03X845400Y536600I0J-22200D01*
G01*
G54D11*
G75*
G01X905500Y536600D02*
G03X905500Y581000I0J22200D01*
G01*
G54D12*
X860550Y561706D02*
X869217Y550150D01*
G54D12*
X860550Y550150D02*
X869217Y561706D01*
G54D12*
X880194Y561706D02*
X873261Y561706D01*
X873261Y556650D01*
X874128Y556650D01*
X875861Y557372D01*
X877594Y557372D01*
X879328Y556650D01*
X880194Y555206D01*
X880194Y552317D01*
X879328Y550872D01*
X877594Y550150D01*
X875861Y550150D01*
X874128Y550872D01*
X873261Y552317D01*
G54D11*
G75*
G01X937700Y647700D02*
G03X937700Y647700I-49500J0D01*
G01*
G54D11*
X833200Y672700D02*
X833200Y622700D01*
X845100Y622700D01*
X845300Y622900D01*
G54D11*
X833200Y672700D02*
X845300Y672700D01*
X845400Y672600D01*
G54D11*
G75*
G01X900200Y647700D02*
G03X900200Y647700I-12000J0D01*
G01*
G54D11*
X879200Y640700D02*
X895200Y656700D01*
G54D11*
X881200Y638700D02*
X897200Y654700D01*
G54D12*
X888383Y667272D02*
X881450Y667272D01*
X881450Y667994D01*
X882317Y669439D01*
X887517Y673772D01*
X888383Y675216D01*
X888383Y676661D01*
X887517Y678105D01*
X885783Y678828D01*
X884050Y678828D01*
X882317Y678105D01*
X881450Y676661D01*
G54D12*
X899360Y676661D02*
X899360Y669439D01*
X898494Y667994D01*
X896760Y667272D01*
X895027Y667272D01*
X893294Y667994D01*
X892427Y669439D01*
X892427Y676661D01*
X893294Y678105D01*
X895027Y678828D01*
X896760Y678828D01*
X898494Y678105D01*
X899360Y676661D01*
G54D12*
X903404Y673772D02*
X903404Y664383D01*
G54D12*
X903404Y669439D02*
X904271Y667561D01*
X906004Y667272D01*
X907737Y667561D01*
X908604Y669005D01*
X908604Y671894D01*
X907737Y673339D01*
X906004Y673772D01*
X904271Y673339D01*
X903404Y671605D01*
G54D11*
X787400Y637300D02*
X812800Y637300D01*
X812800Y683500D01*
X787400Y683500D01*
X787400Y637300D01*
G54D11*
X792100Y658800D02*
X808100Y658800D01*
G54D11*
X792100Y662000D02*
X808100Y662000D01*
G54D11*
X800100Y658800D02*
X800100Y657200D01*
G54D11*
X800100Y662000D02*
X800100Y663600D01*
G54D12*
X772928Y649250D02*
X768594Y653583D01*
X780150Y653583D01*
G54D12*
X770761Y664560D02*
X777983Y664560D01*
X779428Y663694D01*
X780150Y661960D01*
X780150Y660227D01*
X779428Y658494D01*
X777983Y657627D01*
X770761Y657627D01*
X769317Y658494D01*
X768594Y660227D01*
X768594Y661960D01*
X769317Y663694D01*
X770761Y664560D01*
G54D12*
X773650Y668604D02*
X783039Y668604D01*
G54D12*
X777983Y668604D02*
X779861Y669471D01*
X780150Y671204D01*
X779861Y672937D01*
X778417Y673804D01*
X775528Y673804D01*
X774083Y672937D01*
X773650Y671204D01*
X774083Y669471D01*
X775817Y668604D01*
G54D11*
X635000Y660400D02*
X635000Y685800D01*
X660400Y685800D01*
X660400Y660400D01*
X635000Y660400D01*
G54D11*
X292100Y749300D02*
X292100Y774700D01*
X342900Y774700D01*
X342900Y749300D01*
X292100Y749300D01*
G54D12*
X112845Y960393D02*
X119778Y960393D01*
G54D12*
X116312Y963282D02*
X116312Y957504D01*
G54D12*
X123822Y962560D02*
X128155Y966893D01*
X128155Y955338D01*
G54D12*
X139132Y955338D02*
X132199Y955338D01*
X132199Y956060D01*
X133066Y957504D01*
X138266Y961838D01*
X139132Y963282D01*
X139132Y964727D01*
X138266Y966171D01*
X136532Y966893D01*
X134799Y966893D01*
X133066Y966171D01*
X132199Y964727D01*
G54D12*
X143176Y966893D02*
X147509Y955338D01*
X151843Y966893D01*
G54D12*
X160104Y955338D02*
X160104Y961838D01*
G54D12*
X160104Y964004D02*
X160104Y964004D01*
G54D12*
X164148Y955338D02*
X164148Y961838D01*
G54D12*
X164148Y960393D02*
X165015Y961404D01*
X166748Y961838D01*
X168481Y961404D01*
X169348Y960393D01*
X169348Y955338D01*
G54D11*
X708900Y457200D02*
X708900Y482600D01*
X662700Y482600D01*
X662700Y457200D01*
X708900Y457200D01*
G54D11*
X687400Y461900D02*
X687400Y477900D01*
G54D11*
X684200Y461900D02*
X684200Y477900D01*
G54D11*
X687400Y469900D02*
X689000Y469900D01*
G54D11*
X684200Y469900D02*
X682600Y469900D01*
G54D12*
X729283Y472039D02*
X729283Y464817D01*
X728417Y463372D01*
X726683Y462650D01*
X724950Y462650D01*
X723217Y463372D01*
X722350Y464817D01*
X722350Y472039D01*
X723217Y473483D01*
X724950Y474206D01*
X726683Y474206D01*
X728417Y473483D01*
X729283Y472039D01*
G54D12*
X733327Y462650D02*
X733327Y462650D01*
G54D12*
X737371Y469872D02*
X741704Y474206D01*
X741704Y462650D01*
G54D11*
X708900Y431800D02*
X708900Y457200D01*
X662700Y457200D01*
X662700Y431800D01*
X708900Y431800D01*
G54D11*
X687400Y436500D02*
X687400Y452500D01*
G54D11*
X684200Y436500D02*
X684200Y452500D01*
G54D11*
X687400Y444500D02*
X689000Y444500D01*
G54D11*
X684200Y444500D02*
X682600Y444500D01*
G54D12*
X729283Y446639D02*
X729283Y439417D01*
X728417Y437972D01*
X726683Y437250D01*
X724950Y437250D01*
X723217Y437972D01*
X722350Y439417D01*
X722350Y446639D01*
X723217Y448083D01*
X724950Y448806D01*
X726683Y448806D01*
X728417Y448083D01*
X729283Y446639D01*
G54D12*
X733327Y437250D02*
X733327Y437250D01*
G54D12*
X737371Y444472D02*
X741704Y448806D01*
X741704Y437250D01*
G54D11*
X647700Y457200D02*
X647700Y454100D01*
G54D11*
G75*
G01X647700Y457200D02*
G03X647700Y457200I0J12700D01*
G01*
G54D12*
X654927Y413992D02*
X654927Y407059D01*
X654205Y407059D01*
X652760Y407926D01*
X648427Y413126D01*
X646983Y413992D01*
X645538Y413992D01*
X644094Y413126D01*
X643371Y411392D01*
X643371Y409659D01*
X644094Y407926D01*
X645538Y407059D01*
G54D12*
X654927Y424969D02*
X654927Y418036D01*
X654205Y418036D01*
X652760Y418903D01*
X648427Y424103D01*
X646983Y424969D01*
X645538Y424969D01*
X644094Y424103D01*
X643371Y422369D01*
X643371Y420636D01*
X644094Y418903D01*
X645538Y418036D01*
G54D12*
X654927Y429013D02*
X643371Y429013D01*
G54D12*
X650594Y431613D02*
X654927Y434213D01*
G54D12*
X652038Y429013D02*
X648427Y434213D01*
G54D11*
X615666Y431471D02*
X630866Y436371D01*
X630866Y479971D01*
X615666Y484871D01*
G54D11*
G75*
G01X615566Y484821D02*
G03X615566Y431521I0J-26650D01*
G01*
G54D12*
X575899Y488657D02*
X568966Y488657D01*
X568966Y489379D01*
X569832Y490824D01*
X575032Y495157D01*
X575899Y496601D01*
X575899Y498046D01*
X575032Y499490D01*
X573299Y500213D01*
X571566Y500213D01*
X569832Y499490D01*
X568966Y498046D01*
G54D12*
X579943Y488657D02*
X579943Y495157D01*
G54D12*
X579943Y493713D02*
X580809Y494724D01*
X582543Y495157D01*
X584276Y494724D01*
X585143Y493713D01*
X585143Y488657D01*
G54D12*
X589187Y500213D02*
X596120Y500213D01*
X595253Y498768D01*
X593520Y496601D01*
X591787Y493713D01*
X590920Y491546D01*
X590920Y488657D01*
G54D12*
X607097Y498046D02*
X607097Y490824D01*
X606230Y489379D01*
X604497Y488657D01*
X602764Y488657D01*
X601030Y489379D01*
X600164Y490824D01*
X600164Y498046D01*
X601030Y499490D01*
X602764Y500213D01*
X604497Y500213D01*
X606230Y499490D01*
X607097Y498046D01*
G54D12*
X618074Y498046D02*
X618074Y490824D01*
X617207Y489379D01*
X615474Y488657D01*
X613741Y488657D01*
X612007Y489379D01*
X611141Y490824D01*
X611141Y498046D01*
X612007Y499490D01*
X613741Y500213D01*
X615474Y500213D01*
X617207Y499490D01*
X618074Y498046D01*
G54D12*
X629051Y498046D02*
X629051Y490824D01*
X628184Y489379D01*
X626451Y488657D01*
X624718Y488657D01*
X622984Y489379D01*
X622118Y490824D01*
X622118Y498046D01*
X622984Y499490D01*
X624718Y500213D01*
X626451Y500213D01*
X628184Y499490D01*
X629051Y498046D01*
G54D11*
X901700Y495300D02*
X927100Y495300D01*
X927100Y444500D01*
X901700Y444500D01*
X901700Y495300D01*
G54D12*
X947050Y397917D02*
X935494Y397917D01*
G54D12*
X935494Y394450D02*
X935494Y401383D01*
G54D12*
X935494Y405427D02*
X947050Y414094D01*
G54D12*
X947050Y405427D02*
X935494Y414094D01*
G54D12*
X941994Y422355D02*
X941994Y429288D01*
G54D12*
X939106Y425822D02*
X944883Y425822D01*
G54D12*
X935494Y440265D02*
X935494Y433332D01*
X940550Y433332D01*
X940550Y434199D01*
X939828Y435932D01*
X939828Y437665D01*
X940550Y439399D01*
X941994Y440265D01*
X944883Y440265D01*
X946328Y439399D01*
X947050Y437665D01*
X947050Y435932D01*
X946328Y434199D01*
X944883Y433332D01*
G54D12*
X935494Y444309D02*
X947050Y448642D01*
X935494Y452976D01*
G54D12*
X947050Y461237D02*
X940550Y461237D01*
G54D12*
X938383Y461237D02*
X938383Y461237D01*
G54D12*
X947050Y465281D02*
X940550Y465281D01*
G54D12*
X941994Y465281D02*
X940983Y466148D01*
X940550Y467881D01*
X940983Y469614D01*
X941994Y470481D01*
X947050Y470481D01*
G54D11*
X848400Y465900D02*
X848400Y448500D01*
X878800Y448500D01*
X878800Y465900D01*
X848400Y465900D01*
G36*
X848500Y465800D02*
X848500Y449100D01*
X855700Y449100D01*
X855700Y465800D01*
X848500Y465800D01*
G37*
G54D13*
X848500Y465800D02*
X848500Y449100D01*
X855700Y449100D01*
X855700Y465800D01*
X848500Y465800D01*
G54D12*
X835054Y441128D02*
X839388Y445462D01*
X839388Y433906D01*
G54D12*
X843432Y433906D02*
X843432Y445462D01*
X850365Y433906D01*
X850365Y445462D01*
G54D12*
X859608Y433906D02*
X859608Y445462D01*
X854408Y438239D01*
X854408Y436795D01*
X861342Y436795D01*
G54D12*
X865386Y441128D02*
X869719Y445462D01*
X869719Y433906D01*
G54D12*
X878962Y433906D02*
X878962Y445462D01*
X873762Y438239D01*
X873762Y436795D01*
X880696Y436795D01*
G54D12*
X889073Y439684D02*
X887340Y439684D01*
X885606Y440406D01*
X884740Y441850D01*
X884740Y443295D01*
X885606Y444739D01*
X887340Y445462D01*
X889073Y445462D01*
X890806Y444739D01*
X891673Y443295D01*
X891673Y441850D01*
X890806Y440406D01*
X889073Y439684D01*
X890806Y438962D01*
X891673Y437517D01*
X891673Y436073D01*
X890806Y434628D01*
X889073Y433906D01*
X887340Y433906D01*
X885606Y434628D01*
X884740Y436073D01*
X884740Y437517D01*
X885606Y438962D01*
X887340Y439684D01*
G54D11*
X800100Y446800D02*
X825500Y446800D01*
X825500Y493000D01*
X800100Y493000D01*
X800100Y446800D01*
G54D11*
X804800Y468300D02*
X820800Y468300D01*
G54D11*
X804800Y471500D02*
X820800Y471500D01*
G54D11*
X812800Y468300D02*
X812800Y466700D01*
G54D11*
X812800Y471500D02*
X812800Y473100D01*
G54D12*
X808861Y414883D02*
X816083Y414883D01*
X817528Y414017D01*
X818250Y412283D01*
X818250Y410550D01*
X817528Y408817D01*
X816083Y407950D01*
X808861Y407950D01*
X807417Y408817D01*
X806694Y410550D01*
X806694Y412283D01*
X807417Y414017D01*
X808861Y414883D01*
G54D12*
X818250Y418927D02*
X818250Y418927D01*
G54D12*
X808861Y429904D02*
X816083Y429904D01*
X817528Y429038D01*
X818250Y427304D01*
X818250Y425571D01*
X817528Y423838D01*
X816083Y422971D01*
X808861Y422971D01*
X807417Y423838D01*
X806694Y425571D01*
X806694Y427304D01*
X807417Y429038D01*
X808861Y429904D01*
G54D12*
X811028Y433948D02*
X806694Y438281D01*
X818250Y438281D01*
G54D11*
X774700Y469900D02*
X774700Y466800D01*
G54D11*
G75*
G01X774700Y469900D02*
G03X774700Y469900I0J12700D01*
G01*
G54D12*
X781927Y413992D02*
X781927Y407059D01*
X781205Y407059D01*
X779760Y407926D01*
X775427Y413126D01*
X773983Y413992D01*
X772538Y413992D01*
X771094Y413126D01*
X770371Y411392D01*
X770371Y409659D01*
X771094Y407926D01*
X772538Y407059D01*
G54D12*
X781927Y424969D02*
X781927Y418036D01*
X781205Y418036D01*
X779760Y418903D01*
X775427Y424103D01*
X773983Y424969D01*
X772538Y424969D01*
X771094Y424103D01*
X770371Y422369D01*
X770371Y420636D01*
X771094Y418903D01*
X772538Y418036D01*
G54D12*
X772538Y435946D02*
X779760Y435946D01*
X781205Y435080D01*
X781927Y433346D01*
X781927Y431613D01*
X781205Y429880D01*
X779760Y429013D01*
X772538Y429013D01*
X771094Y429880D01*
X770371Y431613D01*
X770371Y433346D01*
X771094Y435080D01*
X772538Y435946D01*
G54D12*
X781927Y439990D02*
X770371Y439990D01*
G54D12*
X777594Y442590D02*
X781927Y445190D01*
G54D12*
X779038Y439990D02*
X775427Y445190D01*
G54D11*
X466551Y380990D02*
X490451Y380991D01*
X490451Y390490D01*
X499851Y390490D01*
X499851Y380991D01*
X523751Y380991D01*
X523751Y482590D01*
X466551Y482590D01*
X466551Y380990D01*
G36*
X523751Y380890D02*
X511051Y380890D01*
X523751Y393690D01*
X523751Y380890D01*
G37*
G54D16*
X523751Y380890D02*
X511051Y380890D01*
X523751Y393690D01*
X523751Y380890D01*
G54D12*
X468126Y436996D02*
X468126Y425441D01*
X474192Y425441D01*
G54D12*
X478237Y425441D02*
X478237Y436996D01*
X482570Y429774D01*
X486903Y436996D01*
X486903Y425441D01*
G54D12*
X490948Y434829D02*
X491814Y436274D01*
X493548Y436996D01*
X495281Y436996D01*
X497014Y436274D01*
X497881Y434829D01*
X497881Y433385D01*
X497014Y431941D01*
X495281Y431218D01*
X497014Y430496D01*
X497881Y429052D01*
X497881Y427607D01*
X497014Y426163D01*
X495281Y425441D01*
X493548Y425441D01*
X491814Y426163D01*
X490948Y427607D01*
G54D12*
X506258Y431218D02*
X504525Y431218D01*
X502791Y431941D01*
X501925Y433385D01*
X501925Y434829D01*
X502791Y436274D01*
X504525Y436996D01*
X506258Y436996D01*
X507991Y436274D01*
X508858Y434829D01*
X508858Y433385D01*
X507991Y431941D01*
X506258Y431218D01*
X507991Y430496D01*
X508858Y429052D01*
X508858Y427607D01*
X507991Y426163D01*
X506258Y425441D01*
X504525Y425441D01*
X502791Y426163D01*
X501925Y427607D01*
X501925Y429052D01*
X502791Y430496D01*
X504525Y431218D01*
G54D12*
X519835Y434829D02*
X518968Y436274D01*
X517235Y436996D01*
X515502Y436996D01*
X513768Y436274D01*
X512902Y434829D01*
X512902Y431218D01*
X512902Y430496D01*
X515502Y431941D01*
X517235Y431941D01*
X518968Y431218D01*
X519835Y429774D01*
X519835Y427607D01*
X518968Y426163D01*
X517235Y425441D01*
X515502Y425441D01*
X513768Y426163D01*
X512902Y427607D01*
X512902Y431218D01*
G54D11*
X378326Y407877D02*
X378325Y382477D01*
X424525Y382477D01*
X424526Y407877D01*
X378326Y407877D01*
G54D11*
X399826Y403177D02*
X399826Y387177D01*
G54D11*
X403025Y403177D02*
X403026Y387177D01*
G54D11*
X399826Y395177D02*
X398225Y395177D01*
G54D11*
X403026Y395177D02*
X404626Y395177D01*
G54D12*
X397209Y373716D02*
X397209Y366494D01*
X396342Y365049D01*
X394609Y364327D01*
X392876Y364327D01*
X391142Y365049D01*
X390276Y366494D01*
X390276Y373716D01*
X391142Y375160D01*
X392876Y375883D01*
X394609Y375883D01*
X396342Y375160D01*
X397209Y373716D01*
G54D12*
X401253Y364327D02*
X401253Y364327D01*
G54D12*
X412230Y373716D02*
X412230Y366494D01*
X411363Y365049D01*
X409630Y364327D01*
X407897Y364327D01*
X406163Y365049D01*
X405297Y366494D01*
X405297Y373716D01*
X406163Y375160D01*
X407897Y375883D01*
X409630Y375883D01*
X411363Y375160D01*
X412230Y373716D01*
G54D12*
X416274Y371549D02*
X420607Y375883D01*
X420607Y364327D01*
G54D11*
X391700Y451300D02*
X391700Y448100D01*
X371700Y448100D01*
X371700Y451300D01*
X391700Y451300D01*
G54D11*
X391700Y454500D02*
X371700Y454500D01*
G54D11*
G75*
G01X381000Y411800D02*
G03X381000Y411800I0J40000D01*
G01*
G54D11*
X381000Y454800D02*
X381000Y461800D01*
G54D11*
X381000Y447800D02*
X381000Y441800D01*
G54D15*
X358800Y425800D02*
X358800Y436500D01*
G54D15*
X363200Y431100D02*
X354300Y431100D01*
G54D14*
X357694Y441750D02*
X354361Y445083D01*
X363250Y445083D01*
G54D14*
X356028Y453527D02*
X361583Y453527D01*
X362694Y452861D01*
X363250Y451527D01*
X363250Y450194D01*
X362694Y448861D01*
X361583Y448194D01*
X356028Y448194D01*
X354917Y448861D01*
X354361Y450194D01*
X354361Y451527D01*
X354917Y452861D01*
X356028Y453527D01*
G54D14*
X358250Y460638D02*
X363250Y460638D01*
G54D14*
X362139Y460638D02*
X363028Y459971D01*
X363250Y458638D01*
X363028Y457305D01*
X362139Y456638D01*
X358250Y456638D01*
G54D14*
X363250Y463749D02*
X354361Y463749D01*
X354361Y468416D01*
G54D14*
X358806Y463749D02*
X358806Y468416D01*
G54D11*
X422300Y450800D02*
X441300Y450800D01*
X441300Y412800D01*
X422300Y412800D01*
X422300Y450800D01*
G54D11*
X431800Y450900D02*
X431800Y458800D01*
G54D11*
X431800Y412800D02*
X431800Y404900D01*
G54D12*
X435850Y421600D02*
X424294Y421600D01*
X431517Y416400D01*
X432961Y416400D01*
X432961Y423333D01*
G54D12*
X435850Y427377D02*
X435850Y427377D01*
G54D12*
X424294Y431421D02*
X424294Y438354D01*
X425739Y437488D01*
X427906Y435754D01*
X430794Y434021D01*
X432961Y433154D01*
X435850Y433154D01*
G54D12*
X435850Y442398D02*
X424294Y442398D01*
G54D12*
X431517Y444998D02*
X435850Y447598D01*
G54D12*
X432961Y442398D02*
X429350Y447598D01*
G54D11*
X302800Y451300D02*
X302800Y448100D01*
X282800Y448100D01*
X282800Y451300D01*
X302800Y451300D01*
G54D11*
X302800Y454500D02*
X282800Y454500D01*
G54D11*
G75*
G01X292100Y411800D02*
G03X292100Y411800I0J40000D01*
G01*
G54D11*
X292100Y454800D02*
X292100Y461800D01*
G54D11*
X292100Y447800D02*
X292100Y441800D01*
G54D15*
X269900Y425800D02*
X269900Y436500D01*
G54D15*
X274300Y431100D02*
X265400Y431100D01*
G54D14*
X268794Y441750D02*
X265461Y445083D01*
X274350Y445083D01*
G54D14*
X267128Y453527D02*
X272683Y453527D01*
X273794Y452861D01*
X274350Y451527D01*
X274350Y450194D01*
X273794Y448861D01*
X272683Y448194D01*
X267128Y448194D01*
X266017Y448861D01*
X265461Y450194D01*
X265461Y451527D01*
X266017Y452861D01*
X267128Y453527D01*
G54D14*
X267128Y461971D02*
X272683Y461971D01*
X273794Y461305D01*
X274350Y459971D01*
X274350Y458638D01*
X273794Y457305D01*
X272683Y456638D01*
X267128Y456638D01*
X266017Y457305D01*
X265461Y458638D01*
X265461Y459971D01*
X266017Y461305D01*
X267128Y461971D01*
G54D14*
X269350Y469082D02*
X274350Y469082D01*
G54D14*
X273239Y469082D02*
X274128Y468415D01*
X274350Y467082D01*
X274128Y465749D01*
X273239Y465082D01*
X269350Y465082D01*
G54D14*
X274350Y472193D02*
X265461Y472193D01*
X265461Y476860D01*
G54D14*
X269906Y472193D02*
X269906Y476860D01*
G54D11*
X325300Y404400D02*
X328500Y404400D01*
X328500Y384400D01*
X325300Y384400D01*
X325300Y404400D01*
G54D11*
X322100Y404400D02*
X322100Y384400D01*
G54D11*
G75*
G01X364800Y393700D02*
G03X364800Y393700I-40000J0D01*
G01*
G54D11*
X321800Y393700D02*
X314800Y393700D01*
G54D11*
X328800Y393700D02*
X334800Y393700D01*
G54D15*
X350800Y371500D02*
X340100Y371500D01*
G54D15*
X345500Y375900D02*
X345500Y367000D01*
G54D14*
X296750Y368806D02*
X300083Y372139D01*
X300083Y363250D01*
G54D14*
X308527Y370472D02*
X308527Y364917D01*
X307861Y363806D01*
X306527Y363250D01*
X305194Y363250D01*
X303861Y363806D01*
X303194Y364917D01*
X303194Y370472D01*
X303861Y371583D01*
X305194Y372139D01*
X306527Y372139D01*
X307861Y371583D01*
X308527Y370472D01*
G54D14*
X316971Y370472D02*
X316971Y364917D01*
X316305Y363806D01*
X314971Y363250D01*
X313638Y363250D01*
X312305Y363806D01*
X311638Y364917D01*
X311638Y370472D01*
X312305Y371583D01*
X313638Y372139D01*
X314971Y372139D01*
X316305Y371583D01*
X316971Y370472D01*
G54D14*
X324082Y368250D02*
X324082Y363250D01*
G54D14*
X324082Y364361D02*
X323415Y363472D01*
X322082Y363250D01*
X320749Y363472D01*
X320082Y364361D01*
X320082Y368250D01*
G54D14*
X327193Y363250D02*
X327193Y372139D01*
X331860Y372139D01*
G54D14*
X327193Y367694D02*
X331860Y367694D01*
G54D11*
X202000Y404400D02*
X202000Y433800D01*
G54D11*
G75*
G01X143588Y404172D02*
G03X176553Y387011I28512J14528D01*
G01*
G54D11*
G75*
G01X176000Y450461D02*
G03X144112Y434214I-3900J-31761D01*
G01*
G54D11*
G75*
G01X172100Y431700D02*
G03X172100Y431700I0J-12000D01*
G01*
G54D12*
X136606Y442200D02*
X132272Y446533D01*
X143828Y446533D01*
G54D12*
X143828Y450577D02*
X132272Y450577D01*
G54D12*
X139495Y453177D02*
X143828Y455777D01*
G54D12*
X140939Y450577D02*
X137328Y455777D01*
G54D11*
X-38100Y457200D02*
X-12700Y457200D01*
X-12700Y406400D01*
X-38100Y406400D01*
X-38100Y457200D01*
G54D12*
X7250Y394450D02*
X-4306Y398783D01*
X7250Y403117D01*
G54D12*
X2917Y396183D02*
X2917Y401383D01*
G54D12*
X7250Y407161D02*
X-4306Y407161D01*
X-4306Y413228D01*
G54D12*
X1472Y407161D02*
X1472Y413228D01*
G54D12*
X5517Y422472D02*
X2628Y422472D01*
X1183Y421605D01*
X750Y419872D01*
X1183Y418139D01*
X2628Y417272D01*
X5517Y417272D01*
X6961Y418139D01*
X7250Y419872D01*
X6961Y421605D01*
X5517Y422472D01*
G54D12*
X750Y431716D02*
X7250Y431716D01*
G54D12*
X5806Y431716D02*
X6961Y430849D01*
X7250Y429116D01*
X6961Y427383D01*
X5806Y426516D01*
X750Y426516D01*
G54D12*
X-4306Y437493D02*
X6528Y437493D01*
X7250Y438360D01*
X6961Y439227D01*
G54D12*
X750Y435760D02*
X750Y439227D01*
G54D11*
X254000Y393700D02*
X250900Y393700D01*
G54D11*
G75*
G01X254000Y393700D02*
G03X254000Y393700I12700J0D01*
G01*
G54D12*
X241959Y368295D02*
X246292Y372629D01*
X246292Y361073D01*
G54D12*
X257269Y370462D02*
X257269Y363240D01*
X256403Y361795D01*
X254669Y361073D01*
X252936Y361073D01*
X251203Y361795D01*
X250336Y363240D01*
X250336Y370462D01*
X251203Y371906D01*
X252936Y372629D01*
X254669Y372629D01*
X256403Y371906D01*
X257269Y370462D01*
G54D12*
X264780Y366851D02*
X267380Y365406D01*
X268246Y363962D01*
X268246Y361073D01*
G54D12*
X261313Y361073D02*
X261313Y372629D01*
X265646Y372629D01*
X267380Y371906D01*
X268246Y370462D01*
X268246Y369017D01*
X267380Y367573D01*
X265646Y366851D01*
X261313Y366851D01*
G54D11*
X736600Y546100D02*
X762000Y546100D01*
X762000Y495300D01*
X736600Y495300D01*
X736600Y546100D01*
G54D12*
X781950Y508750D02*
X770394Y513083D01*
X781950Y517417D01*
G54D12*
X777617Y510483D02*
X777617Y515683D01*
G54D12*
X781950Y521461D02*
X770394Y521461D01*
X770394Y527528D01*
G54D12*
X776172Y521461D02*
X776172Y527528D01*
G54D11*
X734300Y495300D02*
X734300Y520700D01*
X688100Y520700D01*
X688100Y495300D01*
X734300Y495300D01*
G54D11*
X712800Y500000D02*
X712800Y516000D01*
G54D11*
X709600Y500000D02*
X709600Y516000D01*
G54D11*
X712800Y508000D02*
X714400Y508000D01*
G54D11*
X709600Y508000D02*
X708000Y508000D01*
G54D12*
X653083Y510139D02*
X653083Y502917D01*
X652217Y501472D01*
X650483Y500750D01*
X648750Y500750D01*
X647017Y501472D01*
X646150Y502917D01*
X646150Y510139D01*
X647017Y511583D01*
X648750Y512306D01*
X650483Y512306D01*
X652217Y511583D01*
X653083Y510139D01*
G54D12*
X657127Y500750D02*
X657127Y500750D01*
G54D12*
X668104Y510139D02*
X668104Y502917D01*
X667238Y501472D01*
X665504Y500750D01*
X663771Y500750D01*
X662038Y501472D01*
X661171Y502917D01*
X661171Y510139D01*
X662038Y511583D01*
X663771Y512306D01*
X665504Y512306D01*
X667238Y511583D01*
X668104Y510139D01*
G54D12*
X672148Y507972D02*
X676481Y512306D01*
X676481Y500750D01*
G54D12*
X-43550Y971550D02*
X-43550Y983106D01*
G54D12*
X-43550Y975161D02*
X-36617Y983106D01*
G54D12*
X-40950Y977328D02*
X-36617Y971550D01*
G54D12*
X-26506Y971550D02*
X-32573Y971550D01*
X-32573Y983106D01*
X-26506Y983106D01*
G54D12*
X-32573Y977328D02*
X-26506Y977328D01*
G54D12*
X-22462Y983106D02*
X-18129Y977328D01*
X-18129Y971550D01*
G54D12*
X-18129Y977328D02*
X-13795Y983106D01*
G54D12*
X-5534Y971550D02*
X-5534Y978050D01*
G54D12*
X-5534Y980217D02*
X-5534Y980217D01*
G54D12*
X-1490Y971550D02*
X-1490Y978050D01*
G54D12*
X-1490Y976606D02*
X-623Y977617D01*
X1110Y978050D01*
X2843Y977617D01*
X3710Y976606D01*
X3710Y971550D01*
G54D11*
X662700Y800100D02*
X662700Y774700D01*
X734300Y774700D01*
X734300Y800100D01*
X662700Y800100D01*
G54D11*
X696900Y795400D02*
X696900Y779400D01*
G54D11*
X700100Y795400D02*
X700100Y779400D01*
G54D11*
X684200Y787400D02*
X696900Y787400D01*
G54D11*
X700100Y787400D02*
X712800Y787400D01*
G54D12*
X749712Y798956D02*
X742779Y798956D01*
X742779Y793900D01*
X743646Y793900D01*
X745379Y794622D01*
X747112Y794622D01*
X748846Y793900D01*
X749712Y792456D01*
X749712Y789567D01*
X748846Y788122D01*
X747112Y787400D01*
X745379Y787400D01*
X743646Y788122D01*
X742779Y789567D01*
G54D12*
X760689Y796789D02*
X759823Y798233D01*
X758089Y798956D01*
X756356Y798956D01*
X754623Y798233D01*
X753756Y796789D01*
X753756Y793178D01*
X753756Y792456D01*
X756356Y793900D01*
X758089Y793900D01*
X759823Y793178D01*
X760689Y791733D01*
X760689Y789567D01*
X759823Y788122D01*
X758089Y787400D01*
X756356Y787400D01*
X754623Y788122D01*
X753756Y789567D01*
X753756Y793178D01*
G54D12*
X764733Y793900D02*
X764733Y784511D01*
G54D12*
X764733Y789567D02*
X765600Y787689D01*
X767333Y787400D01*
X769066Y787689D01*
X769933Y789133D01*
X769933Y792022D01*
X769066Y793467D01*
X767333Y793900D01*
X765600Y793467D01*
X764733Y791733D01*
G54D11*
X590100Y404400D02*
X593300Y404400D01*
X593300Y384400D01*
X590100Y384400D01*
X590100Y404400D01*
G54D11*
X586900Y404400D02*
X586900Y384400D01*
G54D11*
G75*
G01X629600Y393700D02*
G03X629600Y393700I-40000J0D01*
G01*
G54D11*
X586600Y393700D02*
X579600Y393700D01*
G54D11*
X593600Y393700D02*
X599600Y393700D01*
G54D15*
X615600Y371500D02*
X604900Y371500D01*
G54D15*
X610300Y375900D02*
X610300Y367000D01*
G54D14*
X561550Y368806D02*
X564883Y372139D01*
X564883Y363250D01*
G54D14*
X573327Y370472D02*
X573327Y364917D01*
X572661Y363806D01*
X571327Y363250D01*
X569994Y363250D01*
X568661Y363806D01*
X567994Y364917D01*
X567994Y370472D01*
X568661Y371583D01*
X569994Y372139D01*
X571327Y372139D01*
X572661Y371583D01*
X573327Y370472D01*
G54D14*
X581771Y370472D02*
X581771Y364917D01*
X581105Y363806D01*
X579771Y363250D01*
X578438Y363250D01*
X577105Y363806D01*
X576438Y364917D01*
X576438Y370472D01*
X577105Y371583D01*
X578438Y372139D01*
X579771Y372139D01*
X581105Y371583D01*
X581771Y370472D01*
G54D14*
X588882Y368250D02*
X588882Y363250D01*
G54D14*
X588882Y364361D02*
X588215Y363472D01*
X586882Y363250D01*
X585549Y363472D01*
X584882Y364361D01*
X584882Y368250D01*
G54D14*
X591993Y363250D02*
X591993Y372139D01*
X596660Y372139D01*
G54D14*
X591993Y367694D02*
X596660Y367694D01*
G54D11*
X739800Y646100D02*
X739800Y674700D01*
X758800Y674700D01*
X758800Y646100D01*
X739800Y646100D01*
G54D12*
X728956Y655593D02*
X728956Y648660D01*
X728233Y648660D01*
X726789Y649526D01*
X722456Y654726D01*
X721011Y655593D01*
X719567Y655593D01*
X718122Y654726D01*
X717400Y652993D01*
X717400Y651260D01*
X718122Y649526D01*
X719567Y648660D01*
G54D12*
X728956Y666570D02*
X728956Y659637D01*
X728233Y659637D01*
X726789Y660503D01*
X722456Y665703D01*
X721011Y666570D01*
X719567Y666570D01*
X718122Y665703D01*
X717400Y663970D01*
X717400Y662237D01*
X718122Y660503D01*
X719567Y659637D01*
G54D12*
X719567Y677547D02*
X726789Y677547D01*
X728233Y676680D01*
X728956Y674947D01*
X728956Y673214D01*
X728233Y671480D01*
X726789Y670614D01*
X719567Y670614D01*
X718122Y671480D01*
X717400Y673214D01*
X717400Y674947D01*
X718122Y676680D01*
X719567Y677547D01*
G54D12*
X723178Y685057D02*
X724622Y687657D01*
X726067Y688524D01*
X728956Y688524D01*
G54D12*
X728956Y681591D02*
X717400Y681591D01*
X717400Y685924D01*
X718122Y687657D01*
X719567Y688524D01*
X721011Y688524D01*
X722456Y687657D01*
X723178Y685924D01*
X723178Y681591D01*
G54D11*
X117500Y633400D02*
X117500Y662000D01*
X136500Y662000D01*
X136500Y633400D01*
X117500Y633400D01*
G54D12*
X106656Y642893D02*
X106656Y635960D01*
X105933Y635960D01*
X104489Y636826D01*
X100156Y642026D01*
X98711Y642893D01*
X97267Y642893D01*
X95822Y642026D01*
X95100Y640293D01*
X95100Y638560D01*
X95822Y636826D01*
X97267Y635960D01*
G54D12*
X106656Y653870D02*
X106656Y646937D01*
X105933Y646937D01*
X104489Y647803D01*
X100156Y653003D01*
X98711Y653870D01*
X97267Y653870D01*
X95822Y653003D01*
X95100Y651270D01*
X95100Y649537D01*
X95822Y647803D01*
X97267Y646937D01*
G54D12*
X97267Y664847D02*
X104489Y664847D01*
X105933Y663980D01*
X106656Y662247D01*
X106656Y660514D01*
X105933Y658780D01*
X104489Y657914D01*
X97267Y657914D01*
X95822Y658780D01*
X95100Y660514D01*
X95100Y662247D01*
X95822Y663980D01*
X97267Y664847D01*
G54D12*
X100878Y672357D02*
X102322Y674957D01*
X103767Y675824D01*
X106656Y675824D01*
G54D12*
X106656Y668891D02*
X95100Y668891D01*
X95100Y673224D01*
X95822Y674957D01*
X97267Y675824D01*
X98711Y675824D01*
X100156Y674957D01*
X100878Y673224D01*
X100878Y668891D01*
G54D11*
X244500Y557200D02*
X244500Y585800D01*
X263500Y585800D01*
X263500Y557200D01*
X244500Y557200D01*
G54D12*
X259056Y515893D02*
X259056Y508960D01*
X258333Y508960D01*
X256889Y509826D01*
X252556Y515026D01*
X251111Y515893D01*
X249667Y515893D01*
X248222Y515026D01*
X247500Y513293D01*
X247500Y511560D01*
X248222Y509826D01*
X249667Y508960D01*
G54D12*
X259056Y519937D02*
X259056Y519937D01*
G54D12*
X259056Y530914D02*
X259056Y523981D01*
X258333Y523981D01*
X256889Y524847D01*
X252556Y530047D01*
X251111Y530914D01*
X249667Y530914D01*
X248222Y530047D01*
X247500Y528314D01*
X247500Y526581D01*
X248222Y524847D01*
X249667Y523981D01*
G54D12*
X259056Y534958D02*
X247500Y534958D01*
G54D12*
X254722Y537558D02*
X259056Y540158D01*
G54D12*
X256167Y534958D02*
X252556Y540158D01*
G54D11*
X241300Y698500D02*
X241300Y723900D01*
X266700Y723900D01*
X266700Y698500D01*
X241300Y698500D01*
G54D19*
X-34100Y476567D02*
X-30100Y476567D01*
X-30100Y472400D01*
X-31100Y470733D01*
X-33100Y469900D01*
X-35100Y469900D01*
X-37100Y470733D01*
X-38100Y472400D01*
X-38100Y480733D01*
X-37100Y482400D01*
X-35100Y483233D01*
X-33100Y483233D01*
X-31100Y482400D01*
X-30100Y480733D01*
G54D19*
X-26433Y469900D02*
X-26433Y483233D01*
X-18433Y469900D01*
X-18433Y483233D01*
G54D19*
X-14766Y469900D02*
X-14766Y483233D01*
X-9766Y483233D01*
X-7766Y482400D01*
X-6766Y480733D01*
X-6766Y472400D01*
X-7766Y470733D01*
X-9766Y469900D01*
X-14766Y469900D01*
G54D19*
X-34100Y717867D02*
X-30100Y717867D01*
X-30100Y713700D01*
X-31100Y712033D01*
X-33100Y711200D01*
X-35100Y711200D01*
X-37100Y712033D01*
X-38100Y713700D01*
X-38100Y722033D01*
X-37100Y723700D01*
X-35100Y724533D01*
X-33100Y724533D01*
X-31100Y723700D01*
X-30100Y722033D01*
G54D19*
X-26433Y711200D02*
X-26433Y724533D01*
X-18433Y711200D01*
X-18433Y724533D01*
G54D19*
X-14766Y711200D02*
X-14766Y724533D01*
X-9766Y724533D01*
X-7766Y723700D01*
X-6766Y722033D01*
X-6766Y713700D01*
X-7766Y712033D01*
X-9766Y711200D01*
X-14766Y711200D01*
G54D19*
X-34100Y933767D02*
X-30100Y933767D01*
X-30100Y929600D01*
X-31100Y927933D01*
X-33100Y927100D01*
X-35100Y927100D01*
X-37100Y927933D01*
X-38100Y929600D01*
X-38100Y937933D01*
X-37100Y939600D01*
X-35100Y940433D01*
X-33100Y940433D01*
X-31100Y939600D01*
X-30100Y937933D01*
G54D19*
X-26433Y927100D02*
X-26433Y940433D01*
X-18433Y927100D01*
X-18433Y940433D01*
G54D19*
X-14766Y927100D02*
X-14766Y940433D01*
X-9766Y940433D01*
X-7766Y939600D01*
X-6766Y937933D01*
X-6766Y929600D01*
X-7766Y927933D01*
X-9766Y927100D01*
X-14766Y927100D01*
G54D19*
X-8700Y1009967D02*
X-4700Y1009967D01*
X-4700Y1005800D01*
X-5700Y1004133D01*
X-7700Y1003300D01*
X-9700Y1003300D01*
X-11700Y1004133D01*
X-12700Y1005800D01*
X-12700Y1014133D01*
X-11700Y1015800D01*
X-9700Y1016633D01*
X-7700Y1016633D01*
X-5700Y1015800D01*
X-4700Y1014133D01*
G54D19*
X-1033Y1003300D02*
X-1033Y1016633D01*
X6967Y1003300D01*
X6967Y1016633D01*
G54D19*
X10634Y1003300D02*
X10634Y1016633D01*
X15634Y1016633D01*
X17634Y1015800D01*
X18634Y1014133D01*
X18634Y1005800D01*
X17634Y1004133D01*
X15634Y1003300D01*
X10634Y1003300D01*
G54D19*
X207200Y1009967D02*
X211200Y1009967D01*
X211200Y1005800D01*
X210200Y1004133D01*
X208200Y1003300D01*
X206200Y1003300D01*
X204200Y1004133D01*
X203200Y1005800D01*
X203200Y1014133D01*
X204200Y1015800D01*
X206200Y1016633D01*
X208200Y1016633D01*
X210200Y1015800D01*
X211200Y1014133D01*
G54D19*
X214867Y1003300D02*
X214867Y1016633D01*
X222867Y1003300D01*
X222867Y1016633D01*
G54D19*
X226534Y1003300D02*
X226534Y1016633D01*
X231534Y1016633D01*
X233534Y1015800D01*
X234534Y1014133D01*
X234534Y1005800D01*
X233534Y1004133D01*
X231534Y1003300D01*
X226534Y1003300D01*
G54D19*
X918400Y882967D02*
X922400Y882967D01*
X922400Y878800D01*
X921400Y877133D01*
X919400Y876300D01*
X917400Y876300D01*
X915400Y877133D01*
X914400Y878800D01*
X914400Y887133D01*
X915400Y888800D01*
X917400Y889633D01*
X919400Y889633D01*
X921400Y888800D01*
X922400Y887133D01*
G54D19*
X926067Y876300D02*
X926067Y889633D01*
X934067Y876300D01*
X934067Y889633D01*
G54D19*
X937734Y876300D02*
X937734Y889633D01*
X942734Y889633D01*
X944734Y888800D01*
X945734Y887133D01*
X945734Y878800D01*
X944734Y877133D01*
X942734Y876300D01*
X937734Y876300D01*
G54D19*
X905700Y514667D02*
X909700Y514667D01*
X909700Y510500D01*
X908700Y508833D01*
X906700Y508000D01*
X904700Y508000D01*
X902700Y508833D01*
X901700Y510500D01*
X901700Y518833D01*
X902700Y520500D01*
X904700Y521333D01*
X906700Y521333D01*
X908700Y520500D01*
X909700Y518833D01*
G54D19*
X913367Y508000D02*
X913367Y521333D01*
X921367Y508000D01*
X921367Y521333D01*
G54D19*
X925034Y508000D02*
X925034Y521333D01*
X930034Y521333D01*
X932034Y520500D01*
X933034Y518833D01*
X933034Y510500D01*
X932034Y508833D01*
X930034Y508000D01*
X925034Y508000D01*
G54D19*
X258000Y768667D02*
X262000Y768667D01*
X262000Y764500D01*
X261000Y762833D01*
X259000Y762000D01*
X257000Y762000D01*
X255000Y762833D01*
X254000Y764500D01*
X254000Y772833D01*
X255000Y774500D01*
X257000Y775333D01*
X259000Y775333D01*
X261000Y774500D01*
X262000Y772833D01*
G54D19*
X265667Y762000D02*
X265667Y775333D01*
X273667Y762000D01*
X273667Y775333D01*
G54D19*
X277334Y762000D02*
X277334Y775333D01*
X282334Y775333D01*
X284334Y774500D01*
X285334Y772833D01*
X285334Y764500D01*
X284334Y762833D01*
X282334Y762000D01*
X277334Y762000D01*
G54D19*
X639000Y717867D02*
X643000Y717867D01*
X643000Y713700D01*
X642000Y712033D01*
X640000Y711200D01*
X638000Y711200D01*
X636000Y712033D01*
X635000Y713700D01*
X635000Y722033D01*
X636000Y723700D01*
X638000Y724533D01*
X640000Y724533D01*
X642000Y723700D01*
X643000Y722033D01*
G54D19*
X646667Y711200D02*
X646667Y724533D01*
X654667Y711200D01*
X654667Y724533D01*
G54D19*
X658334Y711200D02*
X658334Y724533D01*
X663334Y724533D01*
X665334Y723700D01*
X666334Y722033D01*
X666334Y713700D01*
X665334Y712033D01*
X663334Y711200D01*
X658334Y711200D01*
G54D11*
X774700Y812800D02*
X774700Y838200D01*
X800100Y838200D01*
X800100Y812800D01*
X774700Y812800D01*
G54D11*
X139700Y698500D02*
X139700Y723900D01*
X190500Y723900D01*
X190500Y698500D01*
X139700Y698500D01*
G54D12*
X151650Y680350D02*
X151650Y691906D01*
X155983Y691906D01*
X157717Y691183D01*
X158583Y689739D01*
X158583Y688294D01*
X157717Y686850D01*
X155983Y686128D01*
X157717Y685406D01*
X158583Y683961D01*
X158583Y682517D01*
X157717Y681072D01*
X155983Y680350D01*
X151650Y680350D01*
G54D12*
X151650Y686128D02*
X155983Y686128D01*
G54D12*
X162627Y680350D02*
X162627Y691906D01*
X166960Y691906D01*
X168694Y691183D01*
X169560Y689739D01*
X169560Y688294D01*
X168694Y686850D01*
X166960Y686128D01*
X162627Y686128D01*
G54D12*
X173604Y680350D02*
X173604Y691906D01*
X179671Y691906D01*
G54D12*
X173604Y686128D02*
X179671Y686128D01*
G54D11*
X139700Y723900D02*
X139700Y749300D01*
X190500Y749300D01*
X190500Y723900D01*
X139700Y723900D01*
G54D12*
X290645Y782593D02*
X297578Y782593D01*
G54D12*
X294112Y785482D02*
X294112Y779704D01*
G54D12*
X301622Y784760D02*
X305955Y789093D01*
X305955Y777538D01*
G54D12*
X316932Y777538D02*
X309999Y777538D01*
X309999Y778260D01*
X310866Y779704D01*
X316066Y784038D01*
X316932Y785482D01*
X316932Y786927D01*
X316066Y788371D01*
X314332Y789093D01*
X312599Y789093D01*
X310866Y788371D01*
X309999Y786927D01*
G54D12*
X320976Y789093D02*
X325309Y777538D01*
X329643Y789093D01*
G54D12*
X337904Y777538D02*
X337904Y784038D01*
G54D12*
X337904Y786204D02*
X337904Y786204D01*
G54D12*
X341948Y777538D02*
X341948Y784038D01*
G54D12*
X341948Y782593D02*
X342815Y783604D01*
X344548Y784038D01*
X346281Y783604D01*
X347148Y782593D01*
X347148Y777538D01*
G54D11*
X774700Y812800D02*
X774700Y838200D01*
X800100Y838200D01*
X800100Y812800D01*
X774700Y812800D01*
G54D11*
X914400Y838200D02*
X914400Y863600D01*
X939800Y863600D01*
X939800Y838200D01*
X914400Y838200D01*
G54D11*
X863600Y508000D02*
X863600Y533400D01*
X889000Y533400D01*
X889000Y508000D01*
X863600Y508000D01*
G54D11*
X838200Y520700D02*
X838200Y546100D01*
X863600Y546100D01*
X863600Y520700D01*
X838200Y520700D01*
G54D12*
X799350Y502550D02*
X799350Y514106D01*
X803683Y514106D01*
X805417Y513383D01*
X806283Y511939D01*
X806283Y510494D01*
X805417Y509050D01*
X803683Y508328D01*
X805417Y507606D01*
X806283Y506161D01*
X806283Y504717D01*
X805417Y503272D01*
X803683Y502550D01*
X799350Y502550D01*
G54D12*
X799350Y508328D02*
X803683Y508328D01*
G54D12*
X810327Y502550D02*
X810327Y514106D01*
X816394Y514106D01*
G54D12*
X810327Y508328D02*
X816394Y508328D01*
G54D12*
X827371Y511939D02*
X827371Y504717D01*
X826505Y503272D01*
X824771Y502550D01*
X823038Y502550D01*
X821305Y503272D01*
X820438Y504717D01*
X820438Y511939D01*
X821305Y513383D01*
X823038Y514106D01*
X824771Y514106D01*
X826505Y513383D01*
X827371Y511939D01*
G54D12*
X840832Y504283D02*
X840832Y507172D01*
X839965Y508617D01*
X838232Y509050D01*
X836499Y508617D01*
X835632Y507172D01*
X835632Y504283D01*
X836499Y502839D01*
X838232Y502550D01*
X839965Y502839D01*
X840832Y504283D01*
G54D12*
X844876Y503272D02*
X846609Y502550D01*
X848343Y502550D01*
X850076Y503272D01*
X850076Y504717D01*
X849209Y505439D01*
X845743Y506161D01*
X844876Y506883D01*
X844876Y508328D01*
X846609Y509050D01*
X848343Y509050D01*
X850076Y508328D01*
G54D12*
X858453Y508617D02*
X856720Y509050D01*
X854987Y508617D01*
X854120Y507172D01*
X854120Y504283D01*
X854987Y502839D01*
X856720Y502550D01*
X858453Y502839D01*
G54D11*
X381000Y863600D02*
X384100Y863600D01*
G54D11*
G75*
G01X381000Y863600D02*
G03X381000Y863600I-12700J0D01*
G01*
G54D12*
X367641Y839949D02*
X371974Y844283D01*
X371974Y832727D01*
G54D12*
X380351Y838505D02*
X378618Y838505D01*
X376885Y839227D01*
X376018Y840671D01*
X376018Y842116D01*
X376885Y843560D01*
X378618Y844283D01*
X380351Y844283D01*
X382085Y843560D01*
X382951Y842116D01*
X382951Y840671D01*
X382085Y839227D01*
X380351Y838505D01*
X382085Y837783D01*
X382951Y836338D01*
X382951Y834894D01*
X382085Y833449D01*
X380351Y832727D01*
X378618Y832727D01*
X376885Y833449D01*
X376018Y834894D01*
X376018Y836338D01*
X376885Y837783D01*
X378618Y838505D01*
G54D12*
X390462Y838505D02*
X393062Y837060D01*
X393928Y835616D01*
X393928Y832727D01*
G54D12*
X386995Y832727D02*
X386995Y844283D01*
X391328Y844283D01*
X393062Y843560D01*
X393928Y842116D01*
X393928Y840671D01*
X393062Y839227D01*
X391328Y838505D01*
X386995Y838505D01*
M02*
