%FSLAX34Y34*%
%MOMM*%
%LNSOLDERMASK_TOP*%
G71*
G01*
%ADD10C, 0.00*%
%ADD11C, 2.40*%
%ADD12C, 3.60*%
%ADD13C, 2.12*%
%ADD14C, 3.60*%
%ADD15C, 3.60*%
%LPD*%
G54D10*
X-50000Y1050000D02*
X950000Y1050000D01*
X950000Y350000D01*
X-50000Y350000D01*
X-50000Y1050000D01*
X-25400Y1028700D02*
G54D11*
D03*
X-25400Y1028700D02*
G54D11*
D03*
X-25400Y1028700D02*
G54D11*
D03*
X927100Y1028700D02*
G54D12*
D03*
X927100Y368300D02*
G54D12*
D03*
X-25400Y368300D02*
G54D12*
D03*
X-25400Y1028700D02*
G54D12*
D03*
X12700Y914400D02*
G54D13*
D03*
X203200Y838200D02*
G54D13*
D03*
X228600Y838200D02*
G54D13*
D03*
X566178Y978299D02*
G54D13*
D03*
X-25400Y965200D02*
G54D13*
D03*
X0Y965200D02*
G54D13*
D03*
X12700Y889000D02*
G54D13*
D03*
X38100Y889000D02*
G54D13*
D03*
X38100Y914400D02*
G54D13*
D03*
X63500Y889000D02*
G54D13*
D03*
X88900Y889000D02*
G54D13*
D03*
X114300Y914400D02*
G54D13*
D03*
X114300Y889000D02*
G54D13*
D03*
X139700Y889000D02*
G54D13*
D03*
X165100Y889000D02*
G54D13*
D03*
X190500Y889000D02*
G54D13*
D03*
X215900Y889000D02*
G54D13*
D03*
X190500Y914400D02*
G54D13*
D03*
X177800Y952500D02*
G54D13*
D03*
X145766Y952171D02*
G54D13*
D03*
X133066Y966171D02*
G54D13*
D03*
X145766Y980171D02*
G54D13*
D03*
X101600Y965200D02*
G54D13*
D03*
X76200Y965200D02*
G54D13*
D03*
X50800Y965200D02*
G54D13*
D03*
X12700Y774700D02*
G54D13*
D03*
X-25400Y749300D02*
G54D13*
D03*
X63500Y774700D02*
G54D13*
D03*
X88900Y774700D02*
G54D13*
D03*
X114300Y774700D02*
G54D13*
D03*
X145766Y775671D02*
G54D13*
D03*
X158466Y789671D02*
G54D13*
D03*
X158470Y761670D02*
G54D13*
D03*
X254000Y863600D02*
G54D13*
D03*
X266700Y889000D02*
G54D13*
D03*
X266700Y914400D02*
G54D13*
D03*
X292100Y927100D02*
G54D13*
D03*
X292100Y952500D02*
G54D13*
D03*
X310866Y903971D02*
G54D13*
D03*
X298166Y889971D02*
G54D13*
D03*
X310866Y875971D02*
G54D13*
D03*
X279400Y863600D02*
G54D13*
D03*
X342900Y863600D02*
G54D13*
D03*
X342900Y889000D02*
G54D13*
D03*
X342900Y914400D02*
G54D13*
D03*
X342900Y939800D02*
G54D13*
D03*
X215900Y990600D02*
G54D13*
D03*
X254000Y990600D02*
G54D13*
D03*
X254000Y965200D02*
G54D13*
D03*
X228600Y952500D02*
G54D13*
D03*
X393700Y990600D02*
G54D13*
D03*
X444500Y965200D02*
G54D13*
D03*
X444500Y990600D02*
G54D13*
D03*
X520700Y977900D02*
G54D13*
D03*
X540778Y978299D02*
G54D13*
D03*
X520700Y952500D02*
G54D13*
D03*
X495300Y977900D02*
G54D13*
D03*
X444500Y914400D02*
G54D13*
D03*
X444500Y939800D02*
G54D13*
D03*
X419100Y939800D02*
G54D13*
D03*
X419100Y914400D02*
G54D13*
D03*
X393700Y939800D02*
G54D13*
D03*
X387066Y916671D02*
G54D13*
D03*
X374366Y902671D02*
G54D13*
D03*
X387066Y888671D02*
G54D13*
D03*
X419100Y889000D02*
G54D13*
D03*
X444500Y876300D02*
G54D13*
D03*
X444500Y850900D02*
G54D13*
D03*
X419100Y863600D02*
G54D13*
D03*
X393700Y863600D02*
G54D13*
D03*
X330200Y762000D02*
G54D13*
D03*
X394085Y774935D02*
G54D13*
D03*
X368300Y749300D02*
G54D13*
D03*
X470285Y774935D02*
G54D13*
D03*
X521085Y774935D02*
G54D13*
D03*
X571885Y774935D02*
G54D13*
D03*
X635000Y762000D02*
G54D13*
D03*
X673100Y762000D02*
G54D13*
D03*
X723900Y762000D02*
G54D13*
D03*
X762000Y762000D02*
G54D13*
D03*
X800100Y762000D02*
G54D13*
D03*
X673100Y787400D02*
G54D13*
D03*
X723900Y787400D02*
G54D13*
D03*
X850900Y762000D02*
G54D13*
D03*
X889000Y762000D02*
G54D13*
D03*
X927100Y850900D02*
G54D13*
D03*
X927100Y825500D02*
G54D13*
D03*
X889000Y736600D02*
G54D13*
D03*
X762000Y736600D02*
G54D13*
D03*
X635000Y736600D02*
G54D13*
D03*
X609600Y698500D02*
G54D13*
D03*
X571885Y698735D02*
G54D13*
D03*
X521085Y698735D02*
G54D13*
D03*
X470285Y698735D02*
G54D13*
D03*
X394085Y698735D02*
G54D13*
D03*
X368300Y698500D02*
G54D13*
D03*
X127000Y673100D02*
G54D13*
D03*
X127000Y622300D02*
G54D13*
D03*
X127000Y596900D02*
G54D13*
D03*
X152400Y596900D02*
G54D13*
D03*
X101600Y596900D02*
G54D13*
D03*
X101600Y571500D02*
G54D13*
D03*
X101600Y546100D02*
G54D13*
D03*
X127000Y546100D02*
G54D13*
D03*
X152400Y546100D02*
G54D13*
D03*
X101600Y520700D02*
G54D13*
D03*
X25400Y596900D02*
G54D13*
D03*
X25400Y571500D02*
G54D13*
D03*
X25400Y546100D02*
G54D13*
D03*
X25400Y520700D02*
G54D13*
D03*
X0Y571500D02*
G54D13*
D03*
X0Y596900D02*
G54D13*
D03*
X-25400Y571500D02*
G54D13*
D03*
X-25400Y596900D02*
G54D13*
D03*
X-25400Y419100D02*
G54D13*
D03*
X-25400Y368300D02*
G54D13*
D03*
X-25400Y1028700D02*
G54D13*
D03*
X927100Y1028700D02*
G54D13*
D03*
X927100Y368300D02*
G54D13*
D03*
X888200Y697700D02*
G54D14*
D03*
X888200Y597700D02*
G54D14*
D03*
X899300Y558800D02*
G54D13*
D03*
X838200Y647700D02*
G54D14*
D03*
X800100Y673100D02*
G54D13*
D03*
X800100Y647700D02*
G54D13*
D03*
X876300Y876300D02*
G54D13*
D03*
X876300Y850900D02*
G54D13*
D03*
X927100Y914400D02*
G54D13*
D03*
X927100Y939800D02*
G54D13*
D03*
X876300Y965200D02*
G54D13*
D03*
X876300Y990600D02*
G54D13*
D03*
X850900Y990600D02*
G54D13*
D03*
X800100Y927100D02*
G54D13*
D03*
X825500Y901700D02*
G54D13*
D03*
X800100Y876300D02*
G54D13*
D03*
X723900Y850900D02*
G54D13*
D03*
X698500Y850900D02*
G54D15*
D03*
X673100Y901700D02*
G54D15*
D03*
X723900Y901700D02*
G54D13*
D03*
X711200Y965200D02*
G54D13*
D03*
X749300Y965200D02*
G54D13*
D03*
X711200Y990600D02*
G54D13*
D03*
X660400Y992500D02*
G54D13*
D03*
X660400Y952500D02*
G54D13*
D03*
X584200Y939800D02*
G54D13*
D03*
X596900Y965200D02*
G54D13*
D03*
X558800Y939800D02*
G54D13*
D03*
X533400Y876300D02*
G54D13*
D03*
X508000Y850900D02*
G54D13*
D03*
X571500Y901700D02*
G54D13*
D03*
X596900Y876300D02*
G54D13*
D03*
X622300Y901700D02*
G54D13*
D03*
X622300Y876300D02*
G54D13*
D03*
X622300Y850900D02*
G54D13*
D03*
X596900Y850900D02*
G54D13*
D03*
X647700Y850900D02*
G54D15*
D03*
X139700Y419100D02*
G54D15*
D03*
X190500Y393700D02*
G54D15*
D03*
X190500Y444500D02*
G54D15*
D03*
X241300Y393700D02*
G54D13*
D03*
X266700Y393700D02*
G54D13*
D03*
X304800Y393700D02*
G54D13*
D03*
X292100Y431800D02*
G54D13*
D03*
X292100Y471800D02*
G54D13*
D03*
X381000Y471800D02*
G54D13*
D03*
X381000Y431800D02*
G54D13*
D03*
X344800Y393700D02*
G54D13*
D03*
X388726Y395177D02*
G54D13*
D03*
X414126Y395177D02*
G54D13*
D03*
X431800Y393700D02*
G54D13*
D03*
X457051Y393690D02*
G54D13*
D03*
X533251Y393690D02*
G54D13*
D03*
X569600Y393700D02*
G54D13*
D03*
X609600Y393700D02*
G54D13*
D03*
X615666Y444171D02*
G54D13*
D03*
X615666Y472171D02*
G54D13*
D03*
X602966Y458171D02*
G54D13*
D03*
X533251Y419090D02*
G54D13*
D03*
X533251Y444491D02*
G54D13*
D03*
X533250Y469890D02*
G54D13*
D03*
X457051Y469890D02*
G54D13*
D03*
X457051Y444491D02*
G54D13*
D03*
X457051Y419090D02*
G54D13*
D03*
X431800Y469900D02*
G54D13*
D03*
X481750Y534950D02*
G54D13*
D03*
X418250Y534950D02*
G54D13*
D03*
X457200Y622300D02*
G54D13*
D03*
X457200Y647700D02*
G54D13*
D03*
X393700Y647700D02*
G54D13*
D03*
X393700Y622300D02*
G54D13*
D03*
X418250Y583350D02*
G54D13*
D03*
X354750Y583350D02*
G54D13*
D03*
X330200Y622300D02*
G54D13*
D03*
X330200Y647700D02*
G54D13*
D03*
X254000Y596900D02*
G54D13*
D03*
X291250Y583350D02*
G54D13*
D03*
X291250Y534950D02*
G54D13*
D03*
X254000Y546100D02*
G54D13*
D03*
X209266Y571171D02*
G54D13*
D03*
X196566Y585171D02*
G54D13*
D03*
X209266Y599171D02*
G54D13*
D03*
X520700Y533400D02*
G54D13*
D03*
X520700Y571500D02*
G54D13*
D03*
X481750Y583350D02*
G54D13*
D03*
X520700Y596900D02*
G54D13*
D03*
X584200Y649600D02*
G54D13*
D03*
X584200Y609600D02*
G54D13*
D03*
X584200Y558800D02*
G54D13*
D03*
X584200Y533400D02*
G54D13*
D03*
X546100Y533400D02*
G54D13*
D03*
X647700Y609600D02*
G54D13*
D03*
X647700Y584200D02*
G54D13*
D03*
X647700Y558800D02*
G54D13*
D03*
X647700Y533400D02*
G54D13*
D03*
X723900Y533400D02*
G54D13*
D03*
X723900Y558800D02*
G54D13*
D03*
X723900Y584200D02*
G54D13*
D03*
X723900Y609600D02*
G54D13*
D03*
X749300Y609600D02*
G54D13*
D03*
X749300Y635000D02*
G54D13*
D03*
X749300Y685800D02*
G54D13*
D03*
X774700Y609600D02*
G54D13*
D03*
X774700Y584200D02*
G54D13*
D03*
X774700Y558800D02*
G54D13*
D03*
X749300Y584200D02*
G54D13*
D03*
X749300Y558800D02*
G54D13*
D03*
X800100Y558800D02*
G54D13*
D03*
X800100Y584200D02*
G54D13*
D03*
X850900Y558800D02*
G54D13*
D03*
X914400Y457200D02*
G54D13*
D03*
X889000Y457200D02*
G54D13*
D03*
X838200Y457200D02*
G54D13*
D03*
X812800Y457200D02*
G54D13*
D03*
X812800Y482600D02*
G54D13*
D03*
X774700Y482600D02*
G54D13*
D03*
X774700Y457200D02*
G54D13*
D03*
X749300Y508000D02*
G54D13*
D03*
X723900Y508000D02*
G54D13*
D03*
X698500Y508000D02*
G54D13*
D03*
X698500Y469900D02*
G54D13*
D03*
X698500Y444500D02*
G54D13*
D03*
X673100Y444500D02*
G54D13*
D03*
X673100Y469900D02*
G54D13*
D03*
X647700Y469900D02*
G54D13*
D03*
X647700Y444500D02*
G54D13*
D03*
G36*
X-36000Y1001200D02*
X-14800Y1001200D01*
X-14800Y980000D01*
X-36000Y980000D01*
X-36000Y1001200D01*
G37*
G36*
X-36000Y925000D02*
X-14800Y925000D01*
X-14800Y903800D01*
X-36000Y903800D01*
X-36000Y925000D01*
G37*
G36*
X179900Y1001200D02*
X201100Y1001200D01*
X201100Y980000D01*
X179900Y980000D01*
X179900Y1001200D01*
G37*
G36*
X218000Y925000D02*
X239200Y925000D01*
X239200Y903800D01*
X218000Y903800D01*
X218000Y925000D01*
G37*
G36*
X218000Y848800D02*
X239200Y848800D01*
X239200Y827600D01*
X218000Y827600D01*
X218000Y848800D01*
G37*
G36*
X192600Y848800D02*
X213800Y848800D01*
X213800Y827600D01*
X192600Y827600D01*
X192600Y848800D01*
G37*
G36*
X484700Y963100D02*
X505900Y963100D01*
X505900Y941900D01*
X484700Y941900D01*
X484700Y963100D01*
G37*
G36*
X840300Y975800D02*
X861500Y975800D01*
X861500Y954600D01*
X840300Y954600D01*
X840300Y975800D01*
G37*
G36*
X738700Y1001200D02*
X759900Y1001200D01*
X759900Y980000D01*
X738700Y980000D01*
X738700Y1001200D01*
G37*
G36*
X586300Y1001200D02*
X607500Y1001200D01*
X607500Y980000D01*
X586300Y980000D01*
X586300Y1001200D01*
G37*
G36*
X599000Y734500D02*
X620200Y734500D01*
X620200Y713300D01*
X599000Y713300D01*
X599000Y734500D01*
G37*
G36*
X294200Y772600D02*
X315400Y772600D01*
X315400Y751400D01*
X294200Y751400D01*
X294200Y772600D01*
G37*
G36*
X-36000Y785300D02*
X-14800Y785300D01*
X-14800Y764100D01*
X-36000Y764100D01*
X-36000Y785300D01*
G37*
G36*
X243400Y721800D02*
X264600Y721800D01*
X264600Y700600D01*
X243400Y700600D01*
X243400Y721800D01*
G37*
G36*
X218000Y683700D02*
X239200Y683700D01*
X239200Y662500D01*
X218000Y662500D01*
X218000Y683700D01*
G37*
G36*
X218000Y658300D02*
X239200Y658300D01*
X239200Y637100D01*
X218000Y637100D01*
X218000Y658300D01*
G37*
G36*
X192600Y658300D02*
X213800Y658300D01*
X213800Y637100D01*
X192600Y637100D01*
X192600Y658300D01*
G37*
G36*
X243400Y721800D02*
X264600Y721800D01*
X264600Y700600D01*
X243400Y700600D01*
X243400Y721800D01*
G37*
G36*
X637100Y683700D02*
X658300Y683700D01*
X658300Y662500D01*
X637100Y662500D01*
X637100Y683700D01*
G37*
G36*
X-36000Y455100D02*
X-14800Y455100D01*
X-14800Y433900D01*
X-36000Y433900D01*
X-36000Y455100D01*
G37*
G36*
X738700Y544000D02*
X759900Y544000D01*
X759900Y522800D01*
X738700Y522800D01*
X738700Y544000D01*
G37*
G36*
X903800Y493200D02*
X925000Y493200D01*
X925000Y472000D01*
X903800Y472000D01*
X903800Y493200D01*
G37*
X354750Y534950D02*
G54D13*
D03*
G36*
X776800Y836100D02*
X798000Y836100D01*
X798000Y814900D01*
X776800Y814900D01*
X776800Y836100D01*
G37*
G36*
X776800Y836100D02*
X798000Y836100D01*
X798000Y814900D01*
X776800Y814900D01*
X776800Y836100D01*
G37*
X177800Y736600D02*
G54D13*
D03*
X152400Y711200D02*
G54D13*
D03*
X177800Y711200D02*
G54D13*
D03*
G36*
X865700Y531300D02*
X886900Y531300D01*
X886900Y510100D01*
X865700Y510100D01*
X865700Y531300D01*
G37*
G36*
X840300Y544000D02*
X861500Y544000D01*
X861500Y522800D01*
X840300Y522800D01*
X840300Y544000D01*
G37*
X152400Y736600D02*
G54D13*
D03*
X368300Y863600D02*
G54D13*
D03*
X393700Y863600D02*
G54D13*
D03*
X508000Y901700D02*
G54D13*
D03*
X-25400Y889000D02*
G54D13*
D03*
X279400Y889000D02*
G54D13*
D03*
M02*
