%FSLAX34Y34*%
%MOMM*%
%LNSILK_TOP*%
G71*
G01*
%ADD10C, 0.00*%
%ADD11C, 1.52*%
%ADD12C, 1.80*%
%ADD13C, 0.80*%
%ADD14C, 1.28*%
%ADD15C, 2.00*%
%ADD16C, 1.70*%
%ADD17C, 1.28*%
%ADD18C, 3.00*%
%ADD19C, 1.70*%
%ADD20C, 1.60*%
%ADD21C, 2.20*%
%ADD22C, 1.52*%
%ADD23C, 2.00*%
%ADD24C, 3.00*%
%ADD25C, 3.00*%
%ADD26C, 0.22*%
%ADD27C, 0.60*%
%ADD28C, 0.52*%
%ADD29C, 0.70*%
%ADD30C, 0.72*%
%ADD31C, 1.50*%
%ADD32C, 1.00*%
%ADD33C, 1.70*%
%ADD34C, 1.40*%
%ADD35C, 0.69*%
%LPD*%
G54D10*
X-50000Y1050000D02*
X950000Y1050000D01*
X950000Y350000D01*
X-50000Y350000D01*
X-50000Y1050000D01*
G36*
X-17800Y998200D02*
X-17800Y983000D01*
X-33000Y983000D01*
X-33000Y998200D01*
X-17800Y998200D01*
G37*
X-25400Y965200D02*
G54D11*
D03*
X76200Y965200D02*
G54D12*
D03*
X101600Y965200D02*
G54D12*
D03*
X50800Y965200D02*
G54D12*
D03*
X0Y965200D02*
G54D12*
D03*
G54D13*
X51808Y963933D02*
X74933Y963933D01*
X76200Y965200D01*
X145766Y952171D02*
G54D14*
D03*
X133066Y966171D02*
G54D14*
D03*
X145766Y980171D02*
G54D14*
D03*
G36*
X182900Y998200D02*
X198100Y998200D01*
X198100Y983000D01*
X182900Y983000D01*
X182900Y998200D01*
G37*
X215900Y990600D02*
G54D11*
D03*
G54D13*
X190500Y990600D02*
X156195Y990600D01*
X145766Y980171D01*
X177800Y952500D02*
G54D15*
D03*
X228600Y952500D02*
G54D15*
D03*
G54D13*
X177800Y952500D02*
X146095Y952500D01*
X145766Y952171D01*
X254000Y990600D02*
G54D12*
D03*
X254000Y965200D02*
G54D12*
D03*
X310866Y875971D02*
G54D14*
D03*
X298166Y889971D02*
G54D14*
D03*
X310866Y903971D02*
G54D14*
D03*
G36*
X-17800Y922000D02*
X-17800Y906800D01*
X-33000Y906800D01*
X-33000Y922000D01*
X-17800Y922000D01*
G37*
X-25400Y889000D02*
G54D11*
D03*
X12700Y914400D02*
G54D12*
D03*
X12700Y889000D02*
G54D12*
D03*
X38100Y914400D02*
G54D12*
D03*
X38100Y889000D02*
G54D12*
D03*
X63500Y889000D02*
G54D12*
D03*
X88900Y889000D02*
G54D12*
D03*
X114300Y914400D02*
G54D12*
D03*
X114300Y889000D02*
G54D12*
D03*
X139700Y889000D02*
G54D12*
D03*
X165100Y889000D02*
G54D12*
D03*
X190500Y914400D02*
G54D12*
D03*
X190500Y889000D02*
G54D12*
D03*
G54D13*
X-25400Y889000D02*
X12700Y889000D01*
X38100Y889000D01*
X63500Y889000D01*
G54D13*
X88900Y889000D02*
X114300Y889000D01*
X139700Y889000D01*
G54D13*
X165100Y889000D02*
X190500Y889000D01*
G54D13*
X-25400Y965200D02*
X0Y965200D01*
G54D13*
X101600Y965200D02*
X132095Y965200D01*
X133066Y966171D01*
X266700Y914400D02*
G54D12*
D03*
X266700Y889000D02*
G54D12*
D03*
G54D13*
X266700Y889000D02*
X297195Y889000D01*
X298166Y889971D01*
G54D13*
X266700Y914400D02*
X300437Y914400D01*
X310866Y903971D01*
X292100Y952500D02*
G54D12*
D03*
X292100Y927100D02*
G54D12*
D03*
G54D13*
X292100Y927100D02*
X292100Y914400D01*
G54D13*
X228600Y952500D02*
X241300Y952500D01*
X254000Y965200D01*
X342900Y863600D02*
G54D12*
D03*
X342900Y889000D02*
G54D12*
D03*
X387066Y888671D02*
G54D14*
D03*
X374366Y902671D02*
G54D14*
D03*
X387066Y916671D02*
G54D14*
D03*
X342900Y939800D02*
G54D12*
D03*
X342900Y914400D02*
G54D12*
D03*
G54D13*
X342900Y889000D02*
X342900Y914400D01*
X254000Y863600D02*
G54D12*
D03*
X279400Y863600D02*
G54D12*
D03*
G54D13*
X279400Y863600D02*
X342900Y863600D01*
G54D13*
X310866Y875971D02*
X310866Y863421D01*
X310766Y863321D01*
X393700Y990600D02*
G54D15*
D03*
X393700Y939800D02*
G54D15*
D03*
G54D13*
X254000Y965200D02*
X266700Y965200D01*
X292100Y990600D01*
X393700Y990600D01*
G54D13*
X393700Y939800D02*
X393700Y923305D01*
X387066Y916671D01*
G54D13*
X374366Y902671D02*
X343871Y902671D01*
X342900Y901700D01*
G54D13*
X342900Y939800D02*
X393700Y939800D01*
X419100Y939800D02*
G54D12*
D03*
X419100Y914400D02*
G54D12*
D03*
X419100Y889000D02*
G54D12*
D03*
X419100Y863600D02*
G54D12*
D03*
X444500Y939800D02*
G54D12*
D03*
X444500Y914400D02*
G54D12*
D03*
G54D13*
X419100Y914400D02*
X444500Y914400D01*
G54D13*
X419100Y914400D02*
X419100Y889000D01*
G54D13*
X393700Y939800D02*
X419100Y939800D01*
X508000Y850900D02*
G54D16*
D03*
X533400Y876300D02*
G54D16*
D03*
X508000Y901700D02*
G54D16*
D03*
X444500Y876300D02*
G54D12*
D03*
X444500Y850900D02*
G54D12*
D03*
G36*
X488900Y958900D02*
X501700Y958900D01*
X501700Y946100D01*
X488900Y946100D01*
X488900Y958900D01*
G37*
X495300Y977900D02*
G54D17*
D03*
X520700Y952500D02*
G54D17*
D03*
X520700Y977900D02*
G54D17*
D03*
X444500Y990600D02*
G54D12*
D03*
X444500Y965200D02*
G54D12*
D03*
G54D13*
X495300Y977900D02*
X520700Y952500D01*
G54D13*
X444500Y939800D02*
X469900Y939800D01*
X469900Y965200D01*
X482600Y977900D01*
X495300Y977900D01*
G54D13*
X444500Y990600D02*
X508000Y990600D01*
X520700Y977900D01*
G54D13*
X495300Y952500D02*
X495300Y914400D01*
X508000Y901700D01*
G54D13*
X444500Y876300D02*
X469900Y876300D01*
X495300Y850900D01*
X508000Y850900D01*
G54D13*
X444500Y914400D02*
X457200Y901700D01*
X495293Y889000D01*
X508000Y876293D01*
X533400Y876300D01*
X584200Y939800D02*
G54D12*
D03*
X558800Y939800D02*
G54D12*
D03*
G54D13*
X520700Y952500D02*
X546100Y952500D01*
X558800Y939800D01*
X622300Y901700D02*
G54D12*
D03*
X571500Y901700D02*
G54D12*
D03*
G54D13*
X508000Y850900D02*
X546100Y850900D01*
X571500Y889000D01*
X571500Y901700D01*
X596900Y876300D02*
G54D12*
D03*
X596900Y850900D02*
G54D12*
D03*
G54D13*
X596900Y876300D02*
X622300Y901700D01*
X622300Y876300D02*
G54D12*
D03*
X622300Y850900D02*
G54D12*
D03*
G54D13*
X622300Y901700D02*
X622300Y876300D01*
X647700Y850900D02*
G54D18*
D03*
X698500Y850900D02*
G54D18*
D03*
X673100Y901700D02*
G54D18*
D03*
G54D13*
X622300Y850900D02*
X647700Y850900D01*
X660400Y952500D02*
G54D12*
D03*
X660400Y992500D02*
G54D12*
D03*
X566178Y978299D02*
G54D12*
D03*
X540778Y978299D02*
G54D12*
D03*
G54D13*
X520700Y977900D02*
X540379Y977900D01*
X540778Y978299D01*
G36*
X604500Y998200D02*
X604500Y983000D01*
X589300Y983000D01*
X589300Y998200D01*
X604500Y998200D01*
G37*
X596900Y965200D02*
G54D11*
D03*
G54D13*
X566178Y978299D02*
X571101Y978299D01*
X584200Y965200D01*
X596900Y965200D01*
X711200Y990600D02*
G54D12*
D03*
X711200Y965200D02*
G54D12*
D03*
G54D13*
X596900Y965200D02*
X609600Y965200D01*
X635000Y990600D01*
X658500Y990600D01*
X660400Y992500D01*
G54D13*
X660400Y992500D02*
X709300Y992500D01*
X711200Y990600D01*
X800100Y876300D02*
G54D16*
D03*
X825500Y901700D02*
G54D16*
D03*
X800100Y927100D02*
G54D16*
D03*
X723900Y901700D02*
G54D15*
D03*
X723900Y850900D02*
G54D15*
D03*
G36*
X756900Y998200D02*
X756900Y983000D01*
X741700Y983000D01*
X741700Y998200D01*
X756900Y998200D01*
G37*
X749300Y965200D02*
G54D11*
D03*
G54D13*
X711200Y990600D02*
X749300Y990600D01*
G36*
X842400Y973700D02*
X859400Y973700D01*
X859400Y956700D01*
X842400Y956700D01*
X842400Y973700D01*
G37*
X850900Y990600D02*
G54D19*
D03*
X876300Y965200D02*
G54D19*
D03*
X876300Y990600D02*
G54D19*
D03*
X927100Y914400D02*
G54D12*
D03*
X927100Y939800D02*
G54D12*
D03*
G54D13*
X850900Y965200D02*
X876300Y990600D01*
G54D13*
X876300Y965200D02*
X927100Y965200D01*
X927100Y939800D01*
X876300Y876300D02*
G54D12*
D03*
X876300Y850900D02*
G54D12*
D03*
G54D13*
X800100Y876300D02*
X876300Y876300D01*
G54D13*
X825500Y901700D02*
X723900Y901700D01*
G54D13*
X800100Y927100D02*
X812800Y927100D01*
X850900Y965200D01*
G54D13*
X584200Y939800D02*
X622300Y939800D01*
X647700Y927100D01*
X698500Y927100D01*
X723900Y901700D01*
G54D13*
X749300Y965200D02*
X825500Y965200D01*
X850900Y990600D01*
X25400Y596900D02*
G54D20*
D03*
X25400Y571500D02*
G54D20*
D03*
X25400Y546100D02*
G54D20*
D03*
X25400Y520700D02*
G54D20*
D03*
X101600Y596900D02*
G54D20*
D03*
X101600Y571500D02*
G54D20*
D03*
X101600Y546100D02*
G54D20*
D03*
X101600Y520700D02*
G54D20*
D03*
X647700Y609600D02*
G54D20*
D03*
X647700Y584200D02*
G54D20*
D03*
X647700Y558800D02*
G54D20*
D03*
X647700Y533400D02*
G54D20*
D03*
X723900Y609600D02*
G54D20*
D03*
X723900Y584200D02*
G54D20*
D03*
X723900Y558800D02*
G54D20*
D03*
X723900Y533400D02*
G54D20*
D03*
X291250Y583350D02*
G54D15*
D03*
X291250Y534950D02*
G54D15*
D03*
X394085Y698735D02*
G54D21*
D03*
X394085Y774935D02*
G54D21*
D03*
X470285Y698735D02*
G54D21*
D03*
X521085Y698735D02*
G54D21*
D03*
X571885Y698735D02*
G54D21*
D03*
X470285Y774935D02*
G54D21*
D03*
X521085Y774935D02*
G54D21*
D03*
X571885Y774935D02*
G54D21*
D03*
G36*
X934700Y858500D02*
X934700Y843300D01*
X919500Y843300D01*
X919500Y858500D01*
X934700Y858500D01*
G37*
X927100Y825500D02*
G54D22*
D03*
X889000Y736600D02*
G54D12*
D03*
X889000Y762000D02*
G54D12*
D03*
X850900Y762000D02*
G54D23*
D03*
X800100Y762000D02*
G54D23*
D03*
X762000Y736600D02*
G54D12*
D03*
X762000Y762000D02*
G54D12*
D03*
X723900Y762000D02*
G54D23*
D03*
X673100Y762000D02*
G54D23*
D03*
X635000Y736600D02*
G54D12*
D03*
X635000Y762000D02*
G54D12*
D03*
G54D13*
X635000Y762000D02*
X673100Y762000D01*
G54D13*
X723900Y762000D02*
X762000Y762000D01*
G54D13*
X762000Y762000D02*
X800100Y762000D01*
G36*
X-17800Y782300D02*
X-17800Y767100D01*
X-33000Y767100D01*
X-33000Y782300D01*
X-17800Y782300D01*
G37*
X-25400Y749300D02*
G54D11*
D03*
X63500Y774700D02*
G54D12*
D03*
X12700Y774700D02*
G54D12*
D03*
X88900Y774700D02*
G54D12*
D03*
X114300Y774700D02*
G54D12*
D03*
X158466Y761671D02*
G54D14*
D03*
X145766Y775671D02*
G54D14*
D03*
X158466Y789671D02*
G54D14*
D03*
X368300Y698500D02*
G54D12*
D03*
X368300Y749300D02*
G54D12*
D03*
G54D13*
X-25400Y774700D02*
X12700Y774700D01*
G54D13*
X63500Y774700D02*
X88900Y774700D01*
G54D13*
X114300Y774700D02*
X144795Y774700D01*
X145766Y775671D01*
G54D13*
X158466Y789671D02*
X379349Y789671D01*
X394085Y774935D01*
G54D13*
X394085Y698735D02*
X368534Y698735D01*
X368300Y698500D01*
G54D13*
X394085Y774935D02*
X393934Y774935D01*
X368300Y749300D01*
G54D13*
X394085Y698735D02*
X470285Y698735D01*
G36*
X617200Y731500D02*
X617200Y716300D01*
X602000Y716300D01*
X602000Y731500D01*
X617200Y731500D01*
G37*
X609600Y698500D02*
G54D11*
D03*
G54D13*
X571885Y698735D02*
X609365Y698735D01*
X609600Y698500D01*
X354750Y583350D02*
G54D15*
D03*
X354750Y534950D02*
G54D15*
D03*
X418250Y583350D02*
G54D15*
D03*
X418250Y534950D02*
G54D15*
D03*
X481750Y583350D02*
G54D15*
D03*
X481750Y534950D02*
G54D15*
D03*
X330200Y622300D02*
G54D12*
D03*
X330200Y647700D02*
G54D12*
D03*
X393700Y622300D02*
G54D12*
D03*
X393700Y647700D02*
G54D12*
D03*
X457200Y622300D02*
G54D12*
D03*
X457200Y647700D02*
G54D12*
D03*
X209266Y571171D02*
G54D14*
D03*
X196566Y585171D02*
G54D14*
D03*
X209266Y599171D02*
G54D14*
D03*
G54D13*
X101600Y520700D02*
X165100Y520700D01*
X177800Y533400D01*
X177800Y566405D01*
X196566Y585171D01*
G54D13*
X209266Y571171D02*
X279071Y571171D01*
X291250Y583350D01*
X520700Y571500D02*
G54D12*
D03*
X520700Y596900D02*
G54D12*
D03*
X546100Y533400D02*
G54D12*
D03*
X520700Y533400D02*
G54D12*
D03*
X0Y596900D02*
G54D12*
D03*
X-25400Y596900D02*
G54D12*
D03*
X0Y571500D02*
G54D12*
D03*
X-25400Y571500D02*
G54D12*
D03*
G54D13*
X0Y596900D02*
X25400Y596900D01*
G54D13*
X0Y571500D02*
X25400Y571500D01*
X152400Y546100D02*
G54D12*
D03*
X127000Y546100D02*
G54D12*
D03*
X152400Y596900D02*
G54D12*
D03*
X127000Y596900D02*
G54D12*
D03*
G54D13*
X101600Y546100D02*
X127000Y546100D01*
X584200Y558800D02*
G54D12*
D03*
X584200Y533400D02*
G54D12*
D03*
X584200Y649600D02*
G54D12*
D03*
X584200Y609600D02*
G54D12*
D03*
G54D13*
X520700Y571500D02*
X520700Y533400D01*
G54D13*
X546100Y533400D02*
X584200Y533400D01*
G54D13*
X291250Y534950D02*
X354750Y534950D01*
G54D13*
X354750Y583350D02*
X418250Y583350D01*
G54D13*
X418250Y534950D02*
X481750Y534950D01*
G54D13*
X481750Y583350D02*
X483450Y583350D01*
X495300Y571500D01*
X520700Y571500D01*
G54D13*
X330200Y622300D02*
X330200Y533400D01*
G54D13*
X393700Y622300D02*
X393700Y584200D01*
G54D13*
X457200Y622300D02*
X457200Y533400D01*
G54D13*
X584200Y609600D02*
X584200Y558800D01*
G36*
X195600Y845800D02*
X210800Y845800D01*
X210800Y830600D01*
X195600Y830600D01*
X195600Y845800D01*
G37*
G36*
X195600Y655300D02*
X210800Y655300D01*
X210800Y640100D01*
X195600Y640100D01*
X195600Y655300D01*
G37*
G36*
X221000Y922000D02*
X236200Y922000D01*
X236200Y906800D01*
X221000Y906800D01*
X221000Y922000D01*
G37*
G54D13*
X266700Y914400D02*
X228600Y914400D01*
X228600Y927100D01*
X203200Y952500D01*
X203200Y977900D01*
X190500Y990600D01*
G36*
X221000Y845800D02*
X236200Y845800D01*
X236200Y830600D01*
X221000Y830600D01*
X221000Y845800D01*
G37*
G36*
X221000Y680700D02*
X236200Y680700D01*
X236200Y665500D01*
X221000Y665500D01*
X221000Y680700D01*
G37*
G36*
X221000Y655300D02*
X236200Y655300D01*
X236200Y640100D01*
X221000Y640100D01*
X221000Y655300D01*
G37*
G54D13*
X228600Y647700D02*
X228600Y618505D01*
X209266Y599171D01*
X215900Y889000D02*
G54D12*
D03*
X266700Y889000D02*
G54D12*
D03*
G54D13*
X190500Y889000D02*
X215900Y889000D01*
G54D13*
X203200Y838200D02*
X203200Y889000D01*
G54D13*
X228600Y838200D02*
X228600Y869900D01*
X239700Y881000D01*
X239700Y912800D01*
X241300Y914400D01*
G54D13*
X647700Y609600D02*
X609600Y609600D01*
X609600Y533400D01*
X584200Y533400D01*
X749300Y558800D02*
G54D12*
D03*
X749300Y584200D02*
G54D12*
D03*
X774700Y609600D02*
G54D12*
D03*
X749300Y609600D02*
G54D12*
D03*
G54D13*
X723900Y609600D02*
X749300Y609600D01*
G54D13*
X723900Y584200D02*
X749300Y584200D01*
G54D13*
X723900Y558800D02*
X749300Y558800D01*
X800100Y584200D02*
G54D12*
D03*
X774700Y584200D02*
G54D12*
D03*
X800100Y558800D02*
G54D12*
D03*
X774700Y558800D02*
G54D12*
D03*
G54D13*
X749300Y558800D02*
X774700Y558800D01*
G54D13*
X749300Y584200D02*
X774700Y584200D01*
X850900Y558800D02*
G54D23*
D03*
X899300Y558800D02*
G54D15*
D03*
G54D13*
X800100Y558800D02*
X850900Y558800D01*
X838200Y647700D02*
G54D24*
D03*
X888200Y697700D02*
G54D24*
D03*
X888200Y597700D02*
G54D24*
D03*
G54D13*
X899300Y558800D02*
X899300Y586600D01*
X888200Y597700D01*
X800100Y647700D02*
G54D12*
D03*
X800100Y673100D02*
G54D12*
D03*
G54D13*
X800100Y673100D02*
X862800Y673100D01*
X888200Y647700D01*
X888200Y597700D01*
G36*
X640100Y680700D02*
X655300Y680700D01*
X655300Y665500D01*
X640100Y665500D01*
X640100Y680700D01*
G37*
G54D13*
X698500Y673100D02*
X647700Y673100D01*
G36*
X297200Y769600D02*
X312400Y769600D01*
X312400Y754400D01*
X297200Y754400D01*
X297200Y769600D01*
G37*
X330200Y762000D02*
G54D11*
D03*
X698500Y469900D02*
G54D12*
D03*
X673100Y469900D02*
G54D12*
D03*
X698500Y444500D02*
G54D12*
D03*
X673100Y444500D02*
G54D12*
D03*
X647700Y469900D02*
G54D12*
D03*
X647700Y444500D02*
G54D12*
D03*
G54D13*
X673100Y469900D02*
X647700Y469900D01*
G54D13*
X673100Y444500D02*
X647700Y444500D01*
X615666Y444171D02*
G54D14*
D03*
X602966Y458171D02*
G54D14*
D03*
X615666Y472171D02*
G54D14*
D03*
G54D13*
X647700Y469900D02*
X617937Y469900D01*
X615666Y472171D01*
G54D13*
X647700Y444500D02*
X615995Y444500D01*
X615666Y444171D01*
G36*
X922000Y490200D02*
X922000Y475000D01*
X906800Y475000D01*
X906800Y490200D01*
X922000Y490200D01*
G37*
X914400Y457200D02*
G54D11*
D03*
X838200Y457200D02*
G54D12*
D03*
X889000Y457200D02*
G54D12*
D03*
X812800Y457200D02*
G54D12*
D03*
X812800Y482600D02*
G54D12*
D03*
X774700Y482600D02*
G54D12*
D03*
X774700Y457200D02*
G54D12*
D03*
G54D13*
X914400Y457200D02*
X889000Y457200D01*
G54D13*
X838200Y457200D02*
X812800Y457200D01*
X774700Y457200D01*
X533251Y393690D02*
G54D20*
D03*
X533251Y419090D02*
G54D20*
D03*
X533251Y444491D02*
G54D20*
D03*
X533251Y469890D02*
G54D20*
D03*
X457051Y393690D02*
G54D20*
D03*
X457051Y419090D02*
G54D20*
D03*
X457051Y444491D02*
G54D20*
D03*
X457051Y469890D02*
G54D20*
D03*
G54D13*
X615666Y444171D02*
X615666Y437866D01*
X596900Y419100D01*
X533251Y419090D01*
G54D13*
X615666Y472171D02*
X615666Y484721D01*
X615566Y484821D01*
X573721Y484821D01*
X571500Y482600D01*
X571360Y482600D01*
X533251Y444491D01*
X388726Y395177D02*
G54D12*
D03*
X414126Y395177D02*
G54D12*
D03*
X381000Y471800D02*
G54D12*
D03*
X381000Y431800D02*
G54D12*
D03*
X431800Y469900D02*
G54D15*
D03*
X431800Y393700D02*
G54D15*
D03*
G54D13*
X457051Y469890D02*
X431800Y469900D01*
G54D13*
X457051Y419090D02*
X393710Y419090D01*
X381000Y431800D01*
X292100Y471800D02*
G54D12*
D03*
X292100Y431800D02*
G54D12*
D03*
X304800Y393700D02*
G54D12*
D03*
X344800Y393700D02*
G54D12*
D03*
X190500Y393700D02*
G54D18*
D03*
X190500Y444500D02*
G54D18*
D03*
X139700Y419100D02*
G54D18*
D03*
G36*
X-17800Y452100D02*
X-17800Y436900D01*
X-33000Y436900D01*
X-33000Y452100D01*
X-17800Y452100D01*
G37*
X-25400Y419100D02*
G54D11*
D03*
X266700Y393700D02*
G54D12*
D03*
X241300Y393700D02*
G54D12*
D03*
G54D13*
X431800Y469900D02*
X431800Y460300D01*
X422300Y450800D01*
X349200Y450800D01*
X342900Y444500D01*
X342900Y395600D01*
X344800Y393700D01*
G54D13*
X304800Y393700D02*
X266700Y393700D01*
G54D13*
X241300Y393700D02*
X190500Y393700D01*
G54D13*
X139700Y419100D02*
X-25400Y419100D01*
G36*
X756900Y541000D02*
X756900Y525800D01*
X741700Y525800D01*
X741700Y541000D01*
X756900Y541000D01*
G37*
X749300Y508000D02*
G54D11*
D03*
X723900Y508000D02*
G54D12*
D03*
X698500Y508000D02*
G54D12*
D03*
G54D13*
X723900Y533400D02*
X749300Y533400D01*
G54D13*
X723900Y533400D02*
X723900Y508000D01*
G54D13*
X647700Y533400D02*
X698500Y533400D01*
X698500Y508000D01*
G54D13*
X698500Y508000D02*
X698500Y469900D01*
G54D13*
X723900Y508000D02*
X723900Y457200D01*
X711200Y444500D01*
X698500Y444500D01*
X-25400Y1028700D02*
G54D12*
D03*
X927100Y1028700D02*
G54D12*
D03*
X927100Y368300D02*
G54D12*
D03*
X-25400Y368300D02*
G54D12*
D03*
X-25400Y1028700D02*
G54D12*
D03*
X-25400Y1028700D02*
G54D12*
D03*
X-25400Y1028700D02*
G54D12*
D03*
X927100Y1028700D02*
G54D25*
D03*
X927100Y368300D02*
G54D25*
D03*
X-25400Y368300D02*
G54D25*
D03*
X-25400Y1028700D02*
G54D25*
D03*
X-25400Y1028700D02*
G54D25*
D03*
X927100Y1028700D02*
G54D25*
D03*
X927100Y368300D02*
G54D25*
D03*
X-25400Y368300D02*
G54D25*
D03*
X673100Y787400D02*
G54D12*
D03*
X723900Y787400D02*
G54D12*
D03*
G54D13*
X431800Y393700D02*
X415603Y393700D01*
X414126Y395177D01*
X569600Y393700D02*
G54D12*
D03*
X609600Y393700D02*
G54D12*
D03*
G54D13*
X533251Y393690D02*
X569600Y393700D01*
G54D13*
X388726Y395177D02*
X388726Y373274D01*
X393700Y368300D01*
X584200Y368300D01*
X609600Y393700D01*
G54D13*
X457051Y393690D02*
X457051Y368449D01*
X457200Y368300D01*
G54D26*
X671067Y371633D02*
X669733Y369411D01*
X667067Y368300D01*
X664400Y368300D01*
X661733Y369411D01*
X660400Y371633D01*
X660400Y382744D01*
X661733Y384967D01*
X664400Y386078D01*
X667067Y386078D01*
X669733Y384967D01*
X671067Y382744D01*
G54D26*
X675956Y386078D02*
X675956Y368300D01*
X682623Y379411D01*
X689289Y368300D01*
X689289Y386078D01*
G54D26*
X694178Y382744D02*
X695511Y384967D01*
X698178Y386078D01*
X700845Y386078D01*
X703511Y384967D01*
X704845Y382744D01*
X704845Y380522D01*
X703511Y378300D01*
X700845Y377189D01*
X703511Y376078D01*
X704845Y373856D01*
X704845Y371633D01*
X703511Y369411D01*
X700845Y368300D01*
X698178Y368300D01*
X695511Y369411D01*
X694178Y371633D01*
G54D26*
X709734Y376078D02*
X720401Y376078D01*
G54D26*
X725290Y386078D02*
X725290Y368300D01*
X734623Y368300D01*
G54D26*
X739512Y386078D02*
X750179Y386078D01*
X739512Y368300D01*
X750179Y368300D01*
G54D26*
X755068Y386078D02*
X765735Y386078D01*
X764401Y383856D01*
X761735Y380522D01*
X759068Y376078D01*
X757735Y372744D01*
X757735Y368300D01*
G54D26*
X770624Y368300D02*
X770624Y386078D01*
X777291Y386078D01*
X779957Y384967D01*
X781291Y382744D01*
X781291Y371633D01*
X779957Y369411D01*
X777291Y368300D01*
X770624Y368300D01*
G54D26*
X786180Y368300D02*
X786180Y386078D01*
X792847Y386078D01*
X795513Y384967D01*
X796847Y382744D01*
X796847Y380522D01*
X795513Y378300D01*
X792847Y377189D01*
X786180Y377189D01*
G54D26*
X801736Y376078D02*
X812403Y376078D01*
G54D26*
X827959Y368300D02*
X817292Y368300D01*
X817292Y369411D01*
X818625Y371633D01*
X826625Y378300D01*
X827959Y380522D01*
X827959Y382744D01*
X826625Y384967D01*
X823959Y386078D01*
X821292Y386078D01*
X818625Y384967D01*
X817292Y382744D01*
G54D26*
X843515Y382744D02*
X843515Y371633D01*
X842181Y369411D01*
X839515Y368300D01*
X836848Y368300D01*
X834181Y369411D01*
X832848Y371633D01*
X832848Y382744D01*
X834181Y384967D01*
X836848Y386078D01*
X839515Y386078D01*
X842181Y384967D01*
X843515Y382744D01*
G54D26*
X848404Y379411D02*
X855071Y386078D01*
X855071Y368300D01*
G54D26*
X866627Y377189D02*
X863960Y377189D01*
X861293Y378300D01*
X859960Y380522D01*
X859960Y382744D01*
X861293Y384967D01*
X863960Y386078D01*
X866627Y386078D01*
X869293Y384967D01*
X870627Y382744D01*
X870627Y380522D01*
X869293Y378300D01*
X866627Y377189D01*
X869293Y376078D01*
X870627Y373856D01*
X870627Y371633D01*
X869293Y369411D01*
X866627Y368300D01*
X863960Y368300D01*
X861293Y369411D01*
X859960Y371633D01*
X859960Y373856D01*
X861293Y376078D01*
X863960Y377189D01*
X749300Y635000D02*
G54D15*
D03*
X749300Y685800D02*
G54D15*
D03*
G54D13*
X698500Y673100D02*
X711200Y685800D01*
G54D13*
X749300Y685800D02*
X711200Y685800D01*
X698500Y673100D01*
X647700Y673100D01*
G54D13*
X749300Y609600D02*
X749300Y635000D01*
X127000Y622300D02*
G54D15*
D03*
X127000Y673100D02*
G54D15*
D03*
G54D13*
X127000Y622300D02*
X127000Y596900D01*
G54D13*
X101600Y596900D02*
X127000Y596900D01*
X254000Y546100D02*
G54D15*
D03*
X254000Y596900D02*
G54D15*
D03*
G54D13*
X254000Y546100D02*
X254000Y571500D01*
G54D13*
X203200Y647700D02*
X203200Y622300D01*
X152400Y571500D01*
X152400Y546100D01*
G54D13*
X228600Y647700D02*
X279400Y647700D01*
X304800Y673100D01*
X647700Y673100D01*
G54D13*
X127000Y673100D02*
X228600Y673100D01*
X228600Y647700D01*
G54D13*
X330200Y762000D02*
X330200Y736599D01*
X368300Y698500D01*
G36*
X246400Y718800D02*
X261600Y718800D01*
X261600Y703600D01*
X246400Y703600D01*
X246400Y718800D01*
G37*
G54D13*
X177800Y711200D02*
X254000Y711200D01*
G54D13*
X414126Y395177D02*
X430323Y395177D01*
X431800Y393700D01*
G54D13*
X850900Y762000D02*
X889000Y762000D01*
G54D13*
X927100Y914400D02*
X901700Y914400D01*
X901700Y838200D01*
X889000Y825500D01*
X889000Y762000D01*
G54D13*
X635000Y762000D02*
X584820Y762000D01*
X571885Y774935D01*
G54D13*
X673100Y762000D02*
X673100Y787400D01*
G54D13*
X723900Y762000D02*
X723900Y787400D01*
G36*
X779800Y833100D02*
X795000Y833100D01*
X795000Y817900D01*
X779800Y817900D01*
X779800Y833100D01*
G37*
G54D13*
X470285Y774935D02*
X470285Y812415D01*
X469900Y812800D01*
X736600Y812800D01*
X749300Y825500D01*
X787400Y825500D01*
G36*
X144800Y718800D02*
X160000Y718800D01*
X160000Y703600D01*
X144800Y703600D01*
X144800Y718800D01*
G37*
X177800Y711200D02*
G54D11*
D03*
G54D13*
X152400Y711200D02*
X-12700Y711200D01*
X-25400Y698500D01*
X-25400Y596900D01*
G36*
X144800Y744200D02*
X160000Y744200D01*
X160000Y729000D01*
X144800Y729000D01*
X144800Y744200D01*
G37*
X177800Y736600D02*
G54D11*
D03*
G36*
X779800Y833100D02*
X795000Y833100D01*
X795000Y817900D01*
X779800Y817900D01*
X779800Y833100D01*
G37*
G36*
X919500Y858500D02*
X934700Y858500D01*
X934700Y843300D01*
X919500Y843300D01*
X919500Y858500D01*
G37*
G36*
X868700Y528300D02*
X883900Y528300D01*
X883900Y513100D01*
X868700Y513100D01*
X868700Y528300D01*
G37*
G36*
X843300Y541000D02*
X858500Y541000D01*
X858500Y525800D01*
X843300Y525800D01*
X843300Y541000D01*
G37*
G54D13*
X127000Y673100D02*
X63500Y673100D01*
X63500Y482600D01*
X241300Y482600D01*
X292100Y431800D01*
G54D13*
X584200Y609600D02*
X609600Y635000D01*
X673100Y635000D01*
X673100Y596900D01*
X660400Y584200D01*
X647700Y584200D01*
G54D13*
X368300Y863600D02*
X368300Y869905D01*
X387066Y888671D01*
X393700Y863600D02*
G54D12*
D03*
X368300Y863600D02*
G54D12*
D03*
X279400Y889000D02*
G54D12*
D03*
%LNAUGENFREISTANZEN*%
%LPC*%
X-25400Y990600D02*
G54D13*
D03*
X-25400Y965200D02*
G54D13*
D03*
X76200Y965200D02*
G54D27*
D03*
X101600Y965200D02*
G54D27*
D03*
X50800Y965200D02*
G54D27*
D03*
X0Y965200D02*
G54D27*
D03*
X145766Y952171D02*
G54D28*
D03*
X133066Y966171D02*
G54D28*
D03*
X145766Y980171D02*
G54D28*
D03*
X190500Y990600D02*
G54D13*
D03*
X215900Y990600D02*
G54D13*
D03*
X177800Y952500D02*
G54D27*
D03*
X228600Y952500D02*
G54D27*
D03*
X254000Y990600D02*
G54D27*
D03*
X254000Y965200D02*
G54D27*
D03*
X310866Y875971D02*
G54D28*
D03*
X298166Y889971D02*
G54D28*
D03*
X310866Y903971D02*
G54D28*
D03*
X-25400Y914400D02*
G54D13*
D03*
X-25400Y889000D02*
G54D13*
D03*
X12700Y914400D02*
G54D27*
D03*
X12700Y889000D02*
G54D27*
D03*
X38100Y914400D02*
G54D27*
D03*
X38100Y889000D02*
G54D27*
D03*
X63500Y889000D02*
G54D27*
D03*
X88900Y889000D02*
G54D27*
D03*
X114300Y914400D02*
G54D27*
D03*
X114300Y889000D02*
G54D27*
D03*
X139700Y889000D02*
G54D27*
D03*
X165100Y889000D02*
G54D27*
D03*
X190500Y914400D02*
G54D27*
D03*
X190500Y889000D02*
G54D27*
D03*
X266700Y914400D02*
G54D27*
D03*
X266700Y889000D02*
G54D27*
D03*
X292100Y952500D02*
G54D27*
D03*
X292100Y927100D02*
G54D27*
D03*
X342900Y863600D02*
G54D27*
D03*
X342900Y889000D02*
G54D27*
D03*
X387066Y888671D02*
G54D28*
D03*
X374366Y902671D02*
G54D28*
D03*
X387066Y916671D02*
G54D28*
D03*
X342900Y939800D02*
G54D27*
D03*
X342900Y914400D02*
G54D27*
D03*
X254000Y863600D02*
G54D27*
D03*
X279400Y863600D02*
G54D27*
D03*
X393700Y990600D02*
G54D27*
D03*
X393700Y939800D02*
G54D27*
D03*
X419100Y939800D02*
G54D27*
D03*
X419100Y914400D02*
G54D27*
D03*
X419100Y889000D02*
G54D27*
D03*
X419100Y863600D02*
G54D27*
D03*
X444500Y939800D02*
G54D27*
D03*
X444500Y914400D02*
G54D27*
D03*
X508000Y850900D02*
G54D29*
D03*
X533400Y876300D02*
G54D29*
D03*
X508000Y901700D02*
G54D29*
D03*
X444500Y876300D02*
G54D27*
D03*
X444500Y850900D02*
G54D27*
D03*
X495300Y952500D02*
G54D30*
D03*
X495300Y977900D02*
G54D30*
D03*
X520700Y952500D02*
G54D30*
D03*
X520700Y977900D02*
G54D30*
D03*
X444500Y990600D02*
G54D27*
D03*
X444500Y965200D02*
G54D27*
D03*
X584200Y939800D02*
G54D27*
D03*
X558800Y939800D02*
G54D27*
D03*
X622300Y901700D02*
G54D27*
D03*
X571500Y901700D02*
G54D27*
D03*
X596900Y876300D02*
G54D27*
D03*
X596900Y850900D02*
G54D27*
D03*
X622300Y876300D02*
G54D27*
D03*
X622300Y850900D02*
G54D27*
D03*
X647700Y850900D02*
G54D31*
D03*
X698500Y850900D02*
G54D31*
D03*
X673100Y901700D02*
G54D31*
D03*
X660400Y952500D02*
G54D27*
D03*
X660400Y992500D02*
G54D27*
D03*
X566178Y978299D02*
G54D27*
D03*
X540778Y978299D02*
G54D27*
D03*
X596900Y990600D02*
G54D13*
D03*
X596900Y965200D02*
G54D13*
D03*
X711200Y990600D02*
G54D27*
D03*
X711200Y965200D02*
G54D27*
D03*
X800100Y876300D02*
G54D29*
D03*
X825500Y901700D02*
G54D29*
D03*
X800100Y927100D02*
G54D29*
D03*
X723900Y901700D02*
G54D27*
D03*
X723900Y850900D02*
G54D27*
D03*
X749300Y990600D02*
G54D13*
D03*
X749300Y965200D02*
G54D13*
D03*
X850900Y965200D02*
G54D13*
D03*
X850900Y990600D02*
G54D13*
D03*
X876300Y965200D02*
G54D13*
D03*
X876300Y990600D02*
G54D13*
D03*
X927100Y914400D02*
G54D27*
D03*
X927100Y939800D02*
G54D27*
D03*
X876300Y876300D02*
G54D27*
D03*
X876300Y850900D02*
G54D27*
D03*
X25400Y596900D02*
G54D27*
D03*
X25400Y571500D02*
G54D27*
D03*
X25400Y546100D02*
G54D27*
D03*
X25400Y520700D02*
G54D27*
D03*
X101600Y596900D02*
G54D27*
D03*
X101600Y571500D02*
G54D27*
D03*
X101600Y546100D02*
G54D27*
D03*
X101600Y520700D02*
G54D27*
D03*
X647700Y609600D02*
G54D27*
D03*
X647700Y584200D02*
G54D27*
D03*
X647700Y558800D02*
G54D27*
D03*
X647700Y533400D02*
G54D27*
D03*
X723900Y609600D02*
G54D27*
D03*
X723900Y584200D02*
G54D27*
D03*
X723900Y558800D02*
G54D27*
D03*
X723900Y533400D02*
G54D27*
D03*
X291250Y583350D02*
G54D27*
D03*
X291250Y534950D02*
G54D27*
D03*
X394085Y698735D02*
G54D32*
D03*
X394085Y774935D02*
G54D32*
D03*
X470285Y698735D02*
G54D32*
D03*
X521085Y698735D02*
G54D32*
D03*
X571885Y698735D02*
G54D32*
D03*
X470285Y774935D02*
G54D32*
D03*
X521085Y774935D02*
G54D32*
D03*
X571885Y774935D02*
G54D32*
D03*
X927100Y850900D02*
G54D30*
D03*
X927100Y825500D02*
G54D30*
D03*
X889000Y736600D02*
G54D27*
D03*
X889000Y762000D02*
G54D27*
D03*
X850900Y762000D02*
G54D13*
D03*
X800100Y762000D02*
G54D13*
D03*
X762000Y736600D02*
G54D27*
D03*
X762000Y762000D02*
G54D27*
D03*
X723900Y762000D02*
G54D13*
D03*
X673100Y762000D02*
G54D13*
D03*
X635000Y736600D02*
G54D27*
D03*
X635000Y762000D02*
G54D27*
D03*
X-25400Y774700D02*
G54D13*
D03*
X-25400Y749300D02*
G54D13*
D03*
X63500Y774700D02*
G54D27*
D03*
X12700Y774700D02*
G54D27*
D03*
X88900Y774700D02*
G54D27*
D03*
X114300Y774700D02*
G54D27*
D03*
X158466Y761671D02*
G54D28*
D03*
X145766Y775671D02*
G54D28*
D03*
X158466Y789671D02*
G54D28*
D03*
X368300Y698500D02*
G54D27*
D03*
X368300Y749300D02*
G54D27*
D03*
X609600Y723900D02*
G54D13*
D03*
X609600Y698500D02*
G54D13*
D03*
X354750Y583350D02*
G54D27*
D03*
X354750Y534950D02*
G54D27*
D03*
X418250Y583350D02*
G54D27*
D03*
X418250Y534950D02*
G54D27*
D03*
X481750Y583350D02*
G54D27*
D03*
X481750Y534950D02*
G54D27*
D03*
X330200Y622300D02*
G54D27*
D03*
X330200Y647700D02*
G54D27*
D03*
X393700Y622300D02*
G54D27*
D03*
X393700Y647700D02*
G54D27*
D03*
X457200Y622300D02*
G54D27*
D03*
X457200Y647700D02*
G54D27*
D03*
X209266Y571171D02*
G54D28*
D03*
X196566Y585171D02*
G54D28*
D03*
X209266Y599171D02*
G54D28*
D03*
X520700Y571500D02*
G54D27*
D03*
X520700Y596900D02*
G54D27*
D03*
X546100Y533400D02*
G54D27*
D03*
X520700Y533400D02*
G54D27*
D03*
X0Y596900D02*
G54D27*
D03*
X-25400Y596900D02*
G54D27*
D03*
X0Y571500D02*
G54D27*
D03*
X-25400Y571500D02*
G54D27*
D03*
X152400Y546100D02*
G54D27*
D03*
X127000Y546100D02*
G54D27*
D03*
X152400Y596900D02*
G54D27*
D03*
X127000Y596900D02*
G54D27*
D03*
X584200Y558800D02*
G54D27*
D03*
X584200Y533400D02*
G54D27*
D03*
X584200Y649600D02*
G54D27*
D03*
X584200Y609600D02*
G54D27*
D03*
X203200Y838200D02*
G54D30*
D03*
X203200Y647700D02*
G54D30*
D03*
X228600Y914400D02*
G54D30*
D03*
X228600Y838200D02*
G54D30*
D03*
X228600Y673100D02*
G54D30*
D03*
X228600Y647700D02*
G54D30*
D03*
X215900Y889000D02*
G54D27*
D03*
X266700Y889000D02*
G54D27*
D03*
X749300Y558800D02*
G54D27*
D03*
X749300Y584200D02*
G54D27*
D03*
X774700Y609600D02*
G54D27*
D03*
X749300Y609600D02*
G54D27*
D03*
X800100Y584200D02*
G54D27*
D03*
X774700Y584200D02*
G54D27*
D03*
X800100Y558800D02*
G54D27*
D03*
X774700Y558800D02*
G54D27*
D03*
X850900Y558800D02*
G54D13*
D03*
X899300Y558800D02*
G54D27*
D03*
X838200Y647700D02*
G54D33*
D03*
X888200Y697700D02*
G54D33*
D03*
X888200Y597700D02*
G54D33*
D03*
X800100Y647700D02*
G54D27*
D03*
X800100Y673100D02*
G54D27*
D03*
X647700Y673100D02*
G54D30*
D03*
X304800Y762000D02*
G54D13*
D03*
X330200Y762000D02*
G54D13*
D03*
X698500Y469900D02*
G54D27*
D03*
X673100Y469900D02*
G54D27*
D03*
X698500Y444500D02*
G54D27*
D03*
X673100Y444500D02*
G54D27*
D03*
X647700Y469900D02*
G54D27*
D03*
X647700Y444500D02*
G54D27*
D03*
X615666Y444171D02*
G54D28*
D03*
X602966Y458171D02*
G54D28*
D03*
X615666Y472171D02*
G54D28*
D03*
X914400Y482600D02*
G54D13*
D03*
X914400Y457200D02*
G54D13*
D03*
X838200Y457200D02*
G54D27*
D03*
X889000Y457200D02*
G54D27*
D03*
X812800Y457200D02*
G54D27*
D03*
X812800Y482600D02*
G54D27*
D03*
X774700Y482600D02*
G54D27*
D03*
X774700Y457200D02*
G54D27*
D03*
X533251Y393690D02*
G54D27*
D03*
X533251Y419090D02*
G54D27*
D03*
X533251Y444491D02*
G54D27*
D03*
X533251Y469890D02*
G54D27*
D03*
X457051Y393690D02*
G54D27*
D03*
X457051Y419090D02*
G54D27*
D03*
X457051Y444491D02*
G54D27*
D03*
X457051Y469890D02*
G54D27*
D03*
X388726Y395177D02*
G54D27*
D03*
X414126Y395177D02*
G54D27*
D03*
X381000Y471800D02*
G54D27*
D03*
X381000Y431800D02*
G54D27*
D03*
X431800Y469900D02*
G54D27*
D03*
X431800Y393700D02*
G54D27*
D03*
X292100Y471800D02*
G54D27*
D03*
X292100Y431800D02*
G54D27*
D03*
X304800Y393700D02*
G54D27*
D03*
X344800Y393700D02*
G54D27*
D03*
X190500Y393700D02*
G54D31*
D03*
X190500Y444500D02*
G54D31*
D03*
X139700Y419100D02*
G54D31*
D03*
X-25400Y444500D02*
G54D13*
D03*
X-25400Y419100D02*
G54D13*
D03*
X266700Y393700D02*
G54D27*
D03*
X241300Y393700D02*
G54D27*
D03*
X749300Y533400D02*
G54D13*
D03*
X749300Y508000D02*
G54D13*
D03*
X723900Y508000D02*
G54D27*
D03*
X698500Y508000D02*
G54D27*
D03*
X-25400Y1028700D02*
G54D27*
D03*
X927100Y1028700D02*
G54D27*
D03*
X927100Y368300D02*
G54D27*
D03*
X-25400Y368300D02*
G54D27*
D03*
X-25400Y1028700D02*
G54D27*
D03*
X-25400Y1028700D02*
G54D27*
D03*
X-25400Y1028700D02*
G54D27*
D03*
X927100Y1028700D02*
G54D34*
D03*
X927100Y368300D02*
G54D34*
D03*
X-25400Y368300D02*
G54D34*
D03*
X-25400Y1028700D02*
G54D34*
D03*
X-25400Y1028700D02*
G54D34*
D03*
X927100Y1028700D02*
G54D34*
D03*
X927100Y368300D02*
G54D34*
D03*
X-25400Y368300D02*
G54D34*
D03*
X673100Y787400D02*
G54D27*
D03*
X723900Y787400D02*
G54D27*
D03*
X569600Y393700D02*
G54D27*
D03*
X609600Y393700D02*
G54D27*
D03*
X749300Y635000D02*
G54D27*
D03*
X749300Y685800D02*
G54D27*
D03*
X127000Y622300D02*
G54D27*
D03*
X127000Y673100D02*
G54D27*
D03*
X254000Y546100D02*
G54D27*
D03*
X254000Y596900D02*
G54D27*
D03*
X254000Y711200D02*
G54D30*
D03*
X-25400Y965200D02*
G54D35*
D03*
X0Y965200D02*
G54D35*
D03*
X50800Y965200D02*
G54D35*
D03*
X76200Y965200D02*
G54D35*
D03*
X101600Y965200D02*
G54D35*
D03*
X133066Y966171D02*
G54D35*
D03*
X145766Y980171D02*
G54D35*
D03*
X145766Y952171D02*
G54D35*
D03*
X177800Y952500D02*
G54D35*
D03*
X190500Y990600D02*
G54D35*
D03*
X215900Y990600D02*
G54D35*
D03*
X-25400Y990600D02*
G54D35*
D03*
X254000Y990600D02*
G54D35*
D03*
X254000Y965200D02*
G54D35*
D03*
X228600Y952500D02*
G54D35*
D03*
X-25400Y914400D02*
G54D35*
D03*
X12700Y914400D02*
G54D35*
D03*
X38100Y914400D02*
G54D35*
D03*
X114300Y914400D02*
G54D35*
D03*
X190500Y914400D02*
G54D35*
D03*
X190500Y889000D02*
G54D35*
D03*
X165100Y889000D02*
G54D35*
D03*
X139700Y889000D02*
G54D35*
D03*
X114300Y889000D02*
G54D35*
D03*
X88900Y889000D02*
G54D35*
D03*
X63500Y889000D02*
G54D35*
D03*
X38100Y889000D02*
G54D35*
D03*
X12700Y889000D02*
G54D35*
D03*
X-25400Y889000D02*
G54D35*
D03*
X12700Y774700D02*
G54D35*
D03*
X-25400Y774700D02*
G54D35*
D03*
X-25400Y749300D02*
G54D35*
D03*
X63500Y774700D02*
G54D35*
D03*
X88900Y774700D02*
G54D35*
D03*
X114300Y774700D02*
G54D35*
D03*
X145766Y775671D02*
G54D35*
D03*
X158466Y789671D02*
G54D35*
D03*
X158466Y761671D02*
G54D35*
D03*
X304800Y762000D02*
G54D35*
D03*
X330200Y762000D02*
G54D35*
D03*
X368300Y749300D02*
G54D35*
D03*
X394085Y774935D02*
G54D35*
D03*
X203200Y838200D02*
G54D35*
D03*
X228600Y838200D02*
G54D35*
D03*
X228600Y914400D02*
G54D35*
D03*
X266700Y914400D02*
G54D35*
D03*
X266700Y889000D02*
G54D35*
D03*
X254000Y863600D02*
G54D35*
D03*
X279400Y863600D02*
G54D35*
D03*
X310866Y875971D02*
G54D35*
D03*
X298166Y889971D02*
G54D35*
D03*
X310866Y903971D02*
G54D35*
D03*
X292100Y927100D02*
G54D35*
D03*
X292100Y952500D02*
G54D35*
D03*
X393700Y990600D02*
G54D35*
D03*
X444500Y990600D02*
G54D35*
D03*
X444500Y965200D02*
G54D35*
D03*
X444500Y939800D02*
G54D35*
D03*
X419100Y939800D02*
G54D35*
D03*
X393700Y939800D02*
G54D35*
D03*
X342900Y939800D02*
G54D35*
D03*
X342900Y914400D02*
G54D35*
D03*
X342900Y889000D02*
G54D35*
D03*
X374366Y902671D02*
G54D35*
D03*
X342900Y863600D02*
G54D35*
D03*
X387066Y888671D02*
G54D35*
D03*
X393700Y863600D02*
G54D35*
D03*
X419100Y863600D02*
G54D35*
D03*
X419100Y889000D02*
G54D35*
D03*
X419100Y914400D02*
G54D35*
D03*
X444500Y914400D02*
G54D35*
D03*
X444500Y876300D02*
G54D35*
D03*
X444500Y850900D02*
G54D35*
D03*
X508000Y850900D02*
G54D35*
D03*
X533400Y876300D02*
G54D35*
D03*
X508000Y901700D02*
G54D35*
D03*
X495300Y952500D02*
G54D35*
D03*
X495300Y977900D02*
G54D35*
D03*
X520700Y977900D02*
G54D35*
D03*
X520700Y952500D02*
G54D35*
D03*
X540778Y978299D02*
G54D35*
D03*
X566178Y978299D02*
G54D35*
D03*
X558800Y939800D02*
G54D35*
D03*
X584200Y939800D02*
G54D35*
D03*
X571500Y901700D02*
G54D35*
D03*
X596900Y965200D02*
G54D35*
D03*
X596900Y990600D02*
G54D35*
D03*
X660400Y992500D02*
G54D35*
D03*
X660400Y952500D02*
G54D35*
D03*
X711200Y965200D02*
G54D35*
D03*
X711200Y990600D02*
G54D35*
D03*
X749300Y990600D02*
G54D35*
D03*
X749300Y965200D02*
G54D35*
D03*
X850900Y990600D02*
G54D35*
D03*
X850900Y965200D02*
G54D35*
D03*
X876300Y990600D02*
G54D35*
D03*
X876300Y965200D02*
G54D35*
D03*
X927100Y939800D02*
G54D35*
D03*
X927100Y914400D02*
G54D35*
D03*
X876300Y850900D02*
G54D35*
D03*
X876300Y876300D02*
G54D35*
D03*
X800100Y876300D02*
G54D35*
D03*
X825500Y901700D02*
G54D35*
D03*
X800100Y927100D02*
G54D35*
D03*
X723900Y901700D02*
G54D35*
D03*
X723900Y850900D02*
G54D35*
D03*
X698500Y850900D02*
G54D35*
D03*
X673100Y901700D02*
G54D35*
D03*
X647700Y850900D02*
G54D35*
D03*
X622300Y850900D02*
G54D35*
D03*
X622300Y876300D02*
G54D35*
D03*
X622300Y901700D02*
G54D35*
D03*
X596900Y876300D02*
G54D35*
D03*
X596900Y850900D02*
G54D35*
D03*
X215900Y889000D02*
G54D35*
D03*
X470285Y774935D02*
G54D35*
D03*
X521085Y774935D02*
G54D35*
D03*
X571885Y774935D02*
G54D35*
D03*
X635000Y762000D02*
G54D35*
D03*
X673100Y762000D02*
G54D35*
D03*
X635000Y736600D02*
G54D35*
D03*
X609600Y723900D02*
G54D35*
D03*
X571885Y698735D02*
G54D35*
D03*
X609600Y698500D02*
G54D35*
D03*
X521085Y698735D02*
G54D35*
D03*
X470285Y698735D02*
G54D35*
D03*
X394085Y698735D02*
G54D35*
D03*
X368300Y698500D02*
G54D35*
D03*
X254000Y711200D02*
G54D35*
D03*
X228600Y673100D02*
G54D35*
D03*
X203200Y647700D02*
G54D35*
D03*
X228600Y647700D02*
G54D35*
D03*
X127000Y673100D02*
G54D35*
D03*
X723900Y762000D02*
G54D35*
D03*
X762000Y762000D02*
G54D35*
D03*
X762000Y736600D02*
G54D35*
D03*
X800100Y762000D02*
G54D35*
D03*
X673100Y787400D02*
G54D35*
D03*
X723900Y787400D02*
G54D35*
D03*
X850900Y762000D02*
G54D35*
D03*
X889000Y762000D02*
G54D35*
D03*
X927100Y850900D02*
G54D35*
D03*
X927100Y825500D02*
G54D35*
D03*
X889000Y736600D02*
G54D35*
D03*
X888200Y697700D02*
G54D35*
D03*
X838200Y647700D02*
G54D35*
D03*
X800100Y673100D02*
G54D35*
D03*
X888200Y597700D02*
G54D35*
D03*
X899300Y558800D02*
G54D35*
D03*
X850900Y558800D02*
G54D35*
D03*
X800100Y647700D02*
G54D35*
D03*
X800100Y584200D02*
G54D35*
D03*
X800100Y558800D02*
G54D35*
D03*
X850900Y558800D02*
G54D35*
D03*
X749300Y685800D02*
G54D35*
D03*
X647700Y673100D02*
G54D35*
D03*
X749300Y635000D02*
G54D35*
D03*
X749300Y609600D02*
G54D35*
D03*
X723900Y609600D02*
G54D35*
D03*
X774700Y609600D02*
G54D35*
D03*
X774700Y584200D02*
G54D35*
D03*
X749300Y584200D02*
G54D35*
D03*
X723900Y584200D02*
G54D35*
D03*
X723900Y558800D02*
G54D35*
D03*
X749300Y558800D02*
G54D35*
D03*
X774700Y558800D02*
G54D35*
D03*
X749300Y533400D02*
G54D35*
D03*
X749300Y508000D02*
G54D35*
D03*
X723900Y533400D02*
G54D35*
D03*
X723900Y508000D02*
G54D35*
D03*
X698500Y444500D02*
G54D35*
D03*
X774700Y457200D02*
G54D35*
D03*
X812800Y457200D02*
G54D35*
D03*
X838200Y457200D02*
G54D35*
D03*
X889000Y457200D02*
G54D35*
D03*
X914400Y457200D02*
G54D35*
D03*
X914400Y482600D02*
G54D35*
D03*
X812800Y482600D02*
G54D35*
D03*
X774700Y482600D02*
G54D35*
D03*
X698500Y508000D02*
G54D35*
D03*
X698500Y469900D02*
G54D35*
D03*
X647700Y533400D02*
G54D35*
D03*
X647700Y558800D02*
G54D35*
D03*
X647700Y584200D02*
G54D35*
D03*
X647700Y609600D02*
G54D35*
D03*
X584200Y649600D02*
G54D35*
D03*
X584200Y609600D02*
G54D35*
D03*
X584200Y558800D02*
G54D35*
D03*
X584200Y533400D02*
G54D35*
D03*
X546100Y533400D02*
G54D35*
D03*
X673100Y469900D02*
G54D35*
D03*
X673100Y444500D02*
G54D35*
D03*
X647700Y444500D02*
G54D35*
D03*
X647700Y469900D02*
G54D35*
D03*
X615666Y472171D02*
G54D35*
D03*
X602966Y458171D02*
G54D35*
D03*
X615666Y444171D02*
G54D35*
D03*
X609600Y393700D02*
G54D35*
D03*
X569600Y393700D02*
G54D35*
D03*
X533251Y393690D02*
G54D35*
D03*
X533251Y419090D02*
G54D35*
D03*
X533251Y444491D02*
G54D35*
D03*
X533251Y469890D02*
G54D35*
D03*
X520700Y533400D02*
G54D35*
D03*
X520700Y571500D02*
G54D35*
D03*
X520700Y596900D02*
G54D35*
D03*
X457200Y647700D02*
G54D35*
D03*
X457200Y622300D02*
G54D35*
D03*
X481750Y534950D02*
G54D35*
D03*
X481750Y583350D02*
G54D35*
D03*
X418250Y583350D02*
G54D35*
D03*
X418250Y534950D02*
G54D35*
D03*
X393700Y622300D02*
G54D35*
D03*
X393700Y647700D02*
G54D35*
D03*
X330200Y647700D02*
G54D35*
D03*
X330200Y622300D02*
G54D35*
D03*
X291250Y583350D02*
G54D35*
D03*
X354750Y583350D02*
G54D35*
D03*
X354750Y534950D02*
G54D35*
D03*
X291250Y534950D02*
G54D35*
D03*
X254000Y546100D02*
G54D35*
D03*
X254000Y596900D02*
G54D35*
D03*
X209266Y599171D02*
G54D35*
D03*
X196566Y585171D02*
G54D35*
D03*
X209266Y571171D02*
G54D35*
D03*
X152400Y596900D02*
G54D35*
D03*
X152400Y546100D02*
G54D35*
D03*
X127000Y622300D02*
G54D35*
D03*
X127000Y596900D02*
G54D35*
D03*
X101600Y596900D02*
G54D35*
D03*
X101600Y571500D02*
G54D35*
D03*
X101600Y546100D02*
G54D35*
D03*
X127000Y546100D02*
G54D35*
D03*
X101600Y520700D02*
G54D35*
D03*
X25400Y596900D02*
G54D35*
D03*
X25400Y571500D02*
G54D35*
D03*
X25400Y546100D02*
G54D35*
D03*
X25400Y520700D02*
G54D35*
D03*
X0Y596900D02*
G54D35*
D03*
X0Y571500D02*
G54D35*
D03*
X-25400Y596900D02*
G54D35*
D03*
X-25400Y571500D02*
G54D35*
D03*
X-25400Y444500D02*
G54D35*
D03*
X-25400Y419100D02*
G54D35*
D03*
X139700Y419100D02*
G54D35*
D03*
X190500Y444500D02*
G54D35*
D03*
X190500Y393700D02*
G54D35*
D03*
X292100Y471800D02*
G54D35*
D03*
X292100Y431800D02*
G54D35*
D03*
X241300Y393700D02*
G54D35*
D03*
X266700Y393700D02*
G54D35*
D03*
X304800Y393700D02*
G54D35*
D03*
X344800Y393700D02*
G54D35*
D03*
X388726Y395177D02*
G54D35*
D03*
X414126Y395177D02*
G54D35*
D03*
X431800Y393700D02*
G54D35*
D03*
X457051Y393690D02*
G54D35*
D03*
X457051Y444491D02*
G54D35*
D03*
X457051Y419090D02*
G54D35*
D03*
X457051Y469890D02*
G54D35*
D03*
X431800Y469900D02*
G54D35*
D03*
X381000Y471800D02*
G54D35*
D03*
X381000Y431800D02*
G54D35*
D03*
X387066Y916671D02*
G54D35*
D03*
X927100Y368300D02*
G54D35*
D03*
X-25400Y368300D02*
G54D35*
D03*
X-25400Y1028700D02*
G54D35*
D03*
X927100Y1028700D02*
G54D35*
D03*
X787400Y825500D02*
G54D30*
D03*
X787400Y825500D02*
G54D35*
D03*
X787400Y825500D02*
G54D35*
D03*
X152400Y711200D02*
G54D13*
D03*
X177800Y711200D02*
G54D13*
D03*
X177800Y711200D02*
G54D35*
D03*
X152400Y711200D02*
G54D35*
D03*
X152400Y736600D02*
G54D13*
D03*
X177800Y736600D02*
G54D13*
D03*
X152400Y736600D02*
G54D35*
D03*
X177800Y736600D02*
G54D35*
D03*
X787400Y825500D02*
G54D35*
D03*
X152400Y736600D02*
G54D35*
D03*
X177800Y736600D02*
G54D35*
D03*
X177800Y711200D02*
G54D35*
D03*
X152400Y711200D02*
G54D35*
D03*
X787400Y825500D02*
G54D30*
D03*
X927100Y850900D02*
G54D13*
D03*
X927100Y850900D02*
G54D35*
D03*
X787400Y825500D02*
G54D35*
D03*
X876300Y520700D02*
G54D13*
D03*
X876300Y520700D02*
G54D35*
D03*
X876300Y520700D02*
G54D35*
D03*
X850900Y533400D02*
G54D13*
D03*
X850900Y533400D02*
G54D35*
D03*
X368300Y863600D02*
G54D35*
D03*
X393700Y863600D02*
G54D35*
D03*
X152400Y736600D02*
G54D35*
D03*
X393700Y863600D02*
G54D35*
D03*
X368300Y863600D02*
G54D35*
D03*
X393700Y863600D02*
G54D27*
D03*
X393700Y863600D02*
G54D35*
D03*
X368300Y863600D02*
G54D27*
D03*
X368300Y863600D02*
G54D35*
D03*
X508000Y901700D02*
G54D35*
D03*
X508000Y901700D02*
G54D35*
D03*
X-25400Y889000D02*
G54D35*
D03*
X800100Y647700D02*
G54D35*
D03*
X279400Y889000D02*
G54D27*
D03*
X279400Y889000D02*
G54D35*
D03*
X279400Y889000D02*
G54D35*
D03*
M02*
